<?xml version="1.0" encoding="UTF-8" ?>
<svg version="1.1" width="114" height="198" xmlns="http://www.w3.org/2000/svg" shape-rendering="crispEdges">
<rect x="51" y="9" width="15" height="6" fill="#184200" />
<rect x="45" y="12" width="6" height="6" fill="#184200" />
<rect x="66" y="12" width="6" height="6" fill="#184200" />
<rect x="42" y="15" width="3" height="9" fill="#184200" />
<rect x="51" y="15" width="3" height="3" fill="#184200" />
<rect x="54" y="15" width="9" height="42" fill="#428400" />
<rect x="63" y="15" width="3" height="3" fill="#184200" />
<rect x="72" y="15" width="3" height="9" fill="#184200" />
<rect x="39" y="18" width="3" height="9" fill="#184200" />
<rect x="45" y="18" width="3" height="3" fill="#184200" />
<rect x="48" y="18" width="6" height="27" fill="#428400" />
<rect x="63" y="18" width="6" height="36" fill="#428400" />
<rect x="69" y="18" width="3" height="3" fill="#184200" />
<rect x="75" y="18" width="3" height="12" fill="#184200" />
<rect x="36" y="21" width="3" height="12" fill="#184200" />
<rect x="45" y="21" width="3" height="21" fill="#428400" />
<rect x="69" y="21" width="3" height="30" fill="#428400" />
<rect x="78" y="21" width="3" height="21" fill="#184200" />
<rect x="42" y="24" width="3" height="18" fill="#428400" />
<rect x="72" y="24" width="3" height="24" fill="#428400" />
<rect x="33" y="27" width="3" height="18" fill="#184200" />
<rect x="39" y="27" width="3" height="15" fill="#428400" />
<rect x="81" y="27" width="12" height="12" fill="#180808" />
<rect x="75" y="30" width="3" height="15" fill="#428400" />
<rect x="93" y="30" width="3" height="6" fill="#180808" />
<rect x="30" y="33" width="3" height="12" fill="#184200" />
<rect x="36" y="33" width="3" height="9" fill="#428400" />
<rect x="27" y="39" width="3" height="9" fill="#184200" />
<rect x="81" y="39" width="9" height="3" fill="#180808" />
<rect x="24" y="42" width="3" height="9" fill="#184200" />
<rect x="36" y="42" width="12" height="3" fill="#184200" />
<rect x="78" y="42" width="6" height="3" fill="#180808" />
<rect x="21" y="45" width="3" height="18" fill="#184200" />
<rect x="30" y="45" width="18" height="18" fill="#428400" />
<rect x="48" y="45" width="6" height="3" fill="#184200" />
<rect x="75" y="45" width="6" height="6" fill="#180808" />
<rect x="18" y="48" width="3" height="15" fill="#184200" />
<rect x="27" y="48" width="3" height="18" fill="#428400" />
<rect x="48" y="48" width="6" height="15" fill="#428400" />
<rect x="72" y="48" width="3" height="6" fill="#180808" />
<rect x="81" y="48" width="9" height="3" fill="#180808" />
<rect x="24" y="51" width="3" height="12" fill="#428400" />
<rect x="69" y="51" width="3" height="6" fill="#180808" />
<rect x="75" y="51" width="3" height="9" fill="#BD8C5A" />
<rect x="78" y="51" width="12" height="3" fill="#421800" />
<rect x="90" y="51" width="3" height="3" fill="#180808" />
<rect x="63" y="54" width="3" height="3" fill="#428400" />
<rect x="66" y="54" width="3" height="3" fill="#184200" />
<rect x="72" y="54" width="3" height="24" fill="#421800" />
<rect x="78" y="54" width="3" height="3" fill="#421800" />
<rect x="81" y="54" width="6" height="18" fill="#BD8C5A" />
<rect x="87" y="54" width="3" height="3" fill="#A56B31" />
<rect x="90" y="54" width="3" height="3" fill="#421800" />
<rect x="93" y="54" width="3" height="3" fill="#180808" />
<rect x="54" y="57" width="6" height="3" fill="#428400" />
<rect x="60" y="57" width="3" height="3" fill="#184200" />
<rect x="63" y="57" width="3" height="3" fill="#180808" />
<rect x="66" y="57" width="6" height="6" fill="#421800" />
<rect x="78" y="57" width="3" height="15" fill="#BD8C5A" />
<rect x="87" y="57" width="3" height="12" fill="#BD8C5A" />
<rect x="90" y="57" width="3" height="3" fill="#A56B31" />
<rect x="93" y="57" width="3" height="12" fill="#421800" />
<rect x="96" y="57" width="3" height="12" fill="#180808" />
<rect x="54" y="60" width="6" height="3" fill="#184200" />
<rect x="60" y="60" width="6" height="3" fill="#421800" />
<rect x="75" y="60" width="3" height="6" fill="#421800" />
<rect x="90" y="60" width="3" height="6" fill="#BD8C5A" />
<rect x="18" y="63" width="3" height="3" fill="#180808" />
<rect x="21" y="63" width="3" height="3" fill="#421800" />
<rect x="24" y="63" width="3" height="3" fill="#184200" />
<rect x="30" y="63" width="15" height="3" fill="#428400" />
<rect x="45" y="63" width="9" height="3" fill="#184200" />
<rect x="54" y="63" width="6" height="3" fill="#421800" />
<rect x="60" y="63" width="9" height="18" fill="#BD8C5A" />
<rect x="69" y="63" width="3" height="3" fill="#421800" />
<rect x="15" y="66" width="3" height="12" fill="#180808" />
<rect x="18" y="66" width="3" height="12" fill="#421800" />
<rect x="21" y="66" width="3" height="3" fill="#A56B31" />
<rect x="24" y="66" width="3" height="15" fill="#BD8C5A" />
<rect x="27" y="66" width="18" height="3" fill="#184200" />
<rect x="45" y="66" width="12" height="27" fill="#421800" />
<rect x="57" y="66" width="3" height="12" fill="#BD8C5A" />
<rect x="69" y="66" width="3" height="12" fill="#BD8C5A" />
<rect x="75" y="66" width="3" height="3" fill="#BD8C5A" />
<rect x="90" y="66" width="3" height="3" fill="#A56B31" />
<rect x="21" y="69" width="3" height="9" fill="#BD8C5A" />
<rect x="27" y="69" width="18" height="9" fill="#421800" />
<rect x="75" y="69" width="3" height="12" fill="#180808" />
<rect x="87" y="69" width="3" height="3" fill="#A56B31" />
<rect x="90" y="69" width="3" height="3" fill="#421800" />
<rect x="93" y="69" width="3" height="3" fill="#180808" />
<rect x="78" y="72" width="3" height="12" fill="#180808" />
<rect x="81" y="72" width="3" height="3" fill="#A56B31" />
<rect x="84" y="72" width="3" height="3" fill="#421800" />
<rect x="87" y="72" width="6" height="3" fill="#180808" />
<rect x="81" y="75" width="6" height="6" fill="#180808" />
<rect x="18" y="78" width="3" height="3" fill="#180808" />
<rect x="21" y="78" width="3" height="3" fill="#421800" />
<rect x="27" y="78" width="3" height="3" fill="#A56B31" />
<rect x="30" y="78" width="15" height="6" fill="#421800" />
<rect x="57" y="78" width="3" height="3" fill="#A56B31" />
<rect x="69" y="78" width="3" height="3" fill="#421800" />
<rect x="72" y="78" width="3" height="6" fill="#BD8C5A" />
<rect x="21" y="81" width="3" height="3" fill="#180808" />
<rect x="24" y="81" width="3" height="3" fill="#421800" />
<rect x="27" y="81" width="3" height="3" fill="#BD8C5A" />
<rect x="57" y="81" width="3" height="6" fill="#421800" />
<rect x="60" y="81" width="3" height="3" fill="#A56B31" />
<rect x="63" y="81" width="6" height="3" fill="#421800" />
<rect x="69" y="81" width="3" height="6" fill="#BD8C5A" />
<rect x="75" y="81" width="3" height="3" fill="#421800" />
<rect x="81" y="81" width="3" height="3" fill="#180808" />
<rect x="24" y="84" width="9" height="3" fill="#180808" />
<rect x="33" y="84" width="12" height="9" fill="#421800" />
<rect x="60" y="84" width="9" height="6" fill="#BD8C5A" />
<rect x="72" y="84" width="3" height="3" fill="#421800" />
<rect x="75" y="84" width="3" height="3" fill="#180808" />
<rect x="30" y="87" width="3" height="3" fill="#180808" />
<rect x="57" y="87" width="3" height="3" fill="#A56B31" />
<rect x="69" y="87" width="3" height="3" fill="#421800" />
<rect x="72" y="87" width="3" height="3" fill="#180808" />
<rect x="27" y="90" width="3" height="6" fill="#180808" />
<rect x="30" y="90" width="3" height="6" fill="#421800" />
<rect x="57" y="90" width="9" height="3" fill="#BD8C5A" />
<rect x="66" y="90" width="3" height="3" fill="#7B4210" />
<rect x="69" y="90" width="3" height="3" fill="#180808" />
<rect x="33" y="93" width="6" height="3" fill="#421800" />
<rect x="39" y="93" width="3" height="6" fill="#180808" />
<rect x="42" y="93" width="12" height="3" fill="#421800" />
<rect x="54" y="93" width="9" height="6" fill="#BD8C5A" />
<rect x="63" y="93" width="3" height="3" fill="#A56B31" />
<rect x="66" y="93" width="3" height="6" fill="#180808" />
<rect x="30" y="96" width="9" height="3" fill="#180808" />
<rect x="42" y="96" width="9" height="3" fill="#180808" />
<rect x="51" y="96" width="3" height="3" fill="#BD8C5A" />
<rect x="63" y="96" width="3" height="3" fill="#7B4210" />
<rect x="42" y="99" width="3" height="3" fill="#184200" />
<rect x="45" y="99" width="6" height="3" fill="#181839" />
<rect x="51" y="99" width="9" height="3" fill="#421800" />
<rect x="60" y="99" width="9" height="3" fill="#181839" />
<rect x="42" y="102" width="3" height="6" fill="#181839" />
<rect x="45" y="102" width="6" height="3" fill="#2121DE" />
<rect x="51" y="102" width="9" height="3" fill="#428400" />
<rect x="60" y="102" width="6" height="3" fill="#2121DE" />
<rect x="66" y="102" width="6" height="3" fill="#184200" />
<rect x="39" y="105" width="3" height="3" fill="#184200" />
<rect x="45" y="105" width="3" height="6" fill="#2121DE" />
<rect x="48" y="105" width="9" height="6" fill="#428400" />
<rect x="57" y="105" width="6" height="24" fill="#2121DE" />
<rect x="63" y="105" width="3" height="3" fill="#184200" />
<rect x="66" y="105" width="3" height="21" fill="#428400" />
<rect x="69" y="105" width="6" height="3" fill="#184200" />
<rect x="39" y="108" width="3" height="6" fill="#181839" />
<rect x="42" y="108" width="3" height="51" fill="#2121DE" />
<rect x="63" y="108" width="3" height="12" fill="#428400" />
<rect x="69" y="108" width="3" height="18" fill="#428400" />
<rect x="72" y="108" width="6" height="3" fill="#184200" />
<rect x="36" y="111" width="3" height="3" fill="#184200" />
<rect x="45" y="111" width="9" height="9" fill="#428400" />
<rect x="54" y="111" width="3" height="54" fill="#2121DE" />
<rect x="72" y="111" width="3" height="15" fill="#428400" />
<rect x="75" y="111" width="6" height="6" fill="#184200" />
<rect x="33" y="114" width="3" height="9" fill="#184200" />
<rect x="36" y="114" width="3" height="9" fill="#181839" />
<rect x="39" y="114" width="3" height="42" fill="#2121DE" />
<rect x="30" y="117" width="3" height="3" fill="#184200" />
<rect x="75" y="117" width="3" height="9" fill="#428400" />
<rect x="78" y="117" width="6" height="6" fill="#184200" />
<rect x="27" y="120" width="3" height="3" fill="#180808" />
<rect x="30" y="120" width="3" height="3" fill="#393939" />
<rect x="45" y="120" width="3" height="42" fill="#2121DE" />
<rect x="48" y="120" width="3" height="3" fill="#428400" />
<rect x="51" y="120" width="3" height="45" fill="#2121DE" />
<rect x="63" y="120" width="3" height="6" fill="#184200" />
<rect x="24" y="123" width="3" height="3" fill="#180808" />
<rect x="27" y="123" width="3" height="3" fill="#393939" />
<rect x="30" y="123" width="3" height="9" fill="#B5B5B5" />
<rect x="33" y="123" width="3" height="30" fill="#181839" />
<rect x="36" y="123" width="3" height="27" fill="#2121DE" />
<rect x="48" y="123" width="3" height="39" fill="#2121DE" />
<rect x="78" y="123" width="3" height="3" fill="#428400" />
<rect x="81" y="123" width="3" height="3" fill="#184200" />
<rect x="84" y="123" width="3" height="3" fill="#180808" />
<rect x="21" y="126" width="3" height="15" fill="#180808" />
<rect x="24" y="126" width="3" height="15" fill="#393939" />
<rect x="27" y="126" width="3" height="12" fill="#B5B5B5" />
<rect x="63" y="126" width="3" height="3" fill="#393939" />
<rect x="66" y="126" width="18" height="6" fill="#B5B5B5" />
<rect x="84" y="126" width="3" height="3" fill="#393939" />
<rect x="87" y="126" width="3" height="3" fill="#180808" />
<rect x="57" y="129" width="3" height="36" fill="#2121DE" />
<rect x="60" y="129" width="3" height="6" fill="#393939" />
<rect x="63" y="129" width="3" height="6" fill="#B5B5B5" />
<rect x="84" y="129" width="3" height="15" fill="#B5B5B5" />
<rect x="87" y="129" width="3" height="3" fill="#393939" />
<rect x="90" y="129" width="3" height="3" fill="#180808" />
<rect x="30" y="132" width="3" height="9" fill="#181839" />
<rect x="66" y="132" width="15" height="3" fill="#B5B5B5" />
<rect x="81" y="132" width="3" height="6" fill="#636363" />
<rect x="87" y="132" width="3" height="9" fill="#B5B5B5" />
<rect x="90" y="132" width="3" height="9" fill="#393939" />
<rect x="93" y="132" width="3" height="9" fill="#180808" />
<rect x="60" y="135" width="3" height="3" fill="#2121DE" />
<rect x="63" y="135" width="3" height="3" fill="#636363" />
<rect x="66" y="135" width="9" height="12" fill="#B5B5B5" />
<rect x="75" y="135" width="3" height="6" fill="#636363" />
<rect x="78" y="135" width="3" height="12" fill="#B5B5B5" />
<rect x="27" y="138" width="3" height="3" fill="#393939" />
<rect x="60" y="138" width="3" height="6" fill="#393939" />
<rect x="63" y="138" width="3" height="6" fill="#B5B5B5" />
<rect x="81" y="138" width="3" height="6" fill="#B5B5B5" />
<rect x="24" y="141" width="6" height="3" fill="#180808" />
<rect x="30" y="141" width="3" height="3" fill="#393939" />
<rect x="75" y="141" width="3" height="6" fill="#B5B5B5" />
<rect x="87" y="141" width="3" height="3" fill="#393939" />
<rect x="90" y="141" width="3" height="6" fill="#180808" />
<rect x="30" y="144" width="3" height="3" fill="#180808" />
<rect x="60" y="144" width="3" height="21" fill="#2121DE" />
<rect x="63" y="144" width="3" height="3" fill="#393939" />
<rect x="81" y="144" width="6" height="3" fill="#393939" />
<rect x="87" y="144" width="3" height="3" fill="#180808" />
<rect x="63" y="147" width="3" height="15" fill="#2121DE" />
<rect x="66" y="147" width="15" height="3" fill="#393939" />
<rect x="81" y="147" width="6" height="3" fill="#180808" />
<rect x="36" y="150" width="3" height="6" fill="#181839" />
<rect x="66" y="150" width="9" height="3" fill="#2121DE" />
<rect x="75" y="150" width="6" height="3" fill="#181839" />
<rect x="27" y="153" width="9" height="3" fill="#180808" />
<rect x="66" y="153" width="6" height="6" fill="#2121DE" />
<rect x="72" y="153" width="6" height="3" fill="#181839" />
<rect x="78" y="153" width="6" height="3" fill="#180808" />
<rect x="24" y="156" width="6" height="3" fill="#180808" />
<rect x="30" y="156" width="9" height="15" fill="#421800" />
<rect x="39" y="156" width="3" height="3" fill="#181839" />
<rect x="72" y="156" width="9" height="15" fill="#421800" />
<rect x="81" y="156" width="6" height="3" fill="#180808" />
<rect x="21" y="159" width="6" height="15" fill="#180808" />
<rect x="27" y="159" width="3" height="9" fill="#421800" />
<rect x="39" y="159" width="6" height="15" fill="#421800" />
<rect x="66" y="159" width="3" height="3" fill="#2121DE" />
<rect x="69" y="159" width="3" height="15" fill="#421800" />
<rect x="81" y="159" width="3" height="9" fill="#421800" />
<rect x="84" y="159" width="6" height="15" fill="#180808" />
<rect x="45" y="162" width="6" height="15" fill="#421800" />
<rect x="63" y="162" width="6" height="15" fill="#421800" />
<rect x="51" y="165" width="12" height="12" fill="#421800" />
<rect x="27" y="168" width="3" height="3" fill="#7B4210" />
<rect x="81" y="168" width="3" height="6" fill="#7B4210" />
<rect x="27" y="171" width="3" height="6" fill="#180808" />
<rect x="30" y="171" width="3" height="3" fill="#7B4210" />
<rect x="33" y="171" width="3" height="3" fill="#A56B31" />
<rect x="36" y="171" width="3" height="3" fill="#421800" />
<rect x="72" y="171" width="6" height="3" fill="#421800" />
<rect x="78" y="171" width="3" height="3" fill="#A56B31" />
<rect x="24" y="174" width="3" height="3" fill="#180808" />
<rect x="30" y="174" width="6" height="6" fill="#180808" />
<rect x="36" y="174" width="6" height="3" fill="#A56B31" />
<rect x="42" y="174" width="3" height="3" fill="#7B4210" />
<rect x="69" y="174" width="3" height="3" fill="#7B4210" />
<rect x="72" y="174" width="6" height="3" fill="#A56B31" />
<rect x="78" y="174" width="9" height="3" fill="#180808" />
<rect x="36" y="177" width="9" height="6" fill="#180808" />
<rect x="45" y="177" width="6" height="3" fill="#7B4210" />
<rect x="51" y="177" width="9" height="3" fill="#421800" />
<rect x="60" y="177" width="6" height="3" fill="#7B4210" />
<rect x="66" y="177" width="3" height="3" fill="#A56B31" />
<rect x="69" y="177" width="15" height="3" fill="#180808" />
<rect x="45" y="180" width="33" height="3" fill="#180808" />
<rect x="45" y="183" width="24" height="3" fill="#180808" />
</svg>