<?xml version="1.0" encoding="UTF-8" ?>
<svg version="1.1" width="114" height="198" xmlns="http://www.w3.org/2000/svg" shape-rendering="crispEdges">
<rect x="54" y="3" width="15" height="6" fill="#184200" />
<rect x="48" y="6" width="6" height="6" fill="#184200" />
<rect x="69" y="6" width="6" height="6" fill="#184200" />
<rect x="45" y="9" width="3" height="9" fill="#184200" />
<rect x="54" y="9" width="3" height="3" fill="#184200" />
<rect x="57" y="9" width="9" height="42" fill="#428400" />
<rect x="66" y="9" width="3" height="3" fill="#184200" />
<rect x="75" y="9" width="3" height="9" fill="#184200" />
<rect x="42" y="12" width="3" height="9" fill="#184200" />
<rect x="48" y="12" width="3" height="3" fill="#184200" />
<rect x="51" y="12" width="6" height="27" fill="#428400" />
<rect x="66" y="12" width="6" height="36" fill="#428400" />
<rect x="72" y="12" width="3" height="3" fill="#184200" />
<rect x="78" y="12" width="3" height="12" fill="#184200" />
<rect x="39" y="15" width="3" height="12" fill="#184200" />
<rect x="48" y="15" width="3" height="21" fill="#428400" />
<rect x="72" y="15" width="3" height="30" fill="#428400" />
<rect x="81" y="15" width="3" height="21" fill="#184200" />
<rect x="45" y="18" width="3" height="18" fill="#428400" />
<rect x="75" y="18" width="3" height="24" fill="#428400" />
<rect x="36" y="21" width="3" height="18" fill="#184200" />
<rect x="42" y="21" width="3" height="15" fill="#428400" />
<rect x="84" y="21" width="12" height="12" fill="#180808" />
<rect x="78" y="24" width="3" height="15" fill="#428400" />
<rect x="96" y="24" width="3" height="6" fill="#180808" />
<rect x="27" y="27" width="6" height="3" fill="#181010" />
<rect x="33" y="27" width="3" height="12" fill="#184200" />
<rect x="39" y="27" width="3" height="9" fill="#428400" />
<rect x="24" y="30" width="3" height="3" fill="#181010" />
<rect x="27" y="30" width="3" height="3" fill="#393939" />
<rect x="30" y="30" width="3" height="3" fill="#B5B5B5" />
<rect x="21" y="33" width="3" height="9" fill="#181010" />
<rect x="24" y="33" width="3" height="3" fill="#393939" />
<rect x="27" y="33" width="3" height="3" fill="#B5B5B5" />
<rect x="30" y="33" width="3" height="9" fill="#184200" />
<rect x="84" y="33" width="9" height="3" fill="#180808" />
<rect x="24" y="36" width="3" height="3" fill="#B5B5B5" />
<rect x="27" y="36" width="3" height="9" fill="#184200" />
<rect x="39" y="36" width="12" height="3" fill="#184200" />
<rect x="81" y="36" width="6" height="3" fill="#180808" />
<rect x="24" y="39" width="3" height="18" fill="#184200" />
<rect x="33" y="39" width="18" height="18" fill="#428400" />
<rect x="51" y="39" width="6" height="3" fill="#184200" />
<rect x="78" y="39" width="6" height="6" fill="#180808" />
<rect x="21" y="42" width="3" height="15" fill="#184200" />
<rect x="30" y="42" width="3" height="18" fill="#428400" />
<rect x="51" y="42" width="6" height="15" fill="#428400" />
<rect x="75" y="42" width="3" height="6" fill="#180808" />
<rect x="84" y="42" width="9" height="3" fill="#180808" />
<rect x="27" y="45" width="3" height="12" fill="#428400" />
<rect x="72" y="45" width="3" height="6" fill="#180808" />
<rect x="78" y="45" width="3" height="9" fill="#BD8C5A" />
<rect x="81" y="45" width="12" height="3" fill="#421800" />
<rect x="93" y="45" width="3" height="3" fill="#180808" />
<rect x="66" y="48" width="3" height="3" fill="#428400" />
<rect x="69" y="48" width="3" height="3" fill="#184200" />
<rect x="75" y="48" width="3" height="24" fill="#421800" />
<rect x="81" y="48" width="3" height="3" fill="#421800" />
<rect x="84" y="48" width="6" height="18" fill="#BD8C5A" />
<rect x="90" y="48" width="3" height="3" fill="#A56B31" />
<rect x="93" y="48" width="3" height="3" fill="#421800" />
<rect x="96" y="48" width="3" height="3" fill="#180808" />
<rect x="57" y="51" width="6" height="3" fill="#428400" />
<rect x="63" y="51" width="3" height="3" fill="#184200" />
<rect x="66" y="51" width="3" height="3" fill="#180808" />
<rect x="69" y="51" width="6" height="6" fill="#421800" />
<rect x="81" y="51" width="3" height="15" fill="#BD8C5A" />
<rect x="90" y="51" width="3" height="12" fill="#BD8C5A" />
<rect x="93" y="51" width="3" height="3" fill="#A56B31" />
<rect x="96" y="51" width="3" height="12" fill="#421800" />
<rect x="99" y="51" width="3" height="12" fill="#180808" />
<rect x="57" y="54" width="6" height="3" fill="#184200" />
<rect x="63" y="54" width="6" height="3" fill="#421800" />
<rect x="78" y="54" width="3" height="6" fill="#421800" />
<rect x="93" y="54" width="3" height="6" fill="#BD8C5A" />
<rect x="21" y="57" width="3" height="3" fill="#180808" />
<rect x="24" y="57" width="3" height="3" fill="#421800" />
<rect x="27" y="57" width="3" height="3" fill="#184200" />
<rect x="33" y="57" width="15" height="3" fill="#428400" />
<rect x="48" y="57" width="9" height="3" fill="#184200" />
<rect x="57" y="57" width="6" height="3" fill="#421800" />
<rect x="63" y="57" width="9" height="18" fill="#BD8C5A" />
<rect x="72" y="57" width="3" height="3" fill="#421800" />
<rect x="18" y="60" width="3" height="12" fill="#180808" />
<rect x="21" y="60" width="3" height="12" fill="#421800" />
<rect x="24" y="60" width="3" height="3" fill="#A56B31" />
<rect x="27" y="60" width="3" height="15" fill="#BD8C5A" />
<rect x="30" y="60" width="18" height="3" fill="#184200" />
<rect x="48" y="60" width="12" height="27" fill="#421800" />
<rect x="60" y="60" width="3" height="12" fill="#BD8C5A" />
<rect x="72" y="60" width="3" height="12" fill="#BD8C5A" />
<rect x="78" y="60" width="3" height="3" fill="#BD8C5A" />
<rect x="93" y="60" width="3" height="3" fill="#A56B31" />
<rect x="24" y="63" width="3" height="9" fill="#BD8C5A" />
<rect x="30" y="63" width="18" height="9" fill="#421800" />
<rect x="78" y="63" width="3" height="12" fill="#180808" />
<rect x="90" y="63" width="3" height="3" fill="#A56B31" />
<rect x="93" y="63" width="3" height="3" fill="#421800" />
<rect x="96" y="63" width="3" height="3" fill="#180808" />
<rect x="81" y="66" width="3" height="12" fill="#180808" />
<rect x="84" y="66" width="3" height="3" fill="#A56B31" />
<rect x="87" y="66" width="3" height="3" fill="#421800" />
<rect x="90" y="66" width="6" height="3" fill="#180808" />
<rect x="84" y="69" width="6" height="6" fill="#180808" />
<rect x="21" y="72" width="3" height="3" fill="#180808" />
<rect x="24" y="72" width="3" height="3" fill="#421800" />
<rect x="30" y="72" width="3" height="3" fill="#A56B31" />
<rect x="33" y="72" width="15" height="6" fill="#421800" />
<rect x="60" y="72" width="3" height="3" fill="#A56B31" />
<rect x="72" y="72" width="3" height="3" fill="#421800" />
<rect x="75" y="72" width="3" height="6" fill="#BD8C5A" />
<rect x="24" y="75" width="3" height="3" fill="#180808" />
<rect x="27" y="75" width="3" height="3" fill="#421800" />
<rect x="30" y="75" width="3" height="3" fill="#BD8C5A" />
<rect x="60" y="75" width="3" height="6" fill="#421800" />
<rect x="63" y="75" width="3" height="3" fill="#A56B31" />
<rect x="66" y="75" width="6" height="3" fill="#421800" />
<rect x="72" y="75" width="3" height="6" fill="#BD8C5A" />
<rect x="78" y="75" width="3" height="3" fill="#421800" />
<rect x="84" y="75" width="3" height="3" fill="#180808" />
<rect x="27" y="78" width="9" height="3" fill="#180808" />
<rect x="36" y="78" width="12" height="9" fill="#421800" />
<rect x="63" y="78" width="9" height="6" fill="#BD8C5A" />
<rect x="75" y="78" width="3" height="3" fill="#421800" />
<rect x="78" y="78" width="3" height="3" fill="#180808" />
<rect x="27" y="81" width="3" height="6" fill="#184200" />
<rect x="30" y="81" width="3" height="3" fill="#428400" />
<rect x="33" y="81" width="3" height="3" fill="#180808" />
<rect x="60" y="81" width="3" height="3" fill="#A56B31" />
<rect x="72" y="81" width="3" height="3" fill="#421800" />
<rect x="75" y="81" width="3" height="3" fill="#180808" />
<rect x="30" y="84" width="3" height="6" fill="#180808" />
<rect x="33" y="84" width="3" height="6" fill="#421800" />
<rect x="60" y="84" width="9" height="3" fill="#BD8C5A" />
<rect x="69" y="84" width="3" height="3" fill="#7B4210" />
<rect x="72" y="84" width="3" height="3" fill="#180808" />
<rect x="36" y="87" width="6" height="3" fill="#421800" />
<rect x="42" y="87" width="3" height="6" fill="#180808" />
<rect x="45" y="87" width="12" height="3" fill="#421800" />
<rect x="57" y="87" width="9" height="6" fill="#BD8C5A" />
<rect x="66" y="87" width="3" height="3" fill="#A56B31" />
<rect x="69" y="87" width="3" height="6" fill="#180808" />
<rect x="30" y="90" width="3" height="6" fill="#184200" />
<rect x="33" y="90" width="9" height="3" fill="#180808" />
<rect x="45" y="90" width="9" height="3" fill="#180808" />
<rect x="54" y="90" width="3" height="3" fill="#BD8C5A" />
<rect x="66" y="90" width="3" height="3" fill="#7B4210" />
<rect x="33" y="93" width="3" height="9" fill="#184200" />
<rect x="36" y="93" width="9" height="6" fill="#428400" />
<rect x="45" y="93" width="3" height="3" fill="#184200" />
<rect x="48" y="93" width="6" height="3" fill="#181839" />
<rect x="54" y="93" width="9" height="3" fill="#421800" />
<rect x="63" y="93" width="9" height="3" fill="#181839" />
<rect x="45" y="96" width="3" height="6" fill="#181839" />
<rect x="48" y="96" width="6" height="3" fill="#2121DE" />
<rect x="54" y="96" width="9" height="3" fill="#428400" />
<rect x="63" y="96" width="6" height="3" fill="#2121DE" />
<rect x="69" y="96" width="6" height="3" fill="#184200" />
<rect x="36" y="99" width="3" height="9" fill="#184200" />
<rect x="39" y="99" width="6" height="3" fill="#428400" />
<rect x="48" y="99" width="3" height="6" fill="#2121DE" />
<rect x="51" y="99" width="9" height="6" fill="#428400" />
<rect x="60" y="99" width="6" height="6" fill="#2121DE" />
<rect x="66" y="99" width="3" height="3" fill="#184200" />
<rect x="69" y="99" width="3" height="24" fill="#428400" />
<rect x="72" y="99" width="3" height="3" fill="#184200" />
<rect x="39" y="102" width="3" height="6" fill="#184200" />
<rect x="42" y="102" width="3" height="6" fill="#181839" />
<rect x="45" y="102" width="3" height="51" fill="#2121DE" />
<rect x="66" y="102" width="3" height="21" fill="#428400" />
<rect x="72" y="102" width="3" height="18" fill="#428400" />
<rect x="75" y="102" width="3" height="6" fill="#184200" />
<rect x="48" y="105" width="9" height="9" fill="#428400" />
<rect x="57" y="105" width="3" height="6" fill="#2121DE" />
<rect x="60" y="105" width="3" height="21" fill="#184200" />
<rect x="63" y="105" width="3" height="18" fill="#428400" />
<rect x="39" y="108" width="3" height="9" fill="#181839" />
<rect x="42" y="108" width="3" height="45" fill="#2121DE" />
<rect x="75" y="108" width="3" height="12" fill="#428400" />
<rect x="78" y="108" width="3" height="9" fill="#184200" />
<rect x="57" y="111" width="3" height="12" fill="#184200" />
<rect x="48" y="114" width="3" height="36" fill="#2121DE" />
<rect x="51" y="114" width="3" height="3" fill="#428400" />
<rect x="54" y="114" width="3" height="36" fill="#2121DE" />
<rect x="81" y="114" width="6" height="3" fill="#184200" />
<rect x="36" y="117" width="3" height="15" fill="#181839" />
<rect x="39" y="117" width="3" height="36" fill="#2121DE" />
<rect x="51" y="117" width="3" height="33" fill="#2121DE" />
<rect x="78" y="117" width="9" height="6" fill="#B0B0B0" />
<rect x="87" y="117" width="3" height="3" fill="#404040" />
<rect x="72" y="120" width="6" height="6" fill="#B0B0B0" />
<rect x="87" y="120" width="3" height="12" fill="#B0B0B0" />
<rect x="90" y="120" width="3" height="15" fill="#404040" />
<rect x="57" y="123" width="3" height="27" fill="#2121DE" />
<rect x="63" y="123" width="3" height="3" fill="#184200" />
<rect x="66" y="123" width="6" height="12" fill="#B0B0B0" />
<rect x="78" y="123" width="3" height="15" fill="#B0B0B0" />
<rect x="81" y="123" width="3" height="6" fill="#686868" />
<rect x="84" y="123" width="3" height="12" fill="#B0B0B0" />
<rect x="33" y="126" width="3" height="12" fill="#181839" />
<rect x="60" y="126" width="3" height="3" fill="#404040" />
<rect x="63" y="126" width="3" height="3" fill="#B0B0B0" />
<rect x="72" y="126" width="3" height="6" fill="#686868" />
<rect x="75" y="126" width="3" height="12" fill="#B0B0B0" />
<rect x="60" y="129" width="3" height="21" fill="#2121DE" />
<rect x="63" y="129" width="3" height="6" fill="#404040" />
<rect x="81" y="129" width="3" height="9" fill="#B0B0B0" />
<rect x="93" y="129" width="15" height="6" fill="#180808" />
<rect x="21" y="132" width="6" height="6" fill="#180808" />
<rect x="36" y="132" width="3" height="24" fill="#2121DE" />
<rect x="72" y="132" width="3" height="6" fill="#B0B0B0" />
<rect x="87" y="132" width="3" height="6" fill="#404040" />
<rect x="108" y="132" width="3" height="27" fill="#180808" />
<rect x="15" y="135" width="6" height="6" fill="#180808" />
<rect x="27" y="135" width="6" height="3" fill="#180808" />
<rect x="63" y="135" width="3" height="15" fill="#2121DE" />
<rect x="66" y="135" width="3" height="3" fill="#404040" />
<rect x="69" y="135" width="3" height="3" fill="#B0B0B0" />
<rect x="84" y="135" width="3" height="6" fill="#404040" />
<rect x="90" y="135" width="3" height="3" fill="#180808" />
<rect x="93" y="135" width="9" height="24" fill="#421800" />
<rect x="102" y="135" width="3" height="3" fill="#7B4210" />
<rect x="105" y="135" width="3" height="3" fill="#180808" />
<rect x="111" y="135" width="3" height="18" fill="#180808" />
<rect x="12" y="138" width="3" height="15" fill="#180808" />
<rect x="21" y="138" width="3" height="3" fill="#A56B31" />
<rect x="24" y="138" width="9" height="3" fill="#421800" />
<rect x="33" y="138" width="3" height="3" fill="#2121DE" />
<rect x="66" y="138" width="3" height="12" fill="#2121DE" />
<rect x="69" y="138" width="15" height="3" fill="#404040" />
<rect x="87" y="138" width="3" height="12" fill="#2121DE" />
<rect x="90" y="138" width="3" height="30" fill="#421800" />
<rect x="102" y="138" width="3" height="15" fill="#421800" />
<rect x="105" y="138" width="3" height="12" fill="#A56B31" />
<rect x="15" y="141" width="3" height="3" fill="#180808" />
<rect x="18" y="141" width="6" height="15" fill="#7B4210" />
<rect x="24" y="141" width="3" height="15" fill="#A56B31" />
<rect x="27" y="141" width="9" height="15" fill="#421800" />
<rect x="69" y="141" width="18" height="12" fill="#2121DE" />
<rect x="9" y="144" width="3" height="33" fill="#180808" />
<rect x="15" y="144" width="3" height="30" fill="#7B4210" />
<rect x="48" y="150" width="21" height="6" fill="#181839" />
<rect x="87" y="150" width="3" height="18" fill="#421800" />
<rect x="105" y="150" width="3" height="3" fill="#7B4210" />
<rect x="12" y="153" width="3" height="18" fill="#7B4210" />
<rect x="39" y="153" width="9" height="6" fill="#181839" />
<rect x="69" y="153" width="9" height="3" fill="#181839" />
<rect x="78" y="153" width="6" height="3" fill="#2121DE" />
<rect x="84" y="153" width="3" height="15" fill="#421800" />
<rect x="102" y="153" width="3" height="6" fill="#7B4210" />
<rect x="105" y="153" width="3" height="9" fill="#180808" />
<rect x="6" y="156" width="3" height="18" fill="#180808" />
<rect x="18" y="156" width="3" height="12" fill="#7B4210" />
<rect x="21" y="156" width="3" height="12" fill="#A56B31" />
<rect x="24" y="156" width="3" height="3" fill="#7B4210" />
<rect x="27" y="156" width="6" height="9" fill="#421800" />
<rect x="33" y="156" width="3" height="18" fill="#180808" />
<rect x="36" y="156" width="3" height="6" fill="#181839" />
<rect x="48" y="156" width="3" height="3" fill="#181839" />
<rect x="66" y="156" width="9" height="3" fill="#181839" />
<rect x="75" y="156" width="3" height="12" fill="#180808" />
<rect x="78" y="156" width="6" height="9" fill="#421800" />
<rect x="24" y="159" width="3" height="15" fill="#421800" />
<rect x="39" y="159" width="3" height="3" fill="#181839" />
<rect x="72" y="159" width="3" height="6" fill="#180808" />
<rect x="93" y="159" width="3" height="6" fill="#421800" />
<rect x="96" y="159" width="3" height="6" fill="#7B4210" />
<rect x="99" y="159" width="3" height="3" fill="#421800" />
<rect x="102" y="159" width="3" height="6" fill="#180808" />
<rect x="36" y="162" width="3" height="9" fill="#180808" />
<rect x="99" y="162" width="3" height="6" fill="#180808" />
<rect x="27" y="165" width="3" height="3" fill="#421800" />
<rect x="30" y="165" width="3" height="6" fill="#7B4210" />
<rect x="78" y="165" width="3" height="6" fill="#180808" />
<rect x="81" y="165" width="3" height="3" fill="#421800" />
<rect x="93" y="165" width="3" height="3" fill="#7B4210" />
<rect x="96" y="165" width="3" height="6" fill="#180808" />
<rect x="18" y="168" width="3" height="3" fill="#A56B31" />
<rect x="21" y="168" width="3" height="3" fill="#7B4210" />
<rect x="27" y="168" width="3" height="3" fill="#7B4210" />
<rect x="81" y="168" width="15" height="6" fill="#180808" />
<rect x="12" y="171" width="3" height="9" fill="#180808" />
<rect x="18" y="171" width="3" height="3" fill="#7B4210" />
<rect x="21" y="171" width="3" height="3" fill="#421800" />
<rect x="27" y="171" width="3" height="3" fill="#421800" />
<rect x="30" y="171" width="3" height="6" fill="#180808" />
<rect x="15" y="174" width="15" height="6" fill="#180808" />
</svg>