<?xml version="1.0" encoding="UTF-8" ?>
<svg version="1.1" width="114" height="198" xmlns="http://www.w3.org/2000/svg" shape-rendering="crispEdges">
<rect x="57" y="6" width="15" height="6" fill="#184200" />
<rect x="51" y="9" width="6" height="6" fill="#184200" />
<rect x="72" y="9" width="6" height="6" fill="#184200" />
<rect x="48" y="12" width="3" height="9" fill="#184200" />
<rect x="57" y="12" width="3" height="3" fill="#184200" />
<rect x="60" y="12" width="12" height="6" fill="#428400" />
<rect x="78" y="12" width="3" height="9" fill="#184200" />
<rect x="45" y="15" width="3" height="12" fill="#184200" />
<rect x="51" y="15" width="3" height="3" fill="#184200" />
<rect x="54" y="15" width="6" height="21" fill="#428400" />
<rect x="72" y="15" width="6" height="3" fill="#428400" />
<rect x="81" y="15" width="3" height="12" fill="#184200" />
<rect x="42" y="18" width="3" height="15" fill="#184200" />
<rect x="51" y="18" width="3" height="21" fill="#428400" />
<rect x="60" y="18" width="3" height="3" fill="#428400" />
<rect x="63" y="18" width="12" height="3" fill="#B5B5B5" />
<rect x="75" y="18" width="3" height="3" fill="#428400" />
<rect x="48" y="21" width="3" height="21" fill="#428400" />
<rect x="60" y="21" width="9" height="9" fill="#B5B5B5" />
<rect x="69" y="21" width="6" height="9" fill="#184200" />
<rect x="75" y="21" width="3" height="9" fill="#B5B5B5" />
<rect x="78" y="21" width="3" height="6" fill="#428400" />
<rect x="84" y="21" width="3" height="6" fill="#184200" />
<rect x="39" y="24" width="3" height="15" fill="#184200" />
<rect x="45" y="27" width="3" height="18" fill="#428400" />
<rect x="78" y="27" width="3" height="3" fill="#184200" />
<rect x="81" y="27" width="18" height="9" fill="#180808" />
<rect x="36" y="30" width="3" height="15" fill="#184200" />
<rect x="60" y="30" width="3" height="6" fill="#428400" />
<rect x="63" y="30" width="3" height="3" fill="#B5B5B5" />
<rect x="66" y="30" width="3" height="3" fill="#184200" />
<rect x="69" y="30" width="12" height="9" fill="#180808" />
<rect x="99" y="30" width="3" height="3" fill="#180808" />
<rect x="42" y="33" width="3" height="15" fill="#428400" />
<rect x="63" y="33" width="6" height="9" fill="#180808" />
<rect x="27" y="36" width="9" height="6" fill="#184200" />
<rect x="54" y="36" width="3" height="3" fill="#428400" />
<rect x="57" y="36" width="3" height="3" fill="#184200" />
<rect x="60" y="36" width="3" height="6" fill="#180808" />
<rect x="81" y="36" width="9" height="3" fill="#180808" />
<rect x="24" y="39" width="3" height="21" fill="#184200" />
<rect x="39" y="39" width="3" height="9" fill="#428400" />
<rect x="51" y="39" width="3" height="3" fill="#184200" />
<rect x="54" y="39" width="6" height="6" fill="#180808" />
<rect x="69" y="39" width="12" height="3" fill="#BD8C5A" />
<rect x="81" y="39" width="3" height="6" fill="#421800" />
<rect x="84" y="39" width="3" height="9" fill="#180808" />
<rect x="21" y="42" width="3" height="15" fill="#184200" />
<rect x="27" y="42" width="3" height="3" fill="#184200" />
<rect x="30" y="42" width="6" height="9" fill="#428400" />
<rect x="48" y="42" width="3" height="3" fill="#184200" />
<rect x="51" y="42" width="3" height="3" fill="#180808" />
<rect x="60" y="42" width="18" height="3" fill="#BD8C5A" />
<rect x="78" y="42" width="3" height="3" fill="#A56B31" />
<rect x="27" y="45" width="3" height="9" fill="#428400" />
<rect x="36" y="45" width="3" height="6" fill="#428400" />
<rect x="45" y="45" width="6" height="3" fill="#180808" />
<rect x="51" y="45" width="3" height="3" fill="#7B4210" />
<rect x="54" y="45" width="9" height="21" fill="#BD8C5A" />
<rect x="63" y="45" width="6" height="12" fill="#180808" />
<rect x="69" y="45" width="9" height="24" fill="#BD8C5A" />
<rect x="78" y="45" width="6" height="6" fill="#180808" />
<rect x="87" y="45" width="6" height="3" fill="#180808" />
<rect x="39" y="48" width="3" height="3" fill="#184200" />
<rect x="42" y="48" width="6" height="3" fill="#180808" />
<rect x="48" y="48" width="3" height="3" fill="#7B4210" />
<rect x="51" y="48" width="3" height="48" fill="#BD8C5A" />
<rect x="84" y="48" width="9" height="3" fill="#421800" />
<rect x="93" y="48" width="3" height="3" fill="#180808" />
<rect x="30" y="51" width="3" height="3" fill="#428400" />
<rect x="33" y="51" width="3" height="3" fill="#184200" />
<rect x="36" y="51" width="6" height="3" fill="#180808" />
<rect x="42" y="51" width="3" height="15" fill="#421800" />
<rect x="45" y="51" width="6" height="6" fill="#BD8C5A" />
<rect x="78" y="51" width="3" height="3" fill="#180808" />
<rect x="81" y="51" width="3" height="3" fill="#7B4210" />
<rect x="84" y="51" width="6" height="18" fill="#BD8C5A" />
<rect x="90" y="51" width="3" height="3" fill="#A56B31" />
<rect x="93" y="51" width="3" height="3" fill="#421800" />
<rect x="96" y="51" width="3" height="3" fill="#180808" />
<rect x="27" y="54" width="6" height="3" fill="#184200" />
<rect x="33" y="54" width="6" height="3" fill="#180808" />
<rect x="39" y="54" width="3" height="9" fill="#421800" />
<rect x="78" y="54" width="6" height="18" fill="#BD8C5A" />
<rect x="90" y="54" width="3" height="12" fill="#BD8C5A" />
<rect x="93" y="54" width="3" height="3" fill="#A56B31" />
<rect x="96" y="54" width="3" height="12" fill="#421800" />
<rect x="99" y="54" width="3" height="12" fill="#180808" />
<rect x="27" y="57" width="12" height="3" fill="#421800" />
<rect x="45" y="57" width="6" height="6" fill="#421800" />
<rect x="63" y="57" width="6" height="3" fill="#7B4210" />
<rect x="93" y="57" width="3" height="6" fill="#BD8C5A" />
<rect x="21" y="60" width="3" height="3" fill="#180808" />
<rect x="24" y="60" width="3" height="3" fill="#421800" />
<rect x="27" y="60" width="12" height="6" fill="#BD8C5A" />
<rect x="63" y="60" width="6" height="9" fill="#BD8C5A" />
<rect x="18" y="63" width="3" height="12" fill="#180808" />
<rect x="21" y="63" width="3" height="9" fill="#421800" />
<rect x="24" y="63" width="3" height="9" fill="#BD8C5A" />
<rect x="39" y="63" width="3" height="15" fill="#BD8C5A" />
<rect x="45" y="63" width="3" height="3" fill="#421800" />
<rect x="48" y="63" width="3" height="27" fill="#BD8C5A" />
<rect x="93" y="63" width="3" height="3" fill="#A56B31" />
<rect x="27" y="66" width="3" height="9" fill="#BD8C5A" />
<rect x="30" y="66" width="6" height="3" fill="#7B4210" />
<rect x="36" y="66" width="3" height="12" fill="#BD8C5A" />
<rect x="42" y="66" width="3" height="3" fill="#7B4210" />
<rect x="45" y="66" width="3" height="18" fill="#BD8C5A" />
<rect x="54" y="66" width="6" height="3" fill="#180808" />
<rect x="60" y="66" width="3" height="3" fill="#7B4210" />
<rect x="90" y="66" width="3" height="3" fill="#A56B31" />
<rect x="93" y="66" width="3" height="3" fill="#421800" />
<rect x="96" y="66" width="3" height="3" fill="#180808" />
<rect x="30" y="69" width="3" height="9" fill="#BD8C5A" />
<rect x="33" y="69" width="3" height="3" fill="#7B4210" />
<rect x="42" y="69" width="3" height="12" fill="#BD8C5A" />
<rect x="54" y="69" width="3" height="3" fill="#7B4210" />
<rect x="57" y="69" width="12" height="6" fill="#180808" />
<rect x="69" y="69" width="3" height="3" fill="#7B4210" />
<rect x="72" y="69" width="6" height="3" fill="#BD8C5A" />
<rect x="84" y="69" width="3" height="3" fill="#BD8C5A" />
<rect x="87" y="69" width="3" height="3" fill="#A56B31" />
<rect x="90" y="69" width="3" height="3" fill="#421800" />
<rect x="93" y="69" width="3" height="3" fill="#180808" />
<rect x="21" y="72" width="3" height="6" fill="#180808" />
<rect x="24" y="72" width="3" height="3" fill="#421800" />
<rect x="33" y="72" width="3" height="6" fill="#BD8C5A" />
<rect x="54" y="72" width="3" height="24" fill="#BD8C5A" />
<rect x="69" y="72" width="24" height="3" fill="#180808" />
<rect x="24" y="75" width="3" height="6" fill="#180808" />
<rect x="27" y="75" width="3" height="3" fill="#421800" />
<rect x="57" y="75" width="3" height="24" fill="#BD8C5A" />
<rect x="60" y="75" width="27" height="3" fill="#180808" />
<rect x="27" y="78" width="3" height="3" fill="#180808" />
<rect x="30" y="78" width="12" height="3" fill="#421800" />
<rect x="60" y="78" width="3" height="21" fill="#BD8C5A" />
<rect x="63" y="78" width="3" height="3" fill="#7B4210" />
<rect x="66" y="78" width="3" height="3" fill="#180808" />
<rect x="69" y="78" width="3" height="3" fill="#421800" />
<rect x="72" y="78" width="6" height="3" fill="#BD8C5A" />
<rect x="78" y="78" width="3" height="3" fill="#421800" />
<rect x="81" y="78" width="3" height="3" fill="#180808" />
<rect x="30" y="81" width="12" height="3" fill="#180808" />
<rect x="42" y="81" width="3" height="3" fill="#421800" />
<rect x="63" y="81" width="12" height="3" fill="#BD8C5A" />
<rect x="75" y="81" width="3" height="3" fill="#421800" />
<rect x="78" y="81" width="3" height="3" fill="#180808" />
<rect x="42" y="84" width="3" height="3" fill="#180808" />
<rect x="45" y="84" width="3" height="3" fill="#421800" />
<rect x="63" y="84" width="9" height="3" fill="#BD8C5A" />
<rect x="72" y="84" width="3" height="3" fill="#421800" />
<rect x="75" y="84" width="3" height="3" fill="#180808" />
<rect x="45" y="87" width="3" height="6" fill="#180808" />
<rect x="63" y="87" width="6" height="6" fill="#BD8C5A" />
<rect x="69" y="87" width="3" height="3" fill="#7B4210" />
<rect x="72" y="87" width="3" height="6" fill="#180808" />
<rect x="48" y="90" width="3" height="3" fill="#421800" />
<rect x="69" y="90" width="3" height="3" fill="#421800" />
<rect x="48" y="93" width="3" height="6" fill="#180808" />
<rect x="63" y="93" width="3" height="6" fill="#BD8C5A" />
<rect x="66" y="93" width="3" height="3" fill="#7B4210" />
<rect x="69" y="93" width="3" height="6" fill="#180808" />
<rect x="45" y="96" width="3" height="6" fill="#181839" />
<rect x="51" y="96" width="3" height="3" fill="#421800" />
<rect x="54" y="96" width="3" height="3" fill="#7B4210" />
<rect x="66" y="96" width="3" height="3" fill="#421800" />
<rect x="48" y="99" width="6" height="3" fill="#2121DE" />
<rect x="54" y="99" width="3" height="3" fill="#181839" />
<rect x="57" y="99" width="9" height="3" fill="#421800" />
<rect x="66" y="99" width="6" height="3" fill="#184200" />
<rect x="42" y="102" width="6" height="3" fill="#184200" />
<rect x="48" y="102" width="3" height="6" fill="#181839" />
<rect x="51" y="102" width="6" height="3" fill="#2121DE" />
<rect x="57" y="102" width="3" height="3" fill="#181839" />
<rect x="60" y="102" width="9" height="3" fill="#428400" />
<rect x="69" y="102" width="6" height="3" fill="#184200" />
<rect x="39" y="105" width="6" height="3" fill="#184200" />
<rect x="45" y="105" width="3" height="18" fill="#428400" />
<rect x="51" y="105" width="3" height="15" fill="#181839" />
<rect x="54" y="105" width="6" height="21" fill="#2121DE" />
<rect x="60" y="105" width="3" height="6" fill="#181839" />
<rect x="63" y="105" width="9" height="6" fill="#428400" />
<rect x="72" y="105" width="6" height="3" fill="#184200" />
<rect x="36" y="108" width="6" height="3" fill="#184200" />
<rect x="42" y="108" width="3" height="15" fill="#428400" />
<rect x="48" y="108" width="3" height="12" fill="#428400" />
<rect x="72" y="108" width="3" height="6" fill="#428400" />
<rect x="75" y="108" width="3" height="6" fill="#184200" />
<rect x="33" y="111" width="6" height="6" fill="#184200" />
<rect x="39" y="111" width="3" height="12" fill="#428400" />
<rect x="60" y="111" width="3" height="9" fill="#2121DE" />
<rect x="63" y="111" width="3" height="6" fill="#181839" />
<rect x="66" y="111" width="6" height="3" fill="#428400" />
<rect x="78" y="111" width="3" height="3" fill="#184200" />
<rect x="30" y="114" width="3" height="6" fill="#184200" />
<rect x="66" y="114" width="15" height="3" fill="#181839" />
<rect x="33" y="117" width="3" height="6" fill="#184200" />
<rect x="36" y="117" width="3" height="6" fill="#428400" />
<rect x="63" y="117" width="12" height="3" fill="#2121DE" />
<rect x="75" y="117" width="3" height="9" fill="#C69C31" />
<rect x="78" y="117" width="6" height="3" fill="#421800" />
<rect x="27" y="120" width="3" height="3" fill="#180808" />
<rect x="30" y="120" width="3" height="3" fill="#393939" />
<rect x="48" y="120" width="3" height="3" fill="#184200" />
<rect x="51" y="120" width="3" height="3" fill="#2121DE" />
<rect x="60" y="120" width="3" height="3" fill="#7B4210" />
<rect x="63" y="120" width="6" height="12" fill="#C69C31" />
<rect x="69" y="120" width="6" height="36" fill="#2121DE" />
<rect x="78" y="120" width="3" height="9" fill="#C69C31" />
<rect x="81" y="120" width="6" height="9" fill="#421800" />
<rect x="24" y="123" width="3" height="6" fill="#180808" />
<rect x="27" y="123" width="3" height="6" fill="#393939" />
<rect x="30" y="123" width="21" height="6" fill="#B5B5B5" />
<rect x="51" y="123" width="3" height="6" fill="#393939" />
<rect x="60" y="123" width="3" height="6" fill="#C69C31" />
<rect x="54" y="126" width="3" height="15" fill="#393939" />
<rect x="57" y="126" width="3" height="27" fill="#2121DE" />
<rect x="75" y="126" width="3" height="3" fill="#7B4210" />
<rect x="21" y="129" width="3" height="12" fill="#180808" />
<rect x="24" y="129" width="3" height="12" fill="#393939" />
<rect x="27" y="129" width="6" height="9" fill="#B5B5B5" />
<rect x="33" y="129" width="3" height="6" fill="#636363" />
<rect x="36" y="129" width="18" height="3" fill="#B5B5B5" />
<rect x="60" y="129" width="3" height="3" fill="#7B4210" />
<rect x="75" y="129" width="6" height="21" fill="#2121DE" />
<rect x="81" y="129" width="6" height="3" fill="#181839" />
<rect x="90" y="129" width="18" height="6" fill="#180808" />
<rect x="36" y="132" width="3" height="12" fill="#B5B5B5" />
<rect x="39" y="132" width="3" height="6" fill="#636363" />
<rect x="42" y="132" width="12" height="6" fill="#B5B5B5" />
<rect x="60" y="132" width="9" height="21" fill="#2121DE" />
<rect x="81" y="132" width="3" height="12" fill="#2121DE" />
<rect x="84" y="132" width="6" height="3" fill="#181839" />
<rect x="108" y="132" width="3" height="24" fill="#180808" />
<rect x="18" y="135" width="3" height="6" fill="#180808" />
<rect x="33" y="135" width="3" height="6" fill="#B5B5B5" />
<rect x="84" y="135" width="3" height="9" fill="#181839" />
<rect x="87" y="135" width="3" height="3" fill="#180808" />
<rect x="90" y="135" width="3" height="18" fill="#421800" />
<rect x="93" y="135" width="6" height="6" fill="#7B4210" />
<rect x="99" y="135" width="6" height="9" fill="#421800" />
<rect x="105" y="135" width="3" height="3" fill="#180808" />
<rect x="111" y="135" width="3" height="15" fill="#180808" />
<rect x="15" y="138" width="3" height="9" fill="#180808" />
<rect x="27" y="138" width="3" height="6" fill="#393939" />
<rect x="30" y="138" width="3" height="3" fill="#B5B5B5" />
<rect x="39" y="138" width="9" height="6" fill="#B5B5B5" />
<rect x="48" y="138" width="3" height="3" fill="#636363" />
<rect x="51" y="138" width="3" height="6" fill="#393939" />
<rect x="87" y="138" width="3" height="15" fill="#421800" />
<rect x="105" y="138" width="3" height="3" fill="#421800" />
<rect x="12" y="141" width="3" height="12" fill="#180808" />
<rect x="18" y="141" width="6" height="30" fill="#421800" />
<rect x="24" y="141" width="3" height="3" fill="#181839" />
<rect x="30" y="141" width="3" height="6" fill="#393939" />
<rect x="33" y="141" width="3" height="3" fill="#636363" />
<rect x="48" y="141" width="3" height="6" fill="#393939" />
<rect x="54" y="141" width="3" height="12" fill="#2121DE" />
<rect x="93" y="141" width="6" height="12" fill="#421800" />
<rect x="105" y="141" width="3" height="3" fill="#A56B31" />
<rect x="24" y="144" width="3" height="27" fill="#421800" />
<rect x="27" y="144" width="3" height="12" fill="#181839" />
<rect x="33" y="144" width="15" height="3" fill="#393939" />
<rect x="51" y="144" width="3" height="9" fill="#2121DE" />
<rect x="81" y="144" width="3" height="6" fill="#181839" />
<rect x="84" y="144" width="3" height="6" fill="#421800" />
<rect x="99" y="144" width="3" height="6" fill="#421800" />
<rect x="102" y="144" width="3" height="6" fill="#A56B31" />
<rect x="105" y="144" width="3" height="6" fill="#7B4210" />
<rect x="9" y="147" width="3" height="24" fill="#180808" />
<rect x="15" y="147" width="3" height="6" fill="#7B4210" />
<rect x="30" y="147" width="21" height="6" fill="#2121DE" />
<rect x="75" y="150" width="3" height="6" fill="#2121DE" />
<rect x="78" y="150" width="3" height="6" fill="#181839" />
<rect x="81" y="150" width="6" height="3" fill="#180808" />
<rect x="99" y="150" width="3" height="6" fill="#A56B31" />
<rect x="102" y="150" width="3" height="6" fill="#7B4210" />
<rect x="105" y="150" width="3" height="12" fill="#180808" />
<rect x="6" y="153" width="3" height="12" fill="#180808" />
<rect x="12" y="153" width="3" height="12" fill="#7B4210" />
<rect x="15" y="153" width="3" height="12" fill="#421800" />
<rect x="30" y="153" width="3" height="6" fill="#181839" />
<rect x="33" y="153" width="12" height="3" fill="#2121DE" />
<rect x="45" y="153" width="24" height="6" fill="#181839" />
<rect x="81" y="153" width="6" height="12" fill="#421800" />
<rect x="87" y="153" width="9" height="3" fill="#180808" />
<rect x="96" y="153" width="3" height="3" fill="#421800" />
<rect x="27" y="156" width="3" height="12" fill="#421800" />
<rect x="33" y="156" width="12" height="3" fill="#181839" />
<rect x="69" y="156" width="9" height="3" fill="#181839" />
<rect x="78" y="156" width="3" height="6" fill="#421800" />
<rect x="87" y="156" width="9" height="6" fill="#421800" />
<rect x="96" y="156" width="3" height="3" fill="#A56B31" />
<rect x="99" y="156" width="3" height="3" fill="#7B4210" />
<rect x="102" y="156" width="3" height="12" fill="#180808" />
<rect x="30" y="159" width="3" height="6" fill="#421800" />
<rect x="33" y="159" width="6" height="6" fill="#180808" />
<rect x="39" y="159" width="9" height="3" fill="#181839" />
<rect x="66" y="159" width="9" height="3" fill="#181839" />
<rect x="75" y="159" width="3" height="6" fill="#180808" />
<rect x="96" y="159" width="3" height="6" fill="#7B4210" />
<rect x="99" y="159" width="3" height="12" fill="#180808" />
<rect x="78" y="162" width="3" height="6" fill="#180808" />
<rect x="87" y="162" width="6" height="6" fill="#421800" />
<rect x="93" y="162" width="3" height="3" fill="#A56B31" />
<rect x="12" y="165" width="3" height="9" fill="#180808" />
<rect x="15" y="165" width="3" height="3" fill="#7B4210" />
<rect x="30" y="165" width="6" height="6" fill="#180808" />
<rect x="81" y="165" width="3" height="6" fill="#180808" />
<rect x="84" y="165" width="3" height="3" fill="#421800" />
<rect x="93" y="165" width="3" height="3" fill="#7B4210" />
<rect x="96" y="165" width="3" height="9" fill="#180808" />
<rect x="15" y="168" width="3" height="9" fill="#180808" />
<rect x="27" y="168" width="3" height="9" fill="#180808" />
<rect x="84" y="168" width="12" height="6" fill="#180808" />
<rect x="18" y="171" width="9" height="6" fill="#180808" />
<rect x="30" y="171" width="3" height="3" fill="#180808" />
</svg>