<?xml version="1.0" encoding="UTF-8" ?>
<svg version="1.1" width="114" height="198" xmlns="http://www.w3.org/2000/svg" shape-rendering="crispEdges">
<rect x="57" y="15" width="15" height="6" fill="#184200" />
<rect x="51" y="18" width="6" height="6" fill="#184200" />
<rect x="72" y="18" width="6" height="6" fill="#184200" />
<rect x="48" y="21" width="3" height="9" fill="#184200" />
<rect x="57" y="21" width="3" height="3" fill="#184200" />
<rect x="60" y="21" width="12" height="6" fill="#428400" />
<rect x="78" y="21" width="3" height="9" fill="#184200" />
<rect x="45" y="24" width="3" height="12" fill="#184200" />
<rect x="51" y="24" width="3" height="3" fill="#184200" />
<rect x="54" y="24" width="6" height="21" fill="#428400" />
<rect x="72" y="24" width="6" height="3" fill="#428400" />
<rect x="81" y="24" width="3" height="12" fill="#184200" />
<rect x="42" y="27" width="3" height="15" fill="#184200" />
<rect x="51" y="27" width="3" height="21" fill="#428400" />
<rect x="60" y="27" width="3" height="3" fill="#428400" />
<rect x="63" y="27" width="12" height="3" fill="#B5B5B5" />
<rect x="75" y="27" width="3" height="3" fill="#428400" />
<rect x="48" y="30" width="3" height="21" fill="#428400" />
<rect x="60" y="30" width="9" height="9" fill="#B5B5B5" />
<rect x="69" y="30" width="6" height="9" fill="#184200" />
<rect x="75" y="30" width="3" height="9" fill="#B5B5B5" />
<rect x="78" y="30" width="3" height="6" fill="#428400" />
<rect x="84" y="30" width="3" height="6" fill="#184200" />
<rect x="39" y="33" width="3" height="15" fill="#184200" />
<rect x="45" y="36" width="3" height="18" fill="#428400" />
<rect x="78" y="36" width="3" height="3" fill="#184200" />
<rect x="81" y="36" width="18" height="9" fill="#180808" />
<rect x="36" y="39" width="3" height="15" fill="#184200" />
<rect x="60" y="39" width="3" height="6" fill="#428400" />
<rect x="63" y="39" width="3" height="3" fill="#B5B5B5" />
<rect x="66" y="39" width="3" height="3" fill="#184200" />
<rect x="69" y="39" width="12" height="9" fill="#180808" />
<rect x="99" y="39" width="3" height="3" fill="#180808" />
<rect x="42" y="42" width="3" height="15" fill="#428400" />
<rect x="63" y="42" width="6" height="9" fill="#180808" />
<rect x="27" y="45" width="9" height="6" fill="#184200" />
<rect x="54" y="45" width="3" height="3" fill="#428400" />
<rect x="57" y="45" width="3" height="3" fill="#184200" />
<rect x="60" y="45" width="3" height="6" fill="#180808" />
<rect x="81" y="45" width="9" height="3" fill="#180808" />
<rect x="24" y="48" width="3" height="21" fill="#184200" />
<rect x="39" y="48" width="3" height="9" fill="#428400" />
<rect x="51" y="48" width="3" height="3" fill="#184200" />
<rect x="54" y="48" width="6" height="6" fill="#180808" />
<rect x="69" y="48" width="12" height="3" fill="#BD8C5A" />
<rect x="81" y="48" width="3" height="6" fill="#421800" />
<rect x="84" y="48" width="3" height="9" fill="#180808" />
<rect x="21" y="51" width="3" height="15" fill="#184200" />
<rect x="27" y="51" width="3" height="3" fill="#184200" />
<rect x="30" y="51" width="6" height="9" fill="#428400" />
<rect x="48" y="51" width="3" height="3" fill="#184200" />
<rect x="51" y="51" width="3" height="3" fill="#180808" />
<rect x="60" y="51" width="18" height="3" fill="#BD8C5A" />
<rect x="78" y="51" width="3" height="3" fill="#A56B31" />
<rect x="27" y="54" width="3" height="9" fill="#428400" />
<rect x="36" y="54" width="3" height="6" fill="#428400" />
<rect x="45" y="54" width="6" height="3" fill="#180808" />
<rect x="51" y="54" width="3" height="3" fill="#7B4210" />
<rect x="54" y="54" width="9" height="21" fill="#BD8C5A" />
<rect x="63" y="54" width="6" height="12" fill="#180808" />
<rect x="69" y="54" width="9" height="24" fill="#BD8C5A" />
<rect x="78" y="54" width="6" height="6" fill="#180808" />
<rect x="87" y="54" width="6" height="3" fill="#180808" />
<rect x="39" y="57" width="3" height="3" fill="#184200" />
<rect x="42" y="57" width="6" height="3" fill="#180808" />
<rect x="48" y="57" width="3" height="3" fill="#7B4210" />
<rect x="51" y="57" width="3" height="48" fill="#BD8C5A" />
<rect x="84" y="57" width="9" height="3" fill="#421800" />
<rect x="93" y="57" width="3" height="3" fill="#180808" />
<rect x="30" y="60" width="3" height="3" fill="#428400" />
<rect x="33" y="60" width="3" height="3" fill="#184200" />
<rect x="36" y="60" width="6" height="3" fill="#180808" />
<rect x="42" y="60" width="3" height="15" fill="#421800" />
<rect x="45" y="60" width="6" height="6" fill="#BD8C5A" />
<rect x="78" y="60" width="3" height="3" fill="#180808" />
<rect x="81" y="60" width="3" height="3" fill="#7B4210" />
<rect x="84" y="60" width="6" height="18" fill="#BD8C5A" />
<rect x="90" y="60" width="3" height="3" fill="#A56B31" />
<rect x="93" y="60" width="3" height="3" fill="#421800" />
<rect x="96" y="60" width="3" height="3" fill="#180808" />
<rect x="27" y="63" width="6" height="3" fill="#184200" />
<rect x="33" y="63" width="6" height="3" fill="#180808" />
<rect x="39" y="63" width="3" height="9" fill="#421800" />
<rect x="78" y="63" width="6" height="18" fill="#BD8C5A" />
<rect x="90" y="63" width="3" height="12" fill="#BD8C5A" />
<rect x="93" y="63" width="3" height="3" fill="#A56B31" />
<rect x="96" y="63" width="3" height="12" fill="#421800" />
<rect x="99" y="63" width="3" height="12" fill="#180808" />
<rect x="27" y="66" width="12" height="3" fill="#421800" />
<rect x="45" y="66" width="6" height="6" fill="#421800" />
<rect x="63" y="66" width="6" height="3" fill="#7B4210" />
<rect x="93" y="66" width="3" height="6" fill="#BD8C5A" />
<rect x="21" y="69" width="3" height="3" fill="#180808" />
<rect x="24" y="69" width="3" height="3" fill="#421800" />
<rect x="27" y="69" width="12" height="6" fill="#BD8C5A" />
<rect x="63" y="69" width="6" height="9" fill="#BD8C5A" />
<rect x="18" y="72" width="3" height="12" fill="#180808" />
<rect x="21" y="72" width="3" height="9" fill="#421800" />
<rect x="24" y="72" width="3" height="9" fill="#BD8C5A" />
<rect x="39" y="72" width="3" height="15" fill="#BD8C5A" />
<rect x="45" y="72" width="3" height="3" fill="#421800" />
<rect x="48" y="72" width="3" height="27" fill="#BD8C5A" />
<rect x="93" y="72" width="3" height="3" fill="#A56B31" />
<rect x="27" y="75" width="3" height="9" fill="#BD8C5A" />
<rect x="30" y="75" width="6" height="3" fill="#7B4210" />
<rect x="36" y="75" width="3" height="12" fill="#BD8C5A" />
<rect x="42" y="75" width="3" height="3" fill="#7B4210" />
<rect x="45" y="75" width="3" height="18" fill="#BD8C5A" />
<rect x="54" y="75" width="6" height="3" fill="#180808" />
<rect x="60" y="75" width="3" height="3" fill="#7B4210" />
<rect x="90" y="75" width="3" height="3" fill="#A56B31" />
<rect x="93" y="75" width="3" height="3" fill="#421800" />
<rect x="96" y="75" width="3" height="3" fill="#180808" />
<rect x="30" y="78" width="3" height="9" fill="#BD8C5A" />
<rect x="33" y="78" width="3" height="3" fill="#7B4210" />
<rect x="42" y="78" width="3" height="12" fill="#BD8C5A" />
<rect x="54" y="78" width="3" height="3" fill="#7B4210" />
<rect x="57" y="78" width="12" height="6" fill="#180808" />
<rect x="69" y="78" width="3" height="3" fill="#7B4210" />
<rect x="72" y="78" width="6" height="3" fill="#BD8C5A" />
<rect x="84" y="78" width="3" height="3" fill="#BD8C5A" />
<rect x="87" y="78" width="3" height="3" fill="#A56B31" />
<rect x="90" y="78" width="3" height="3" fill="#421800" />
<rect x="93" y="78" width="3" height="3" fill="#180808" />
<rect x="21" y="81" width="3" height="6" fill="#180808" />
<rect x="24" y="81" width="3" height="3" fill="#421800" />
<rect x="33" y="81" width="3" height="6" fill="#BD8C5A" />
<rect x="54" y="81" width="3" height="24" fill="#BD8C5A" />
<rect x="69" y="81" width="24" height="3" fill="#180808" />
<rect x="24" y="84" width="3" height="6" fill="#180808" />
<rect x="27" y="84" width="3" height="3" fill="#421800" />
<rect x="57" y="84" width="3" height="24" fill="#BD8C5A" />
<rect x="60" y="84" width="27" height="3" fill="#180808" />
<rect x="27" y="87" width="3" height="3" fill="#180808" />
<rect x="30" y="87" width="12" height="3" fill="#421800" />
<rect x="60" y="87" width="3" height="21" fill="#BD8C5A" />
<rect x="63" y="87" width="3" height="3" fill="#7B4210" />
<rect x="66" y="87" width="3" height="3" fill="#180808" />
<rect x="69" y="87" width="3" height="3" fill="#421800" />
<rect x="72" y="87" width="6" height="3" fill="#BD8C5A" />
<rect x="78" y="87" width="3" height="3" fill="#421800" />
<rect x="81" y="87" width="3" height="3" fill="#180808" />
<rect x="30" y="90" width="12" height="3" fill="#180808" />
<rect x="42" y="90" width="3" height="3" fill="#421800" />
<rect x="63" y="90" width="12" height="3" fill="#BD8C5A" />
<rect x="75" y="90" width="3" height="3" fill="#421800" />
<rect x="78" y="90" width="3" height="3" fill="#180808" />
<rect x="42" y="93" width="3" height="3" fill="#180808" />
<rect x="45" y="93" width="3" height="3" fill="#421800" />
<rect x="63" y="93" width="9" height="3" fill="#BD8C5A" />
<rect x="72" y="93" width="3" height="3" fill="#421800" />
<rect x="75" y="93" width="3" height="3" fill="#180808" />
<rect x="45" y="96" width="3" height="6" fill="#180808" />
<rect x="63" y="96" width="6" height="6" fill="#BD8C5A" />
<rect x="69" y="96" width="3" height="3" fill="#7B4210" />
<rect x="72" y="96" width="3" height="6" fill="#180808" />
<rect x="48" y="99" width="3" height="3" fill="#421800" />
<rect x="69" y="99" width="3" height="3" fill="#421800" />
<rect x="48" y="102" width="3" height="6" fill="#180808" />
<rect x="63" y="102" width="3" height="6" fill="#BD8C5A" />
<rect x="66" y="102" width="3" height="3" fill="#7B4210" />
<rect x="69" y="102" width="3" height="6" fill="#180808" />
<rect x="45" y="105" width="3" height="6" fill="#181839" />
<rect x="51" y="105" width="3" height="3" fill="#421800" />
<rect x="54" y="105" width="3" height="3" fill="#7B4210" />
<rect x="66" y="105" width="3" height="3" fill="#421800" />
<rect x="48" y="108" width="6" height="3" fill="#2121DE" />
<rect x="54" y="108" width="3" height="3" fill="#181839" />
<rect x="57" y="108" width="9" height="3" fill="#421800" />
<rect x="66" y="108" width="6" height="3" fill="#184200" />
<rect x="42" y="111" width="6" height="3" fill="#184200" />
<rect x="48" y="111" width="3" height="6" fill="#181839" />
<rect x="51" y="111" width="6" height="3" fill="#2121DE" />
<rect x="57" y="111" width="3" height="3" fill="#181839" />
<rect x="60" y="111" width="9" height="3" fill="#428400" />
<rect x="69" y="111" width="6" height="3" fill="#184200" />
<rect x="39" y="114" width="6" height="3" fill="#184200" />
<rect x="45" y="114" width="3" height="18" fill="#428400" />
<rect x="51" y="114" width="3" height="15" fill="#181839" />
<rect x="54" y="114" width="6" height="21" fill="#2121DE" />
<rect x="60" y="114" width="3" height="6" fill="#181839" />
<rect x="63" y="114" width="9" height="6" fill="#428400" />
<rect x="72" y="114" width="6" height="3" fill="#184200" />
<rect x="36" y="117" width="6" height="3" fill="#184200" />
<rect x="42" y="117" width="3" height="15" fill="#428400" />
<rect x="48" y="117" width="3" height="12" fill="#428400" />
<rect x="72" y="117" width="3" height="6" fill="#428400" />
<rect x="75" y="117" width="3" height="6" fill="#184200" />
<rect x="33" y="120" width="6" height="6" fill="#184200" />
<rect x="39" y="120" width="3" height="12" fill="#428400" />
<rect x="60" y="120" width="3" height="9" fill="#2121DE" />
<rect x="63" y="120" width="3" height="6" fill="#181839" />
<rect x="66" y="120" width="6" height="3" fill="#428400" />
<rect x="78" y="120" width="3" height="3" fill="#184200" />
<rect x="30" y="123" width="3" height="6" fill="#184200" />
<rect x="66" y="123" width="15" height="3" fill="#181839" />
<rect x="33" y="126" width="3" height="6" fill="#184200" />
<rect x="36" y="126" width="3" height="6" fill="#428400" />
<rect x="63" y="126" width="12" height="3" fill="#2121DE" />
<rect x="75" y="126" width="3" height="9" fill="#C69C31" />
<rect x="78" y="126" width="6" height="3" fill="#421800" />
<rect x="27" y="129" width="3" height="3" fill="#180808" />
<rect x="30" y="129" width="3" height="3" fill="#393939" />
<rect x="48" y="129" width="3" height="3" fill="#184200" />
<rect x="51" y="129" width="3" height="3" fill="#2121DE" />
<rect x="60" y="129" width="3" height="3" fill="#7B4210" />
<rect x="63" y="129" width="6" height="12" fill="#C69C31" />
<rect x="69" y="129" width="6" height="24" fill="#2121DE" />
<rect x="78" y="129" width="3" height="9" fill="#C69C31" />
<rect x="81" y="129" width="6" height="9" fill="#421800" />
<rect x="24" y="132" width="3" height="6" fill="#180808" />
<rect x="27" y="132" width="3" height="6" fill="#393939" />
<rect x="30" y="132" width="21" height="6" fill="#B5B5B5" />
<rect x="51" y="132" width="3" height="6" fill="#393939" />
<rect x="60" y="132" width="3" height="6" fill="#C69C31" />
<rect x="54" y="135" width="3" height="15" fill="#393939" />
<rect x="57" y="135" width="3" height="33" fill="#2121DE" />
<rect x="75" y="135" width="3" height="3" fill="#7B4210" />
<rect x="21" y="138" width="3" height="12" fill="#180808" />
<rect x="24" y="138" width="3" height="12" fill="#393939" />
<rect x="27" y="138" width="6" height="9" fill="#B5B5B5" />
<rect x="33" y="138" width="3" height="6" fill="#636363" />
<rect x="36" y="138" width="18" height="3" fill="#B5B5B5" />
<rect x="60" y="138" width="3" height="3" fill="#7B4210" />
<rect x="75" y="138" width="3" height="9" fill="#2121DE" />
<rect x="78" y="138" width="6" height="9" fill="#181839" />
<rect x="36" y="141" width="3" height="12" fill="#B5B5B5" />
<rect x="39" y="141" width="3" height="6" fill="#636363" />
<rect x="42" y="141" width="12" height="6" fill="#B5B5B5" />
<rect x="60" y="141" width="9" height="21" fill="#2121DE" />
<rect x="33" y="144" width="3" height="6" fill="#B5B5B5" />
<rect x="27" y="147" width="3" height="6" fill="#393939" />
<rect x="30" y="147" width="3" height="3" fill="#B5B5B5" />
<rect x="39" y="147" width="9" height="6" fill="#B5B5B5" />
<rect x="48" y="147" width="3" height="3" fill="#636363" />
<rect x="51" y="147" width="3" height="6" fill="#393939" />
<rect x="75" y="147" width="6" height="6" fill="#181839" />
<rect x="24" y="150" width="3" height="3" fill="#180808" />
<rect x="30" y="150" width="3" height="6" fill="#393939" />
<rect x="33" y="150" width="3" height="3" fill="#636363" />
<rect x="48" y="150" width="3" height="6" fill="#393939" />
<rect x="54" y="150" width="3" height="18" fill="#2121DE" />
<rect x="27" y="153" width="3" height="3" fill="#180808" />
<rect x="33" y="153" width="15" height="3" fill="#393939" />
<rect x="51" y="153" width="3" height="15" fill="#2121DE" />
<rect x="69" y="153" width="3" height="6" fill="#2121DE" />
<rect x="72" y="153" width="6" height="6" fill="#181839" />
<rect x="30" y="156" width="6" height="3" fill="#180808" />
<rect x="36" y="156" width="6" height="3" fill="#393939" />
<rect x="42" y="156" width="9" height="6" fill="#2121DE" />
<rect x="36" y="159" width="6" height="6" fill="#181839" />
<rect x="69" y="159" width="6" height="3" fill="#181839" />
<rect x="75" y="159" width="6" height="6" fill="#180808" />
<rect x="42" y="162" width="3" height="6" fill="#181839" />
<rect x="45" y="162" width="6" height="3" fill="#2121DE" />
<rect x="60" y="162" width="6" height="3" fill="#2121DE" />
<rect x="66" y="162" width="6" height="6" fill="#181839" />
<rect x="72" y="162" width="3" height="3" fill="#180808" />
<rect x="81" y="162" width="3" height="9" fill="#180808" />
<rect x="39" y="165" width="3" height="3" fill="#181839" />
<rect x="45" y="165" width="6" height="3" fill="#181839" />
<rect x="60" y="165" width="6" height="6" fill="#181839" />
<rect x="72" y="165" width="6" height="9" fill="#421800" />
<rect x="78" y="165" width="3" height="3" fill="#180808" />
<rect x="84" y="165" width="3" height="18" fill="#180808" />
<rect x="36" y="168" width="6" height="3" fill="#180808" />
<rect x="42" y="168" width="6" height="12" fill="#421800" />
<rect x="48" y="168" width="12" height="3" fill="#181839" />
<rect x="66" y="168" width="3" height="3" fill="#181839" />
<rect x="69" y="168" width="3" height="3" fill="#421800" />
<rect x="78" y="168" width="3" height="12" fill="#421800" />
<rect x="87" y="168" width="3" height="12" fill="#180808" />
<rect x="33" y="171" width="6" height="12" fill="#180808" />
<rect x="39" y="171" width="3" height="6" fill="#421800" />
<rect x="48" y="171" width="6" height="3" fill="#421800" />
<rect x="54" y="171" width="3" height="3" fill="#180808" />
<rect x="57" y="171" width="12" height="15" fill="#421800" />
<rect x="69" y="171" width="3" height="3" fill="#180808" />
<rect x="81" y="171" width="3" height="6" fill="#421800" />
<rect x="48" y="174" width="3" height="3" fill="#421800" />
<rect x="51" y="174" width="3" height="3" fill="#180808" />
<rect x="54" y="174" width="3" height="9" fill="#421800" />
<rect x="69" y="174" width="3" height="12" fill="#421800" />
<rect x="72" y="174" width="3" height="18" fill="#180808" />
<rect x="75" y="174" width="3" height="6" fill="#421800" />
<rect x="39" y="177" width="3" height="3" fill="#A56B31" />
<rect x="48" y="177" width="3" height="3" fill="#180808" />
<rect x="51" y="177" width="3" height="6" fill="#421800" />
<rect x="81" y="177" width="3" height="9" fill="#180808" />
<rect x="39" y="180" width="3" height="6" fill="#180808" />
<rect x="42" y="180" width="6" height="3" fill="#A56B31" />
<rect x="48" y="180" width="3" height="3" fill="#421800" />
<rect x="75" y="180" width="6" height="6" fill="#180808" />
<rect x="36" y="183" width="3" height="3" fill="#180808" />
<rect x="42" y="183" width="6" height="6" fill="#180808" />
<rect x="48" y="183" width="9" height="3" fill="#A56B31" />
<rect x="48" y="186" width="9" height="6" fill="#180808" />
<rect x="57" y="186" width="12" height="3" fill="#A56B31" />
<rect x="69" y="186" width="3" height="6" fill="#180808" />
<rect x="75" y="186" width="3" height="3" fill="#180808" />
<rect x="57" y="189" width="12" height="6" fill="#180808" />
</svg>