<?xml version="1.0" encoding="UTF-8" ?>
<svg version="1.1" width="114" height="198" xmlns="http://www.w3.org/2000/svg" shape-rendering="crispEdges">
<rect x="51" y="15" width="15" height="6" fill="#184200" />
<rect x="45" y="18" width="6" height="6" fill="#184200" />
<rect x="66" y="18" width="6" height="6" fill="#184200" />
<rect x="42" y="21" width="3" height="9" fill="#184200" />
<rect x="51" y="21" width="3" height="3" fill="#184200" />
<rect x="54" y="21" width="9" height="42" fill="#428400" />
<rect x="63" y="21" width="3" height="3" fill="#184200" />
<rect x="72" y="21" width="3" height="9" fill="#184200" />
<rect x="39" y="24" width="3" height="9" fill="#184200" />
<rect x="45" y="24" width="3" height="3" fill="#184200" />
<rect x="48" y="24" width="6" height="27" fill="#428400" />
<rect x="63" y="24" width="6" height="36" fill="#428400" />
<rect x="69" y="24" width="3" height="3" fill="#184200" />
<rect x="75" y="24" width="3" height="12" fill="#184200" />
<rect x="36" y="27" width="3" height="12" fill="#184200" />
<rect x="45" y="27" width="3" height="21" fill="#428400" />
<rect x="69" y="27" width="3" height="30" fill="#428400" />
<rect x="78" y="27" width="3" height="21" fill="#184200" />
<rect x="42" y="30" width="3" height="18" fill="#428400" />
<rect x="72" y="30" width="3" height="24" fill="#428400" />
<rect x="33" y="33" width="3" height="18" fill="#184200" />
<rect x="39" y="33" width="3" height="15" fill="#428400" />
<rect x="81" y="33" width="12" height="12" fill="#180808" />
<rect x="75" y="36" width="3" height="15" fill="#428400" />
<rect x="93" y="36" width="3" height="6" fill="#180808" />
<rect x="30" y="39" width="3" height="12" fill="#184200" />
<rect x="36" y="39" width="3" height="9" fill="#428400" />
<rect x="27" y="45" width="3" height="9" fill="#184200" />
<rect x="81" y="45" width="9" height="3" fill="#180808" />
<rect x="24" y="48" width="3" height="9" fill="#184200" />
<rect x="36" y="48" width="12" height="3" fill="#184200" />
<rect x="78" y="48" width="6" height="3" fill="#180808" />
<rect x="21" y="51" width="3" height="18" fill="#184200" />
<rect x="30" y="51" width="18" height="18" fill="#428400" />
<rect x="48" y="51" width="6" height="3" fill="#184200" />
<rect x="75" y="51" width="6" height="6" fill="#180808" />
<rect x="18" y="54" width="3" height="15" fill="#184200" />
<rect x="27" y="54" width="3" height="18" fill="#428400" />
<rect x="48" y="54" width="6" height="15" fill="#428400" />
<rect x="72" y="54" width="3" height="6" fill="#180808" />
<rect x="81" y="54" width="9" height="3" fill="#180808" />
<rect x="24" y="57" width="3" height="12" fill="#428400" />
<rect x="69" y="57" width="3" height="6" fill="#180808" />
<rect x="75" y="57" width="3" height="9" fill="#BD8C5A" />
<rect x="78" y="57" width="12" height="3" fill="#421800" />
<rect x="90" y="57" width="3" height="3" fill="#180808" />
<rect x="63" y="60" width="3" height="3" fill="#428400" />
<rect x="66" y="60" width="3" height="3" fill="#184200" />
<rect x="72" y="60" width="3" height="24" fill="#421800" />
<rect x="78" y="60" width="3" height="3" fill="#421800" />
<rect x="81" y="60" width="6" height="18" fill="#BD8C5A" />
<rect x="87" y="60" width="3" height="3" fill="#A56B31" />
<rect x="90" y="60" width="3" height="3" fill="#421800" />
<rect x="93" y="60" width="3" height="3" fill="#180808" />
<rect x="54" y="63" width="6" height="3" fill="#428400" />
<rect x="60" y="63" width="3" height="3" fill="#184200" />
<rect x="63" y="63" width="3" height="3" fill="#180808" />
<rect x="66" y="63" width="6" height="6" fill="#421800" />
<rect x="78" y="63" width="3" height="15" fill="#BD8C5A" />
<rect x="87" y="63" width="3" height="12" fill="#BD8C5A" />
<rect x="90" y="63" width="3" height="3" fill="#A56B31" />
<rect x="93" y="63" width="3" height="12" fill="#421800" />
<rect x="96" y="63" width="3" height="12" fill="#180808" />
<rect x="54" y="66" width="6" height="3" fill="#184200" />
<rect x="60" y="66" width="6" height="3" fill="#421800" />
<rect x="75" y="66" width="3" height="6" fill="#421800" />
<rect x="90" y="66" width="3" height="6" fill="#BD8C5A" />
<rect x="18" y="69" width="3" height="3" fill="#180808" />
<rect x="21" y="69" width="3" height="3" fill="#421800" />
<rect x="24" y="69" width="3" height="3" fill="#184200" />
<rect x="30" y="69" width="15" height="3" fill="#428400" />
<rect x="45" y="69" width="9" height="3" fill="#184200" />
<rect x="54" y="69" width="6" height="3" fill="#421800" />
<rect x="60" y="69" width="9" height="18" fill="#BD8C5A" />
<rect x="69" y="69" width="3" height="3" fill="#421800" />
<rect x="15" y="72" width="3" height="12" fill="#180808" />
<rect x="18" y="72" width="3" height="12" fill="#421800" />
<rect x="21" y="72" width="3" height="3" fill="#A56B31" />
<rect x="24" y="72" width="3" height="15" fill="#BD8C5A" />
<rect x="27" y="72" width="18" height="3" fill="#184200" />
<rect x="45" y="72" width="12" height="27" fill="#421800" />
<rect x="57" y="72" width="3" height="12" fill="#BD8C5A" />
<rect x="69" y="72" width="3" height="12" fill="#BD8C5A" />
<rect x="75" y="72" width="3" height="3" fill="#BD8C5A" />
<rect x="90" y="72" width="3" height="3" fill="#A56B31" />
<rect x="21" y="75" width="3" height="9" fill="#BD8C5A" />
<rect x="27" y="75" width="18" height="9" fill="#421800" />
<rect x="75" y="75" width="3" height="12" fill="#180808" />
<rect x="87" y="75" width="3" height="3" fill="#A56B31" />
<rect x="90" y="75" width="3" height="3" fill="#421800" />
<rect x="93" y="75" width="3" height="3" fill="#180808" />
<rect x="78" y="78" width="3" height="12" fill="#180808" />
<rect x="81" y="78" width="3" height="3" fill="#A56B31" />
<rect x="84" y="78" width="3" height="3" fill="#421800" />
<rect x="87" y="78" width="6" height="3" fill="#180808" />
<rect x="81" y="81" width="6" height="6" fill="#180808" />
<rect x="18" y="84" width="3" height="3" fill="#180808" />
<rect x="21" y="84" width="3" height="3" fill="#421800" />
<rect x="27" y="84" width="3" height="3" fill="#A56B31" />
<rect x="30" y="84" width="15" height="6" fill="#421800" />
<rect x="57" y="84" width="3" height="3" fill="#A56B31" />
<rect x="69" y="84" width="3" height="3" fill="#421800" />
<rect x="72" y="84" width="3" height="6" fill="#BD8C5A" />
<rect x="21" y="87" width="3" height="3" fill="#180808" />
<rect x="24" y="87" width="3" height="3" fill="#421800" />
<rect x="27" y="87" width="3" height="3" fill="#BD8C5A" />
<rect x="57" y="87" width="3" height="6" fill="#421800" />
<rect x="60" y="87" width="3" height="3" fill="#A56B31" />
<rect x="63" y="87" width="6" height="3" fill="#421800" />
<rect x="69" y="87" width="3" height="6" fill="#BD8C5A" />
<rect x="75" y="87" width="3" height="3" fill="#421800" />
<rect x="81" y="87" width="3" height="3" fill="#180808" />
<rect x="24" y="90" width="9" height="3" fill="#180808" />
<rect x="33" y="90" width="12" height="9" fill="#421800" />
<rect x="60" y="90" width="9" height="6" fill="#BD8C5A" />
<rect x="72" y="90" width="3" height="3" fill="#421800" />
<rect x="75" y="90" width="3" height="3" fill="#180808" />
<rect x="30" y="93" width="3" height="3" fill="#180808" />
<rect x="57" y="93" width="3" height="3" fill="#A56B31" />
<rect x="69" y="93" width="3" height="3" fill="#421800" />
<rect x="72" y="93" width="3" height="3" fill="#180808" />
<rect x="27" y="96" width="3" height="6" fill="#180808" />
<rect x="30" y="96" width="3" height="6" fill="#421800" />
<rect x="57" y="96" width="9" height="3" fill="#BD8C5A" />
<rect x="66" y="96" width="3" height="3" fill="#7B4210" />
<rect x="69" y="96" width="3" height="3" fill="#180808" />
<rect x="33" y="99" width="6" height="3" fill="#421800" />
<rect x="39" y="99" width="3" height="6" fill="#180808" />
<rect x="42" y="99" width="12" height="3" fill="#421800" />
<rect x="54" y="99" width="9" height="6" fill="#BD8C5A" />
<rect x="63" y="99" width="3" height="3" fill="#A56B31" />
<rect x="66" y="99" width="3" height="6" fill="#180808" />
<rect x="30" y="102" width="9" height="3" fill="#180808" />
<rect x="42" y="102" width="9" height="3" fill="#180808" />
<rect x="51" y="102" width="3" height="3" fill="#BD8C5A" />
<rect x="63" y="102" width="3" height="3" fill="#7B4210" />
<rect x="42" y="105" width="3" height="3" fill="#184200" />
<rect x="45" y="105" width="6" height="3" fill="#181839" />
<rect x="51" y="105" width="9" height="3" fill="#421800" />
<rect x="60" y="105" width="9" height="3" fill="#181839" />
<rect x="42" y="108" width="3" height="6" fill="#181839" />
<rect x="45" y="108" width="6" height="3" fill="#2121DE" />
<rect x="51" y="108" width="9" height="3" fill="#428400" />
<rect x="60" y="108" width="6" height="3" fill="#2121DE" />
<rect x="66" y="108" width="6" height="3" fill="#184200" />
<rect x="39" y="111" width="3" height="3" fill="#184200" />
<rect x="45" y="111" width="3" height="6" fill="#2121DE" />
<rect x="48" y="111" width="9" height="6" fill="#428400" />
<rect x="57" y="111" width="6" height="24" fill="#2121DE" />
<rect x="63" y="111" width="3" height="3" fill="#184200" />
<rect x="66" y="111" width="3" height="21" fill="#428400" />
<rect x="69" y="111" width="6" height="3" fill="#184200" />
<rect x="39" y="114" width="3" height="6" fill="#181839" />
<rect x="42" y="114" width="3" height="48" fill="#2121DE" />
<rect x="63" y="114" width="3" height="12" fill="#428400" />
<rect x="69" y="114" width="3" height="18" fill="#428400" />
<rect x="72" y="114" width="6" height="3" fill="#184200" />
<rect x="36" y="117" width="3" height="3" fill="#184200" />
<rect x="45" y="117" width="9" height="9" fill="#428400" />
<rect x="54" y="117" width="3" height="57" fill="#2121DE" />
<rect x="72" y="117" width="3" height="15" fill="#428400" />
<rect x="75" y="117" width="6" height="6" fill="#184200" />
<rect x="33" y="120" width="3" height="9" fill="#184200" />
<rect x="36" y="120" width="3" height="9" fill="#181839" />
<rect x="39" y="120" width="3" height="36" fill="#2121DE" />
<rect x="30" y="123" width="3" height="3" fill="#184200" />
<rect x="75" y="123" width="3" height="9" fill="#428400" />
<rect x="78" y="123" width="6" height="6" fill="#184200" />
<rect x="27" y="126" width="3" height="3" fill="#180808" />
<rect x="30" y="126" width="3" height="3" fill="#393939" />
<rect x="45" y="126" width="3" height="42" fill="#2121DE" />
<rect x="48" y="126" width="3" height="3" fill="#428400" />
<rect x="51" y="126" width="3" height="48" fill="#2121DE" />
<rect x="63" y="126" width="3" height="6" fill="#184200" />
<rect x="24" y="129" width="3" height="3" fill="#180808" />
<rect x="27" y="129" width="3" height="3" fill="#393939" />
<rect x="30" y="129" width="3" height="9" fill="#B5B5B5" />
<rect x="33" y="129" width="3" height="27" fill="#181839" />
<rect x="36" y="129" width="3" height="18" fill="#2121DE" />
<rect x="48" y="129" width="3" height="42" fill="#2121DE" />
<rect x="78" y="129" width="3" height="3" fill="#428400" />
<rect x="81" y="129" width="3" height="3" fill="#184200" />
<rect x="84" y="129" width="3" height="3" fill="#180808" />
<rect x="21" y="132" width="3" height="15" fill="#180808" />
<rect x="24" y="132" width="3" height="15" fill="#393939" />
<rect x="27" y="132" width="3" height="12" fill="#B5B5B5" />
<rect x="63" y="132" width="3" height="3" fill="#393939" />
<rect x="66" y="132" width="18" height="6" fill="#B5B5B5" />
<rect x="84" y="132" width="3" height="3" fill="#393939" />
<rect x="87" y="132" width="3" height="3" fill="#180808" />
<rect x="57" y="135" width="3" height="39" fill="#2121DE" />
<rect x="60" y="135" width="3" height="6" fill="#393939" />
<rect x="63" y="135" width="3" height="6" fill="#B5B5B5" />
<rect x="84" y="135" width="3" height="15" fill="#B5B5B5" />
<rect x="87" y="135" width="3" height="3" fill="#393939" />
<rect x="90" y="135" width="3" height="3" fill="#180808" />
<rect x="30" y="138" width="3" height="9" fill="#181839" />
<rect x="66" y="138" width="15" height="3" fill="#B5B5B5" />
<rect x="81" y="138" width="3" height="6" fill="#636363" />
<rect x="87" y="138" width="3" height="9" fill="#B5B5B5" />
<rect x="90" y="138" width="3" height="9" fill="#393939" />
<rect x="93" y="138" width="3" height="9" fill="#180808" />
<rect x="60" y="141" width="3" height="3" fill="#2121DE" />
<rect x="63" y="141" width="3" height="3" fill="#636363" />
<rect x="66" y="141" width="9" height="12" fill="#B5B5B5" />
<rect x="75" y="141" width="3" height="6" fill="#636363" />
<rect x="78" y="141" width="3" height="12" fill="#B5B5B5" />
<rect x="27" y="144" width="3" height="3" fill="#393939" />
<rect x="60" y="144" width="3" height="6" fill="#393939" />
<rect x="63" y="144" width="3" height="6" fill="#B5B5B5" />
<rect x="81" y="144" width="3" height="6" fill="#B5B5B5" />
<rect x="24" y="147" width="6" height="3" fill="#180808" />
<rect x="30" y="147" width="3" height="3" fill="#393939" />
<rect x="36" y="147" width="3" height="15" fill="#181839" />
<rect x="75" y="147" width="3" height="6" fill="#B5B5B5" />
<rect x="87" y="147" width="3" height="3" fill="#393939" />
<rect x="90" y="147" width="3" height="6" fill="#180808" />
<rect x="30" y="150" width="3" height="3" fill="#180808" />
<rect x="60" y="150" width="3" height="24" fill="#2121DE" />
<rect x="63" y="150" width="3" height="3" fill="#393939" />
<rect x="81" y="150" width="6" height="3" fill="#393939" />
<rect x="87" y="150" width="3" height="3" fill="#180808" />
<rect x="63" y="153" width="3" height="18" fill="#2121DE" />
<rect x="66" y="153" width="15" height="3" fill="#393939" />
<rect x="81" y="153" width="6" height="3" fill="#180808" />
<rect x="39" y="156" width="3" height="9" fill="#181839" />
<rect x="66" y="156" width="9" height="3" fill="#2121DE" />
<rect x="75" y="156" width="6" height="3" fill="#181839" />
<rect x="66" y="159" width="6" height="6" fill="#2121DE" />
<rect x="72" y="159" width="6" height="6" fill="#181839" />
<rect x="42" y="162" width="3" height="9" fill="#181839" />
<rect x="36" y="165" width="6" height="6" fill="#180808" />
<rect x="66" y="165" width="3" height="3" fill="#2121DE" />
<rect x="69" y="165" width="6" height="3" fill="#181839" />
<rect x="75" y="165" width="6" height="6" fill="#180808" />
<rect x="33" y="168" width="3" height="21" fill="#180808" />
<rect x="45" y="168" width="3" height="6" fill="#181839" />
<rect x="66" y="168" width="6" height="3" fill="#181839" />
<rect x="72" y="168" width="3" height="3" fill="#180808" />
<rect x="81" y="168" width="3" height="6" fill="#180808" />
<rect x="30" y="171" width="3" height="15" fill="#180808" />
<rect x="36" y="171" width="9" height="6" fill="#421800" />
<rect x="48" y="171" width="3" height="6" fill="#181839" />
<rect x="63" y="171" width="6" height="3" fill="#181839" />
<rect x="69" y="171" width="6" height="3" fill="#421800" />
<rect x="75" y="171" width="6" height="3" fill="#7B4210" />
<rect x="84" y="171" width="3" height="21" fill="#180808" />
<rect x="45" y="174" width="3" height="6" fill="#421800" />
<rect x="51" y="174" width="15" height="3" fill="#181839" />
<rect x="66" y="174" width="3" height="12" fill="#421800" />
<rect x="69" y="174" width="3" height="3" fill="#180808" />
<rect x="72" y="174" width="3" height="3" fill="#421800" />
<rect x="75" y="174" width="3" height="3" fill="#A56B31" />
<rect x="78" y="174" width="3" height="3" fill="#7B4210" />
<rect x="81" y="174" width="3" height="6" fill="#421800" />
<rect x="87" y="174" width="3" height="15" fill="#180808" />
<rect x="36" y="177" width="3" height="3" fill="#180808" />
<rect x="39" y="177" width="6" height="3" fill="#421800" />
<rect x="48" y="177" width="3" height="15" fill="#180808" />
<rect x="51" y="177" width="15" height="6" fill="#421800" />
<rect x="69" y="177" width="3" height="9" fill="#421800" />
<rect x="72" y="177" width="3" height="3" fill="#180808" />
<rect x="75" y="177" width="6" height="6" fill="#421800" />
<rect x="36" y="180" width="3" height="3" fill="#421800" />
<rect x="39" y="180" width="9" height="3" fill="#180808" />
<rect x="72" y="180" width="3" height="3" fill="#421800" />
<rect x="81" y="180" width="3" height="6" fill="#7B4210" />
<rect x="36" y="183" width="3" height="9" fill="#180808" />
<rect x="39" y="183" width="9" height="3" fill="#421800" />
<rect x="51" y="183" width="3" height="3" fill="#7B4210" />
<rect x="54" y="183" width="12" height="3" fill="#421800" />
<rect x="72" y="183" width="3" height="3" fill="#7B4210" />
<rect x="75" y="183" width="6" height="3" fill="#A56B31" />
<rect x="39" y="186" width="9" height="6" fill="#180808" />
<rect x="51" y="186" width="3" height="9" fill="#180808" />
<rect x="54" y="186" width="12" height="3" fill="#A56B31" />
<rect x="66" y="186" width="6" height="3" fill="#7B4210" />
<rect x="72" y="186" width="12" height="6" fill="#180808" />
<rect x="54" y="189" width="18" height="6" fill="#180808" />
</svg>