<?xml version="1.0" encoding="UTF-8" ?>
<svg version="1.1" width="114" height="198" xmlns="http://www.w3.org/2000/svg" shape-rendering="crispEdges">
<rect x="75" y="27" width="12" height="6" fill="#184200" />
<rect x="69" y="30" width="6" height="6" fill="#184200" />
<rect x="87" y="30" width="6" height="6" fill="#184200" />
<rect x="63" y="33" width="6" height="6" fill="#184200" />
<rect x="75" y="33" width="12" height="12" fill="#428400" />
<rect x="93" y="33" width="3" height="12" fill="#184200" />
<rect x="60" y="36" width="3" height="9" fill="#184200" />
<rect x="69" y="36" width="6" height="21" fill="#428400" />
<rect x="87" y="36" width="3" height="9" fill="#428400" />
<rect x="90" y="36" width="3" height="3" fill="#184200" />
<rect x="96" y="36" width="3" height="21" fill="#184200" />
<rect x="57" y="39" width="3" height="9" fill="#184200" />
<rect x="63" y="39" width="3" height="3" fill="#184200" />
<rect x="66" y="39" width="3" height="21" fill="#428400" />
<rect x="90" y="39" width="3" height="9" fill="#428400" />
<rect x="54" y="42" width="3" height="9" fill="#184200" />
<rect x="63" y="42" width="3" height="18" fill="#428400" />
<rect x="99" y="42" width="3" height="12" fill="#184200" />
<rect x="51" y="45" width="3" height="12" fill="#184200" />
<rect x="60" y="45" width="3" height="18" fill="#428400" />
<rect x="75" y="45" width="3" height="3" fill="#428400" />
<rect x="78" y="45" width="12" height="3" fill="#B5B5B5" />
<rect x="93" y="45" width="3" height="6" fill="#428400" />
<rect x="48" y="48" width="3" height="15" fill="#184200" />
<rect x="57" y="48" width="3" height="15" fill="#428400" />
<rect x="75" y="48" width="9" height="6" fill="#B5B5B5" />
<rect x="84" y="48" width="6" height="9" fill="#184200" />
<rect x="90" y="48" width="3" height="9" fill="#B5B5B5" />
<rect x="42" y="51" width="6" height="6" fill="#184200" />
<rect x="54" y="51" width="3" height="12" fill="#428400" />
<rect x="93" y="51" width="3" height="6" fill="#184200" />
<rect x="36" y="54" width="6" height="6" fill="#184200" />
<rect x="75" y="54" width="6" height="3" fill="#B5B5B5" />
<rect x="81" y="54" width="3" height="3" fill="#184200" />
<rect x="33" y="57" width="3" height="12" fill="#184200" />
<rect x="42" y="57" width="6" height="9" fill="#428400" />
<rect x="51" y="57" width="3" height="9" fill="#428400" />
<rect x="69" y="57" width="3" height="3" fill="#428400" />
<rect x="72" y="57" width="3" height="3" fill="#184200" />
<rect x="75" y="57" width="27" height="9" fill="#180808" />
<rect x="36" y="60" width="3" height="6" fill="#184200" />
<rect x="39" y="60" width="3" height="9" fill="#428400" />
<rect x="63" y="60" width="3" height="3" fill="#184200" />
<rect x="66" y="60" width="9" height="6" fill="#180808" />
<rect x="102" y="60" width="6" height="6" fill="#180808" />
<rect x="30" y="63" width="3" height="6" fill="#184200" />
<rect x="48" y="63" width="3" height="3" fill="#428400" />
<rect x="54" y="63" width="3" height="3" fill="#184200" />
<rect x="57" y="63" width="9" height="3" fill="#180808" />
<rect x="108" y="63" width="3" height="3" fill="#180808" />
<rect x="27" y="66" width="3" height="18" fill="#184200" />
<rect x="36" y="66" width="3" height="3" fill="#428400" />
<rect x="42" y="66" width="3" height="3" fill="#428400" />
<rect x="45" y="66" width="3" height="3" fill="#184200" />
<rect x="48" y="66" width="9" height="3" fill="#180808" />
<rect x="57" y="66" width="3" height="3" fill="#7B4210" />
<rect x="60" y="66" width="9" height="18" fill="#BD8C5A" />
<rect x="69" y="66" width="21" height="3" fill="#A56B31" />
<rect x="90" y="66" width="3" height="3" fill="#421800" />
<rect x="93" y="66" width="3" height="6" fill="#180808" />
<rect x="30" y="69" width="3" height="3" fill="#180808" />
<rect x="33" y="69" width="9" height="3" fill="#421800" />
<rect x="42" y="69" width="6" height="3" fill="#180808" />
<rect x="48" y="69" width="9" height="3" fill="#421800" />
<rect x="57" y="69" width="3" height="6" fill="#BD8C5A" />
<rect x="69" y="69" width="3" height="24" fill="#BD8C5A" />
<rect x="72" y="69" width="6" height="12" fill="#180808" />
<rect x="78" y="69" width="9" height="27" fill="#BD8C5A" />
<rect x="87" y="69" width="6" height="6" fill="#180808" />
<rect x="96" y="69" width="3" height="3" fill="#180808" />
<rect x="30" y="72" width="6" height="3" fill="#421800" />
<rect x="36" y="72" width="12" height="6" fill="#BD8C5A" />
<rect x="48" y="72" width="3" height="3" fill="#7B4210" />
<rect x="51" y="72" width="6" height="9" fill="#421800" />
<rect x="93" y="72" width="6" height="3" fill="#421800" />
<rect x="99" y="72" width="6" height="3" fill="#180808" />
<rect x="30" y="75" width="3" height="9" fill="#421800" />
<rect x="33" y="75" width="3" height="9" fill="#BD8C5A" />
<rect x="48" y="75" width="3" height="27" fill="#BD8C5A" />
<rect x="57" y="75" width="3" height="6" fill="#421800" />
<rect x="87" y="75" width="3" height="3" fill="#180808" />
<rect x="90" y="75" width="3" height="3" fill="#421800" />
<rect x="93" y="75" width="6" height="21" fill="#BD8C5A" />
<rect x="99" y="75" width="3" height="3" fill="#A56B31" />
<rect x="102" y="75" width="3" height="3" fill="#421800" />
<rect x="105" y="75" width="3" height="6" fill="#180808" />
<rect x="36" y="78" width="3" height="9" fill="#BD8C5A" />
<rect x="39" y="78" width="6" height="3" fill="#7B4210" />
<rect x="45" y="78" width="3" height="15" fill="#BD8C5A" />
<rect x="87" y="78" width="3" height="3" fill="#7B4210" />
<rect x="90" y="78" width="3" height="18" fill="#BD8C5A" />
<rect x="99" y="78" width="3" height="15" fill="#BD8C5A" />
<rect x="102" y="78" width="3" height="3" fill="#A56B31" />
<rect x="108" y="78" width="3" height="15" fill="#180808" />
<rect x="39" y="81" width="3" height="9" fill="#BD8C5A" />
<rect x="42" y="81" width="3" height="3" fill="#7B4210" />
<rect x="51" y="81" width="3" height="3" fill="#7B4210" />
<rect x="54" y="81" width="3" height="3" fill="#421800" />
<rect x="57" y="81" width="3" height="33" fill="#BD8C5A" />
<rect x="72" y="81" width="6" height="3" fill="#7B4210" />
<rect x="87" y="81" width="3" height="15" fill="#BD8C5A" />
<rect x="102" y="81" width="3" height="9" fill="#BD8C5A" />
<rect x="105" y="81" width="3" height="9" fill="#7B4210" />
<rect x="30" y="84" width="3" height="6" fill="#180808" />
<rect x="33" y="84" width="3" height="3" fill="#421800" />
<rect x="42" y="84" width="3" height="6" fill="#BD8C5A" />
<rect x="51" y="84" width="6" height="27" fill="#BD8C5A" />
<rect x="60" y="84" width="3" height="12" fill="#180808" />
<rect x="63" y="84" width="6" height="3" fill="#BD8C5A" />
<rect x="72" y="84" width="6" height="9" fill="#BD8C5A" />
<rect x="33" y="87" width="3" height="6" fill="#180808" />
<rect x="36" y="87" width="3" height="3" fill="#421800" />
<rect x="63" y="87" width="3" height="3" fill="#7B4210" />
<rect x="66" y="87" width="3" height="3" fill="#BD8C5A" />
<rect x="36" y="90" width="3" height="3" fill="#180808" />
<rect x="39" y="90" width="3" height="3" fill="#421800" />
<rect x="42" y="90" width="3" height="3" fill="#A56B31" />
<rect x="63" y="90" width="3" height="9" fill="#180808" />
<rect x="66" y="90" width="3" height="3" fill="#7B4210" />
<rect x="102" y="90" width="3" height="3" fill="#7B4210" />
<rect x="105" y="90" width="3" height="3" fill="#421800" />
<rect x="39" y="93" width="3" height="3" fill="#180808" />
<rect x="42" y="93" width="3" height="3" fill="#421800" />
<rect x="45" y="93" width="3" height="3" fill="#A56B31" />
<rect x="66" y="93" width="6" height="9" fill="#180808" />
<rect x="72" y="93" width="3" height="3" fill="#7B4210" />
<rect x="75" y="93" width="3" height="3" fill="#BD8C5A" />
<rect x="99" y="93" width="6" height="3" fill="#421800" />
<rect x="105" y="93" width="3" height="3" fill="#180808" />
<rect x="42" y="96" width="3" height="3" fill="#180808" />
<rect x="45" y="96" width="3" height="3" fill="#421800" />
<rect x="60" y="96" width="3" height="3" fill="#A56B31" />
<rect x="72" y="96" width="33" height="3" fill="#180808" />
<rect x="45" y="99" width="3" height="9" fill="#180808" />
<rect x="60" y="99" width="3" height="15" fill="#BD8C5A" />
<rect x="63" y="99" width="3" height="3" fill="#421800" />
<rect x="72" y="99" width="9" height="3" fill="#180808" />
<rect x="81" y="99" width="6" height="3" fill="#421800" />
<rect x="87" y="99" width="12" height="3" fill="#180808" />
<rect x="48" y="102" width="3" height="6" fill="#7B4210" />
<rect x="63" y="102" width="3" height="12" fill="#BD8C5A" />
<rect x="66" y="102" width="3" height="3" fill="#7B4210" />
<rect x="69" y="102" width="6" height="3" fill="#180808" />
<rect x="75" y="102" width="3" height="3" fill="#BD8C5A" />
<rect x="78" y="102" width="3" height="3" fill="#7B4210" />
<rect x="81" y="102" width="12" height="3" fill="#180808" />
<rect x="21" y="105" width="21" height="3" fill="#184200" />
<rect x="42" y="105" width="3" height="18" fill="#181839" />
<rect x="66" y="105" width="9" height="3" fill="#BD8C5A" />
<rect x="75" y="105" width="3" height="3" fill="#421800" />
<rect x="78" y="105" width="6" height="3" fill="#180808" />
<rect x="12" y="108" width="12" height="3" fill="#184200" />
<rect x="24" y="108" width="15" height="6" fill="#428400" />
<rect x="39" y="108" width="3" height="3" fill="#184200" />
<rect x="45" y="108" width="3" height="24" fill="#2121DE" />
<rect x="48" y="108" width="3" height="3" fill="#421800" />
<rect x="66" y="108" width="3" height="3" fill="#BD8C5A" />
<rect x="69" y="108" width="3" height="3" fill="#A56B31" />
<rect x="72" y="108" width="3" height="3" fill="#421800" />
<rect x="75" y="108" width="3" height="3" fill="#180808" />
<rect x="6" y="111" width="9" height="3" fill="#184200" />
<rect x="15" y="111" width="9" height="6" fill="#428400" />
<rect x="39" y="111" width="3" height="12" fill="#428400" />
<rect x="48" y="111" width="3" height="9" fill="#181839" />
<rect x="51" y="111" width="3" height="3" fill="#421800" />
<rect x="54" y="111" width="3" height="3" fill="#A56B31" />
<rect x="66" y="111" width="3" height="3" fill="#421800" />
<rect x="69" y="111" width="6" height="3" fill="#180808" />
<rect x="75" y="111" width="12" height="3" fill="#184200" />
<rect x="3" y="114" width="6" height="3" fill="#184200" />
<rect x="9" y="114" width="6" height="6" fill="#428400" />
<rect x="24" y="114" width="3" height="3" fill="#428400" />
<rect x="27" y="114" width="3" height="3" fill="#184200" />
<rect x="30" y="114" width="9" height="3" fill="#428400" />
<rect x="51" y="114" width="3" height="6" fill="#428400" />
<rect x="54" y="114" width="12" height="3" fill="#421800" />
<rect x="66" y="114" width="6" height="6" fill="#181839" />
<rect x="72" y="114" width="12" height="6" fill="#428400" />
<rect x="84" y="114" width="9" height="3" fill="#184200" />
<rect x="3" y="117" width="3" height="15" fill="#184200" />
<rect x="6" y="117" width="3" height="9" fill="#428400" />
<rect x="15" y="117" width="3" height="3" fill="#428400" />
<rect x="18" y="117" width="15" height="3" fill="#393939" />
<rect x="33" y="117" width="6" height="3" fill="#428400" />
<rect x="54" y="117" width="12" height="12" fill="#428400" />
<rect x="84" y="117" width="6" height="6" fill="#428400" />
<rect x="90" y="117" width="9" height="3" fill="#184200" />
<rect x="0" y="120" width="3" height="12" fill="#184200" />
<rect x="9" y="120" width="3" height="3" fill="#428400" />
<rect x="12" y="120" width="6" height="3" fill="#393939" />
<rect x="18" y="120" width="3" height="18" fill="#B5B5B5" />
<rect x="21" y="120" width="3" height="3" fill="#636363" />
<rect x="24" y="120" width="9" height="6" fill="#B5B5B5" />
<rect x="33" y="120" width="3" height="3" fill="#393939" />
<rect x="36" y="120" width="3" height="3" fill="#428400" />
<rect x="48" y="120" width="3" height="12" fill="#2121DE" />
<rect x="51" y="120" width="3" height="12" fill="#181839" />
<rect x="66" y="120" width="3" height="9" fill="#181839" />
<rect x="69" y="120" width="3" height="12" fill="#2121DE" />
<rect x="72" y="120" width="3" height="9" fill="#181839" />
<rect x="75" y="120" width="9" height="6" fill="#428400" />
<rect x="90" y="120" width="6" height="3" fill="#428400" />
<rect x="96" y="120" width="6" height="3" fill="#184200" />
<rect x="9" y="123" width="3" height="3" fill="#393939" />
<rect x="12" y="123" width="3" height="3" fill="#636363" />
<rect x="15" y="123" width="3" height="3" fill="#B5B5B5" />
<rect x="21" y="123" width="3" height="9" fill="#B5B5B5" />
<rect x="33" y="123" width="3" height="6" fill="#B5B5B5" />
<rect x="36" y="123" width="3" height="9" fill="#393939" />
<rect x="39" y="123" width="3" height="6" fill="#181839" />
<rect x="42" y="123" width="3" height="45" fill="#2121DE" />
<rect x="84" y="123" width="15" height="3" fill="#393939" />
<rect x="99" y="123" width="6" height="3" fill="#180808" />
<rect x="6" y="126" width="3" height="12" fill="#393939" />
<rect x="9" y="126" width="3" height="3" fill="#636363" />
<rect x="12" y="126" width="3" height="15" fill="#B5B5B5" />
<rect x="15" y="126" width="3" height="3" fill="#636363" />
<rect x="24" y="126" width="3" height="9" fill="#B5B5B5" />
<rect x="27" y="126" width="3" height="3" fill="#636363" />
<rect x="30" y="126" width="3" height="3" fill="#B5B5B5" />
<rect x="75" y="126" width="6" height="3" fill="#428400" />
<rect x="81" y="126" width="3" height="3" fill="#393939" />
<rect x="84" y="126" width="15" height="6" fill="#B5B5B5" />
<rect x="99" y="126" width="6" height="3" fill="#393939" />
<rect x="105" y="126" width="3" height="3" fill="#180808" />
<rect x="9" y="129" width="3" height="9" fill="#B5B5B5" />
<rect x="15" y="129" width="3" height="12" fill="#B5B5B5" />
<rect x="27" y="129" width="3" height="6" fill="#B5B5B5" />
<rect x="30" y="129" width="6" height="3" fill="#636363" />
<rect x="39" y="129" width="3" height="9" fill="#393939" />
<rect x="54" y="129" width="12" height="3" fill="#181839" />
<rect x="66" y="129" width="3" height="3" fill="#2121DE" />
<rect x="72" y="129" width="3" height="6" fill="#2121DE" />
<rect x="75" y="129" width="3" height="3" fill="#181839" />
<rect x="78" y="129" width="3" height="6" fill="#393939" />
<rect x="81" y="129" width="3" height="6" fill="#B5B5B5" />
<rect x="99" y="129" width="3" height="18" fill="#B5B5B5" />
<rect x="102" y="129" width="3" height="3" fill="#636363" />
<rect x="105" y="129" width="3" height="3" fill="#393939" />
<rect x="108" y="129" width="3" height="3" fill="#180808" />
<rect x="3" y="132" width="3" height="6" fill="#180808" />
<rect x="21" y="132" width="3" height="3" fill="#636363" />
<rect x="30" y="132" width="3" height="6" fill="#636363" />
<rect x="33" y="132" width="3" height="3" fill="#B5B5B5" />
<rect x="36" y="132" width="3" height="3" fill="#636363" />
<rect x="45" y="132" width="3" height="3" fill="#7B4210" />
<rect x="48" y="132" width="3" height="12" fill="#C69C31" />
<rect x="51" y="132" width="3" height="3" fill="#7B4210" />
<rect x="54" y="132" width="12" height="33" fill="#2121DE" />
<rect x="66" y="132" width="3" height="3" fill="#7B4210" />
<rect x="69" y="132" width="3" height="12" fill="#C69C31" />
<rect x="75" y="132" width="3" height="12" fill="#393939" />
<rect x="84" y="132" width="3" height="3" fill="#B5B5B5" />
<rect x="87" y="132" width="3" height="3" fill="#636363" />
<rect x="90" y="132" width="9" height="6" fill="#B5B5B5" />
<rect x="102" y="132" width="3" height="15" fill="#B5B5B5" />
<rect x="105" y="132" width="3" height="3" fill="#636363" />
<rect x="108" y="132" width="3" height="12" fill="#393939" />
<rect x="111" y="132" width="3" height="12" fill="#180808" />
<rect x="21" y="135" width="3" height="3" fill="#B5B5B5" />
<rect x="24" y="135" width="6" height="3" fill="#636363" />
<rect x="33" y="135" width="3" height="3" fill="#636363" />
<rect x="36" y="135" width="3" height="6" fill="#393939" />
<rect x="45" y="135" width="3" height="6" fill="#C69C31" />
<rect x="51" y="135" width="3" height="6" fill="#C69C31" />
<rect x="66" y="135" width="3" height="6" fill="#C69C31" />
<rect x="72" y="135" width="3" height="6" fill="#7B4210" />
<rect x="78" y="135" width="9" height="3" fill="#636363" />
<rect x="87" y="135" width="3" height="6" fill="#B5B5B5" />
<rect x="105" y="135" width="3" height="9" fill="#B5B5B5" />
<rect x="6" y="138" width="3" height="3" fill="#180808" />
<rect x="9" y="138" width="3" height="3" fill="#393939" />
<rect x="18" y="138" width="9" height="3" fill="#636363" />
<rect x="27" y="138" width="9" height="3" fill="#393939" />
<rect x="39" y="138" width="3" height="30" fill="#2121DE" />
<rect x="78" y="138" width="3" height="3" fill="#636363" />
<rect x="81" y="138" width="3" height="3" fill="#B5B5B5" />
<rect x="84" y="138" width="3" height="6" fill="#636363" />
<rect x="90" y="138" width="3" height="3" fill="#B5B5B5" />
<rect x="93" y="138" width="3" height="3" fill="#636363" />
<rect x="96" y="138" width="3" height="6" fill="#B5B5B5" />
<rect x="9" y="141" width="3" height="3" fill="#180808" />
<rect x="12" y="141" width="18" height="3" fill="#393939" />
<rect x="30" y="141" width="6" height="3" fill="#181839" />
<rect x="36" y="141" width="3" height="30" fill="#2121DE" />
<rect x="45" y="141" width="3" height="3" fill="#7B4210" />
<rect x="51" y="141" width="3" height="3" fill="#7B4210" />
<rect x="66" y="141" width="3" height="3" fill="#7B4210" />
<rect x="72" y="141" width="3" height="15" fill="#181839" />
<rect x="78" y="141" width="3" height="3" fill="#393939" />
<rect x="81" y="141" width="3" height="3" fill="#636363" />
<rect x="87" y="141" width="6" height="3" fill="#636363" />
<rect x="93" y="141" width="3" height="3" fill="#B5B5B5" />
<rect x="12" y="144" width="12" height="3" fill="#180808" />
<rect x="24" y="144" width="3" height="3" fill="#181839" />
<rect x="27" y="144" width="3" height="3" fill="#180808" />
<rect x="30" y="144" width="3" height="6" fill="#181839" />
<rect x="33" y="144" width="3" height="27" fill="#2121DE" />
<rect x="45" y="144" width="9" height="21" fill="#2121DE" />
<rect x="66" y="144" width="6" height="21" fill="#2121DE" />
<rect x="75" y="144" width="3" height="21" fill="#181839" />
<rect x="78" y="144" width="3" height="3" fill="#180808" />
<rect x="81" y="144" width="9" height="3" fill="#393939" />
<rect x="90" y="144" width="9" height="3" fill="#636363" />
<rect x="105" y="144" width="3" height="3" fill="#393939" />
<rect x="108" y="144" width="3" height="3" fill="#180808" />
<rect x="27" y="147" width="3" height="12" fill="#181839" />
<rect x="81" y="147" width="9" height="3" fill="#180808" />
<rect x="90" y="147" width="15" height="3" fill="#393939" />
<rect x="105" y="147" width="3" height="3" fill="#180808" />
<rect x="24" y="150" width="3" height="21" fill="#181839" />
<rect x="30" y="150" width="3" height="21" fill="#2121DE" />
<rect x="90" y="150" width="15" height="3" fill="#180808" />
<rect x="72" y="156" width="3" height="9" fill="#2121DE" />
<rect x="78" y="156" width="3" height="9" fill="#181839" />
<rect x="21" y="159" width="3" height="12" fill="#181839" />
<rect x="27" y="159" width="3" height="12" fill="#2121DE" />
<rect x="45" y="165" width="3" height="3" fill="#2121DE" />
<rect x="48" y="165" width="9" height="6" fill="#181839" />
<rect x="57" y="165" width="12" height="3" fill="#2121DE" />
<rect x="69" y="165" width="6" height="3" fill="#181839" />
<rect x="75" y="165" width="15" height="3" fill="#180808" />
<rect x="12" y="168" width="9" height="3" fill="#180808" />
<rect x="39" y="168" width="9" height="3" fill="#181839" />
<rect x="57" y="168" width="3" height="6" fill="#181839" />
<rect x="60" y="168" width="6" height="3" fill="#2121DE" />
<rect x="66" y="168" width="3" height="3" fill="#181839" />
<rect x="69" y="168" width="3" height="3" fill="#180808" />
<rect x="72" y="168" width="15" height="3" fill="#421800" />
<rect x="87" y="168" width="6" height="3" fill="#180808" />
<rect x="9" y="171" width="6" height="3" fill="#180808" />
<rect x="15" y="171" width="18" height="3" fill="#421800" />
<rect x="33" y="171" width="12" height="3" fill="#181839" />
<rect x="54" y="171" width="3" height="3" fill="#181839" />
<rect x="60" y="171" width="6" height="3" fill="#181839" />
<rect x="66" y="171" width="3" height="9" fill="#180808" />
<rect x="69" y="171" width="12" height="12" fill="#421800" />
<rect x="81" y="171" width="6" height="6" fill="#7B4210" />
<rect x="87" y="171" width="3" height="9" fill="#421800" />
<rect x="90" y="171" width="6" height="18" fill="#180808" />
<rect x="6" y="174" width="6" height="18" fill="#180808" />
<rect x="12" y="174" width="12" height="9" fill="#421800" />
<rect x="24" y="174" width="6" height="6" fill="#A56B31" />
<rect x="30" y="174" width="6" height="9" fill="#421800" />
<rect x="36" y="174" width="6" height="3" fill="#181839" />
<rect x="54" y="174" width="6" height="9" fill="#180808" />
<rect x="60" y="174" width="6" height="6" fill="#421800" />
<rect x="36" y="177" width="6" height="15" fill="#180808" />
<rect x="81" y="177" width="6" height="6" fill="#421800" />
<rect x="24" y="180" width="6" height="6" fill="#421800" />
<rect x="60" y="180" width="9" height="3" fill="#7B4210" />
<rect x="87" y="180" width="3" height="3" fill="#180808" />
<rect x="12" y="183" width="3" height="3" fill="#180808" />
<rect x="15" y="183" width="9" height="3" fill="#421800" />
<rect x="30" y="183" width="3" height="3" fill="#421800" />
<rect x="33" y="183" width="3" height="3" fill="#180808" />
<rect x="57" y="183" width="9" height="3" fill="#180808" />
<rect x="66" y="183" width="24" height="3" fill="#7B4210" />
<rect x="12" y="186" width="6" height="3" fill="#7B4210" />
<rect x="18" y="186" width="15" height="3" fill="#A56B31" />
<rect x="33" y="186" width="3" height="3" fill="#7B4210" />
<rect x="60" y="186" width="30" height="3" fill="#180808" />
<rect x="12" y="189" width="24" height="6" fill="#180808" />
<rect x="66" y="189" width="27" height="3" fill="#180808" />
<rect x="9" y="192" width="3" height="3" fill="#180808" />
<rect x="36" y="192" width="3" height="3" fill="#180808" />
</svg>