<?xml version="1.0" encoding="UTF-8" ?>
<svg version="1.1" width="108" height="168" xmlns="http://www.w3.org/2000/svg" shape-rendering="crispEdges">
<rect x="60" y="24" width="18" height="3" fill="#482010" />
<rect x="54" y="27" width="6" height="3" fill="#482010" />
<rect x="60" y="27" width="15" height="3" fill="#600000" />
<rect x="75" y="27" width="6" height="3" fill="#482010" />
<rect x="48" y="30" width="6" height="3" fill="#482010" />
<rect x="54" y="30" width="6" height="3" fill="#600000" />
<rect x="60" y="30" width="15" height="33" fill="#A81828" />
<rect x="75" y="30" width="6" height="3" fill="#600000" />
<rect x="81" y="30" width="3" height="3" fill="#482010" />
<rect x="45" y="33" width="3" height="3" fill="#482010" />
<rect x="48" y="33" width="6" height="3" fill="#600000" />
<rect x="54" y="33" width="6" height="33" fill="#A81828" />
<rect x="75" y="33" width="3" height="27" fill="#A81828" />
<rect x="78" y="33" width="6" height="3" fill="#600000" />
<rect x="84" y="33" width="3" height="6" fill="#482010" />
<rect x="39" y="36" width="6" height="3" fill="#482010" />
<rect x="45" y="36" width="3" height="3" fill="#600000" />
<rect x="48" y="36" width="6" height="15" fill="#A81828" />
<rect x="78" y="36" width="3" height="24" fill="#A81828" />
<rect x="81" y="36" width="3" height="6" fill="#600000" />
<rect x="36" y="39" width="3" height="3" fill="#482010" />
<rect x="39" y="39" width="6" height="3" fill="#600000" />
<rect x="45" y="39" width="3" height="9" fill="#A81828" />
<rect x="84" y="39" width="3" height="15" fill="#600000" />
<rect x="87" y="39" width="3" height="12" fill="#482010" />
<rect x="33" y="42" width="3" height="3" fill="#482010" />
<rect x="36" y="42" width="6" height="3" fill="#600000" />
<rect x="42" y="42" width="3" height="6" fill="#A81828" />
<rect x="81" y="42" width="3" height="15" fill="#A81828" />
<rect x="30" y="45" width="3" height="3" fill="#482010" />
<rect x="33" y="45" width="6" height="6" fill="#600000" />
<rect x="39" y="45" width="3" height="3" fill="#A81828" />
<rect x="24" y="48" width="6" height="3" fill="#482010" />
<rect x="30" y="48" width="3" height="6" fill="#600000" />
<rect x="39" y="48" width="9" height="3" fill="#600000" />
<rect x="90" y="48" width="9" height="9" fill="#181010" />
<rect x="21" y="51" width="3" height="12" fill="#482010" />
<rect x="24" y="51" width="6" height="6" fill="#600000" />
<rect x="33" y="51" width="15" height="18" fill="#A81828" />
<rect x="48" y="51" width="6" height="3" fill="#600000" />
<rect x="87" y="51" width="3" height="9" fill="#181010" />
<rect x="99" y="51" width="3" height="3" fill="#181010" />
<rect x="30" y="54" width="3" height="15" fill="#A81828" />
<rect x="48" y="54" width="6" height="15" fill="#A81828" />
<rect x="84" y="54" width="3" height="12" fill="#181010" />
<rect x="24" y="57" width="3" height="12" fill="#600000" />
<rect x="27" y="57" width="3" height="9" fill="#A81828" />
<rect x="81" y="57" width="3" height="9" fill="#181010" />
<rect x="90" y="57" width="3" height="3" fill="#181010" />
<rect x="75" y="60" width="3" height="3" fill="#600000" />
<rect x="78" y="60" width="3" height="6" fill="#181010" />
<rect x="18" y="63" width="3" height="3" fill="#181010" />
<rect x="21" y="63" width="3" height="6" fill="#600000" />
<rect x="60" y="63" width="9" height="3" fill="#A81828" />
<rect x="69" y="63" width="3" height="3" fill="#600000" />
<rect x="72" y="63" width="6" height="3" fill="#181010" />
<rect x="87" y="63" width="6" height="3" fill="#181010" />
<rect x="15" y="66" width="3" height="3" fill="#181010" />
<rect x="18" y="66" width="3" height="3" fill="#482010" />
<rect x="27" y="66" width="3" height="6" fill="#600000" />
<rect x="54" y="66" width="3" height="3" fill="#A81828" />
<rect x="57" y="66" width="9" height="3" fill="#600000" />
<rect x="66" y="66" width="12" height="3" fill="#482010" />
<rect x="78" y="66" width="3" height="6" fill="#784010" />
<rect x="81" y="66" width="12" height="3" fill="#482010" />
<rect x="93" y="66" width="6" height="3" fill="#181010" />
<rect x="12" y="69" width="3" height="12" fill="#181010" />
<rect x="15" y="69" width="3" height="12" fill="#482010" />
<rect x="18" y="69" width="3" height="3" fill="#784010" />
<rect x="21" y="69" width="3" height="12" fill="#B88858" />
<rect x="24" y="69" width="3" height="18" fill="#482010" />
<rect x="30" y="69" width="27" height="3" fill="#600000" />
<rect x="57" y="69" width="9" height="3" fill="#482010" />
<rect x="66" y="69" width="3" height="3" fill="#784010" />
<rect x="69" y="69" width="6" height="18" fill="#B88858" />
<rect x="75" y="69" width="3" height="3" fill="#482010" />
<rect x="81" y="69" width="3" height="6" fill="#482010" />
<rect x="84" y="69" width="3" height="3" fill="#784010" />
<rect x="87" y="69" width="3" height="3" fill="#A06830" />
<rect x="90" y="69" width="3" height="18" fill="#B88858" />
<rect x="93" y="69" width="6" height="3" fill="#482010" />
<rect x="99" y="69" width="3" height="18" fill="#181010" />
<rect x="18" y="72" width="3" height="6" fill="#B88858" />
<rect x="27" y="72" width="39" height="3" fill="#784010" />
<rect x="66" y="72" width="3" height="15" fill="#B88858" />
<rect x="75" y="72" width="3" height="12" fill="#B88858" />
<rect x="78" y="72" width="3" height="12" fill="#482010" />
<rect x="84" y="72" width="3" height="3" fill="#A06830" />
<rect x="87" y="72" width="3" height="9" fill="#B88858" />
<rect x="93" y="72" width="3" height="12" fill="#B88858" />
<rect x="96" y="72" width="3" height="15" fill="#482010" />
<rect x="27" y="75" width="36" height="12" fill="#784010" />
<rect x="63" y="75" width="3" height="6" fill="#B88858" />
<rect x="81" y="75" width="3" height="12" fill="#B88858" />
<rect x="84" y="75" width="3" height="6" fill="#482010" />
<rect x="18" y="78" width="3" height="3" fill="#784010" />
<rect x="15" y="81" width="3" height="3" fill="#181010" />
<rect x="18" y="81" width="6" height="3" fill="#482010" />
<rect x="63" y="81" width="3" height="3" fill="#A06830" />
<rect x="84" y="81" width="6" height="18" fill="#181010" />
<rect x="21" y="84" width="3" height="9" fill="#482010" />
<rect x="63" y="84" width="3" height="6" fill="#784010" />
<rect x="75" y="84" width="3" height="3" fill="#482010" />
<rect x="78" y="84" width="3" height="9" fill="#B88858" />
<rect x="93" y="84" width="3" height="3" fill="#784010" />
<rect x="18" y="87" width="3" height="3" fill="#482010" />
<rect x="24" y="87" width="9" height="3" fill="#784010" />
<rect x="33" y="87" width="6" height="6" fill="#482010" />
<rect x="39" y="87" width="18" height="3" fill="#784010" />
<rect x="57" y="87" width="3" height="3" fill="#482010" />
<rect x="60" y="87" width="3" height="3" fill="#784010" />
<rect x="66" y="87" width="3" height="3" fill="#784010" />
<rect x="69" y="87" width="6" height="3" fill="#482010" />
<rect x="75" y="87" width="3" height="6" fill="#B88858" />
<rect x="81" y="87" width="3" height="3" fill="#A06830" />
<rect x="90" y="87" width="3" height="3" fill="#784010" />
<rect x="93" y="87" width="3" height="3" fill="#482010" />
<rect x="96" y="87" width="3" height="3" fill="#181010" />
<rect x="15" y="90" width="6" height="3" fill="#181010" />
<rect x="24" y="90" width="9" height="3" fill="#482010" />
<rect x="39" y="90" width="6" height="3" fill="#482010" />
<rect x="45" y="90" width="15" height="3" fill="#784010" />
<rect x="60" y="90" width="3" height="6" fill="#482010" />
<rect x="63" y="90" width="6" height="3" fill="#A06830" />
<rect x="69" y="90" width="6" height="3" fill="#B88858" />
<rect x="81" y="90" width="3" height="6" fill="#181010" />
<rect x="90" y="90" width="6" height="3" fill="#181010" />
<rect x="12" y="93" width="6" height="3" fill="#181010" />
<rect x="18" y="93" width="6" height="3" fill="#600000" />
<rect x="24" y="93" width="9" height="3" fill="#181010" />
<rect x="33" y="93" width="6" height="3" fill="#202028" />
<rect x="39" y="93" width="6" height="9" fill="#A81828" />
<rect x="45" y="93" width="15" height="3" fill="#482010" />
<rect x="63" y="93" width="9" height="3" fill="#482010" />
<rect x="72" y="93" width="9" height="3" fill="#600000" />
<rect x="90" y="93" width="3" height="6" fill="#181010" />
<rect x="9" y="96" width="6" height="3" fill="#181010" />
<rect x="15" y="96" width="3" height="3" fill="#600000" />
<rect x="18" y="96" width="12" height="3" fill="#A81828" />
<rect x="30" y="96" width="6" height="3" fill="#202028" />
<rect x="36" y="96" width="3" height="9" fill="#A81828" />
<rect x="45" y="96" width="3" height="3" fill="#A81828" />
<rect x="48" y="96" width="3" height="3" fill="#202028" />
<rect x="51" y="96" width="6" height="3" fill="#2830C8" />
<rect x="57" y="96" width="3" height="3" fill="#202028" />
<rect x="60" y="96" width="18" height="12" fill="#A81828" />
<rect x="78" y="96" width="6" height="3" fill="#600000" />
<rect x="93" y="96" width="6" height="6" fill="#181010" />
<rect x="9" y="99" width="3" height="9" fill="#181010" />
<rect x="12" y="99" width="3" height="9" fill="#600000" />
<rect x="15" y="99" width="12" height="3" fill="#A81828" />
<rect x="27" y="99" width="3" height="3" fill="#202028" />
<rect x="30" y="99" width="3" height="3" fill="#2830C8" />
<rect x="33" y="99" width="3" height="3" fill="#202028" />
<rect x="45" y="99" width="3" height="3" fill="#202028" />
<rect x="48" y="99" width="6" height="6" fill="#2830C8" />
<rect x="54" y="99" width="3" height="6" fill="#202028" />
<rect x="57" y="99" width="3" height="21" fill="#A81828" />
<rect x="78" y="99" width="12" height="15" fill="#A81828" />
<rect x="90" y="99" width="3" height="3" fill="#600000" />
<rect x="99" y="99" width="3" height="21" fill="#181010" />
<rect x="15" y="102" width="6" height="3" fill="#A81828" />
<rect x="21" y="102" width="3" height="3" fill="#600000" />
<rect x="24" y="102" width="3" height="3" fill="#202028" />
<rect x="27" y="102" width="3" height="39" fill="#2830C8" />
<rect x="30" y="102" width="3" height="9" fill="#202028" />
<rect x="33" y="102" width="3" height="6" fill="#A81828" />
<rect x="39" y="102" width="6" height="3" fill="#202028" />
<rect x="45" y="102" width="3" height="39" fill="#2830C8" />
<rect x="90" y="102" width="3" height="9" fill="#A81828" />
<rect x="93" y="102" width="3" height="9" fill="#600000" />
<rect x="96" y="102" width="3" height="3" fill="#686868" />
<rect x="102" y="102" width="3" height="15" fill="#181010" />
<rect x="15" y="105" width="3" height="3" fill="#600000" />
<rect x="18" y="105" width="6" height="3" fill="#202028" />
<rect x="24" y="105" width="3" height="33" fill="#2830C8" />
<rect x="36" y="105" width="3" height="3" fill="#202028" />
<rect x="39" y="105" width="6" height="36" fill="#2830C8" />
<rect x="48" y="105" width="3" height="36" fill="#2830C8" />
<rect x="51" y="105" width="3" height="12" fill="#202028" />
<rect x="54" y="105" width="3" height="12" fill="#A81828" />
<rect x="96" y="105" width="3" height="6" fill="#B0B0B0" />
<rect x="12" y="108" width="3" height="33" fill="#181010" />
<rect x="15" y="108" width="6" height="3" fill="#202028" />
<rect x="21" y="108" width="3" height="30" fill="#2830C8" />
<rect x="33" y="108" width="3" height="3" fill="#202028" />
<rect x="36" y="108" width="3" height="33" fill="#2830C8" />
<rect x="60" y="108" width="6" height="12" fill="#A81828" />
<rect x="66" y="108" width="3" height="3" fill="#202028" />
<rect x="69" y="108" width="3" height="6" fill="#600000" />
<rect x="72" y="108" width="6" height="3" fill="#A81828" />
<rect x="9" y="111" width="3" height="18" fill="#181010" />
<rect x="15" y="111" width="3" height="3" fill="#202028" />
<rect x="18" y="111" width="3" height="21" fill="#2830C8" />
<rect x="30" y="111" width="6" height="27" fill="#2830C8" />
<rect x="66" y="111" width="3" height="12" fill="#A81828" />
<rect x="72" y="111" width="3" height="6" fill="#202028" />
<rect x="75" y="111" width="3" height="3" fill="#600000" />
<rect x="90" y="111" width="3" height="3" fill="#600000" />
<rect x="93" y="111" width="3" height="6" fill="#B0B0B0" />
<rect x="96" y="111" width="3" height="3" fill="#686868" />
<rect x="15" y="114" width="3" height="15" fill="#2830C8" />
<rect x="69" y="114" width="3" height="6" fill="#A81828" />
<rect x="75" y="114" width="6" height="6" fill="#181010" />
<rect x="81" y="114" width="9" height="3" fill="#600000" />
<rect x="90" y="114" width="3" height="3" fill="#B0B0B0" />
<rect x="96" y="114" width="3" height="3" fill="#404040" />
<rect x="51" y="117" width="3" height="27" fill="#2830C8" />
<rect x="54" y="117" width="3" height="3" fill="#202028" />
<rect x="72" y="117" width="3" height="12" fill="#181010" />
<rect x="81" y="117" width="3" height="6" fill="#181010" />
<rect x="84" y="117" width="6" height="3" fill="#686868" />
<rect x="90" y="117" width="3" height="3" fill="#404040" />
<rect x="93" y="117" width="6" height="6" fill="#181010" />
<rect x="54" y="120" width="3" height="24" fill="#2830C8" />
<rect x="57" y="120" width="6" height="3" fill="#202028" />
<rect x="63" y="120" width="3" height="3" fill="#A81828" />
<rect x="69" y="120" width="3" height="3" fill="#600000" />
<rect x="84" y="120" width="9" height="3" fill="#181010" />
<rect x="57" y="123" width="6" height="18" fill="#2830C8" />
<rect x="63" y="123" width="9" height="3" fill="#202028" />
<rect x="63" y="126" width="6" height="3" fill="#2830C8" />
<rect x="69" y="126" width="3" height="3" fill="#202028" />
<rect x="15" y="129" width="3" height="3" fill="#202028" />
<rect x="63" y="129" width="3" height="6" fill="#2830C8" />
<rect x="66" y="129" width="3" height="9" fill="#202028" />
<rect x="69" y="129" width="3" height="12" fill="#181010" />
<rect x="15" y="132" width="3" height="6" fill="#181010" />
<rect x="18" y="132" width="3" height="3" fill="#202028" />
<rect x="72" y="132" width="3" height="6" fill="#181010" />
<rect x="9" y="135" width="3" height="24" fill="#181010" />
<rect x="18" y="135" width="3" height="3" fill="#181010" />
<rect x="63" y="135" width="3" height="3" fill="#202028" />
<rect x="75" y="135" width="6" height="3" fill="#181010" />
<rect x="15" y="138" width="6" height="15" fill="#482010" />
<rect x="21" y="138" width="6" height="3" fill="#181010" />
<rect x="30" y="138" width="6" height="3" fill="#202028" />
<rect x="63" y="138" width="3" height="3" fill="#2830C8" />
<rect x="66" y="138" width="3" height="3" fill="#181010" />
<rect x="72" y="138" width="6" height="3" fill="#482010" />
<rect x="78" y="138" width="6" height="3" fill="#181010" />
<rect x="6" y="141" width="3" height="15" fill="#181010" />
<rect x="12" y="141" width="3" height="9" fill="#482010" />
<rect x="21" y="141" width="6" height="12" fill="#482010" />
<rect x="27" y="141" width="24" height="3" fill="#181010" />
<rect x="57" y="141" width="3" height="3" fill="#2830C8" />
<rect x="60" y="141" width="6" height="3" fill="#181010" />
<rect x="66" y="141" width="6" height="15" fill="#482010" />
<rect x="72" y="141" width="3" height="3" fill="#181010" />
<rect x="75" y="141" width="6" height="3" fill="#784010" />
<rect x="81" y="141" width="6" height="3" fill="#181010" />
<rect x="27" y="144" width="6" height="6" fill="#482010" />
<rect x="33" y="144" width="21" height="3" fill="#181010" />
<rect x="54" y="144" width="6" height="3" fill="#202028" />
<rect x="60" y="144" width="6" height="12" fill="#482010" />
<rect x="72" y="144" width="3" height="12" fill="#482010" />
<rect x="75" y="144" width="3" height="6" fill="#181010" />
<rect x="78" y="144" width="6" height="6" fill="#482010" />
<rect x="84" y="144" width="6" height="15" fill="#181010" />
<rect x="33" y="147" width="6" height="9" fill="#181010" />
<rect x="48" y="147" width="6" height="12" fill="#181010" />
<rect x="54" y="147" width="6" height="6" fill="#482010" />
<rect x="12" y="150" width="3" height="3" fill="#784010" />
<rect x="27" y="150" width="3" height="3" fill="#482010" />
<rect x="30" y="150" width="3" height="3" fill="#784010" />
<rect x="75" y="150" width="6" height="3" fill="#482010" />
<rect x="81" y="150" width="3" height="6" fill="#A06830" />
<rect x="12" y="153" width="3" height="6" fill="#181010" />
<rect x="15" y="153" width="15" height="3" fill="#784010" />
<rect x="30" y="153" width="3" height="6" fill="#181010" />
<rect x="54" y="153" width="3" height="3" fill="#784010" />
<rect x="57" y="153" width="3" height="3" fill="#482010" />
<rect x="75" y="153" width="3" height="3" fill="#482010" />
<rect x="78" y="153" width="3" height="3" fill="#784010" />
<rect x="15" y="156" width="15" height="6" fill="#181010" />
<rect x="33" y="156" width="3" height="3" fill="#181010" />
<rect x="54" y="156" width="3" height="9" fill="#181010" />
<rect x="57" y="156" width="6" height="3" fill="#784010" />
<rect x="63" y="156" width="9" height="3" fill="#A06830" />
<rect x="72" y="156" width="6" height="3" fill="#784010" />
<rect x="78" y="156" width="6" height="6" fill="#181010" />
<rect x="51" y="159" width="3" height="3" fill="#181010" />
<rect x="57" y="159" width="21" height="6" fill="#181010" />
<rect x="84" y="159" width="3" height="3" fill="#181010" />
</svg>