<?xml version="1.0" encoding="UTF-8" ?>
<svg version="1.1" width="96" height="168" xmlns="http://www.w3.org/2000/svg" shape-rendering="crispEdges">
<rect x="36" y="3" width="18" height="3" fill="#482010" />
<rect x="30" y="6" width="6" height="3" fill="#482010" />
<rect x="36" y="6" width="15" height="3" fill="#600000" />
<rect x="51" y="6" width="9" height="3" fill="#482010" />
<rect x="27" y="9" width="6" height="3" fill="#482010" />
<rect x="33" y="9" width="3" height="3" fill="#600000" />
<rect x="36" y="9" width="15" height="6" fill="#A81828" />
<rect x="51" y="9" width="6" height="3" fill="#600000" />
<rect x="57" y="9" width="6" height="3" fill="#482010" />
<rect x="24" y="12" width="6" height="3" fill="#482010" />
<rect x="30" y="12" width="3" height="3" fill="#600000" />
<rect x="33" y="12" width="3" height="27" fill="#A81828" />
<rect x="51" y="12" width="6" height="3" fill="#A81828" />
<rect x="57" y="12" width="3" height="3" fill="#600000" />
<rect x="60" y="12" width="6" height="3" fill="#482010" />
<rect x="24" y="15" width="3" height="3" fill="#482010" />
<rect x="27" y="15" width="3" height="3" fill="#600000" />
<rect x="30" y="15" width="3" height="27" fill="#A81828" />
<rect x="36" y="15" width="9" height="3" fill="#A81828" />
<rect x="45" y="15" width="9" height="3" fill="#B0B0B0" />
<rect x="54" y="15" width="6" height="3" fill="#A81828" />
<rect x="60" y="15" width="3" height="6" fill="#600000" />
<rect x="63" y="15" width="3" height="6" fill="#482010" />
<rect x="21" y="18" width="3" height="9" fill="#482010" />
<rect x="24" y="18" width="3" height="9" fill="#600000" />
<rect x="27" y="18" width="3" height="27" fill="#A81828" />
<rect x="36" y="18" width="6" height="3" fill="#A81828" />
<rect x="42" y="18" width="6" height="3" fill="#B0B0B0" />
<rect x="48" y="18" width="3" height="12" fill="#600000" />
<rect x="51" y="18" width="6" height="3" fill="#B0B0B0" />
<rect x="57" y="18" width="3" height="6" fill="#A81828" />
<rect x="66" y="18" width="3" height="3" fill="#482010" />
<rect x="69" y="18" width="15" height="6" fill="#181010" />
<rect x="36" y="21" width="3" height="15" fill="#A81828" />
<rect x="39" y="21" width="3" height="9" fill="#B0B0B0" />
<rect x="42" y="21" width="3" height="6" fill="#600000" />
<rect x="45" y="21" width="3" height="3" fill="#B0B0B0" />
<rect x="51" y="21" width="3" height="6" fill="#600000" />
<rect x="54" y="21" width="3" height="3" fill="#B0B0B0" />
<rect x="60" y="21" width="9" height="9" fill="#181010" />
<rect x="18" y="24" width="3" height="9" fill="#482010" />
<rect x="45" y="24" width="3" height="6" fill="#600000" />
<rect x="54" y="24" width="6" height="9" fill="#181010" />
<rect x="69" y="24" width="9" height="3" fill="#181010" />
<rect x="21" y="27" width="3" height="15" fill="#600000" />
<rect x="24" y="27" width="3" height="21" fill="#A81828" />
<rect x="42" y="27" width="3" height="6" fill="#B0B0B0" />
<rect x="51" y="27" width="3" height="9" fill="#181010" />
<rect x="69" y="27" width="3" height="3" fill="#181010" />
<rect x="39" y="30" width="3" height="6" fill="#A81828" />
<rect x="45" y="30" width="6" height="9" fill="#181010" />
<rect x="60" y="30" width="3" height="3" fill="#181010" />
<rect x="63" y="30" width="3" height="3" fill="#A06830" />
<rect x="66" y="30" width="6" height="6" fill="#482010" />
<rect x="15" y="33" width="3" height="3" fill="#482010" />
<rect x="18" y="33" width="3" height="3" fill="#600000" />
<rect x="42" y="33" width="3" height="9" fill="#181010" />
<rect x="54" y="33" width="3" height="3" fill="#181010" />
<rect x="57" y="33" width="3" height="3" fill="#A06830" />
<rect x="60" y="33" width="6" height="39" fill="#B88858" />
<rect x="72" y="33" width="6" height="6" fill="#404040" />
<rect x="12" y="36" width="3" height="3" fill="#482010" />
<rect x="15" y="36" width="3" height="3" fill="#600000" />
<rect x="18" y="36" width="3" height="15" fill="#A81828" />
<rect x="36" y="36" width="3" height="3" fill="#600000" />
<rect x="39" y="36" width="3" height="6" fill="#181010" />
<rect x="51" y="36" width="9" height="9" fill="#B88858" />
<rect x="66" y="36" width="3" height="3" fill="#A06830" />
<rect x="69" y="36" width="3" height="3" fill="#482010" />
<rect x="78" y="36" width="9" height="6" fill="#404040" />
<rect x="9" y="39" width="3" height="6" fill="#482010" />
<rect x="12" y="39" width="3" height="6" fill="#600000" />
<rect x="15" y="39" width="3" height="15" fill="#A81828" />
<rect x="33" y="39" width="3" height="3" fill="#600000" />
<rect x="36" y="39" width="3" height="6" fill="#181010" />
<rect x="45" y="39" width="6" height="24" fill="#B88858" />
<rect x="66" y="39" width="3" height="3" fill="#B88858" />
<rect x="69" y="39" width="3" height="12" fill="#181010" />
<rect x="72" y="39" width="6" height="9" fill="#B0B0B0" />
<rect x="87" y="39" width="6" height="6" fill="#404040" />
<rect x="21" y="42" width="3" height="6" fill="#A81828" />
<rect x="30" y="42" width="3" height="3" fill="#600000" />
<rect x="33" y="42" width="3" height="3" fill="#181010" />
<rect x="39" y="42" width="6" height="24" fill="#B88858" />
<rect x="66" y="42" width="3" height="3" fill="#A06830" />
<rect x="78" y="42" width="9" height="6" fill="#B0B0B0" />
<rect x="6" y="45" width="3" height="12" fill="#482010" />
<rect x="9" y="45" width="3" height="9" fill="#600000" />
<rect x="12" y="45" width="3" height="9" fill="#A81828" />
<rect x="27" y="45" width="6" height="3" fill="#181010" />
<rect x="33" y="45" width="6" height="12" fill="#B88858" />
<rect x="51" y="45" width="6" height="12" fill="#181010" />
<rect x="57" y="45" width="3" height="24" fill="#B88858" />
<rect x="66" y="45" width="3" height="9" fill="#181010" />
<rect x="87" y="45" width="3" height="9" fill="#B0B0B0" />
<rect x="90" y="45" width="6" height="15" fill="#404040" />
<rect x="21" y="48" width="3" height="3" fill="#600000" />
<rect x="24" y="48" width="3" height="3" fill="#181010" />
<rect x="27" y="48" width="3" height="15" fill="#482010" />
<rect x="30" y="48" width="3" height="9" fill="#B88858" />
<rect x="72" y="48" width="12" height="3" fill="#482010" />
<rect x="84" y="48" width="3" height="3" fill="#B0B0B0" />
<rect x="18" y="51" width="3" height="3" fill="#600000" />
<rect x="21" y="51" width="3" height="3" fill="#181010" />
<rect x="24" y="51" width="3" height="9" fill="#482010" />
<rect x="69" y="51" width="3" height="3" fill="#784010" />
<rect x="72" y="51" width="6" height="18" fill="#B88858" />
<rect x="78" y="51" width="3" height="3" fill="#A06830" />
<rect x="81" y="51" width="6" height="3" fill="#482010" />
<rect x="9" y="54" width="3" height="6" fill="#482010" />
<rect x="12" y="54" width="6" height="3" fill="#600000" />
<rect x="18" y="54" width="3" height="3" fill="#181010" />
<rect x="21" y="54" width="3" height="3" fill="#482010" />
<rect x="66" y="54" width="6" height="18" fill="#B88858" />
<rect x="78" y="54" width="3" height="12" fill="#B88858" />
<rect x="81" y="54" width="3" height="3" fill="#A06830" />
<rect x="84" y="54" width="3" height="12" fill="#482010" />
<rect x="87" y="54" width="3" height="12" fill="#181010" />
<rect x="6" y="57" width="3" height="3" fill="#181010" />
<rect x="12" y="57" width="12" height="6" fill="#B88858" />
<rect x="30" y="57" width="6" height="6" fill="#482010" />
<rect x="36" y="57" width="3" height="24" fill="#B88858" />
<rect x="51" y="57" width="6" height="3" fill="#784010" />
<rect x="81" y="57" width="3" height="6" fill="#B88858" />
<rect x="3" y="60" width="3" height="12" fill="#181010" />
<rect x="6" y="60" width="3" height="9" fill="#482010" />
<rect x="9" y="60" width="3" height="9" fill="#B88858" />
<rect x="24" y="60" width="3" height="18" fill="#B88858" />
<rect x="51" y="60" width="6" height="6" fill="#B88858" />
<rect x="90" y="60" width="3" height="3" fill="#404040" />
<rect x="12" y="63" width="3" height="9" fill="#B88858" />
<rect x="15" y="63" width="6" height="3" fill="#784010" />
<rect x="21" y="63" width="3" height="12" fill="#B88858" />
<rect x="27" y="63" width="3" height="3" fill="#784010" />
<rect x="30" y="63" width="3" height="3" fill="#482010" />
<rect x="33" y="63" width="3" height="18" fill="#B88858" />
<rect x="45" y="63" width="6" height="9" fill="#181010" />
<rect x="81" y="63" width="3" height="3" fill="#A06830" />
<rect x="15" y="66" width="3" height="9" fill="#B88858" />
<rect x="18" y="66" width="3" height="3" fill="#784010" />
<rect x="27" y="66" width="6" height="12" fill="#B88858" />
<rect x="39" y="66" width="3" height="18" fill="#B88858" />
<rect x="42" y="66" width="3" height="6" fill="#181010" />
<rect x="51" y="66" width="3" height="12" fill="#181010" />
<rect x="54" y="66" width="3" height="3" fill="#B88858" />
<rect x="78" y="66" width="3" height="3" fill="#A06830" />
<rect x="81" y="66" width="3" height="3" fill="#482010" />
<rect x="84" y="66" width="3" height="3" fill="#181010" />
<rect x="6" y="69" width="3" height="6" fill="#181010" />
<rect x="9" y="69" width="3" height="3" fill="#482010" />
<rect x="18" y="69" width="3" height="6" fill="#B88858" />
<rect x="54" y="69" width="6" height="15" fill="#181010" />
<rect x="72" y="69" width="3" height="3" fill="#A06830" />
<rect x="75" y="69" width="3" height="3" fill="#784010" />
<rect x="78" y="69" width="3" height="3" fill="#482010" />
<rect x="81" y="69" width="3" height="3" fill="#181010" />
<rect x="9" y="72" width="3" height="6" fill="#181010" />
<rect x="12" y="72" width="3" height="3" fill="#482010" />
<rect x="42" y="72" width="3" height="12" fill="#B88858" />
<rect x="45" y="72" width="3" height="3" fill="#784010" />
<rect x="48" y="72" width="3" height="6" fill="#181010" />
<rect x="60" y="72" width="21" height="3" fill="#181010" />
<rect x="12" y="75" width="3" height="3" fill="#181010" />
<rect x="15" y="75" width="9" height="3" fill="#482010" />
<rect x="45" y="75" width="3" height="12" fill="#B88858" />
<rect x="60" y="75" width="15" height="3" fill="#181010" />
<rect x="75" y="75" width="3" height="6" fill="#600000" />
<rect x="78" y="75" width="3" height="6" fill="#482010" />
<rect x="15" y="78" width="9" height="3" fill="#181010" />
<rect x="24" y="78" width="6" height="3" fill="#482010" />
<rect x="30" y="78" width="3" height="3" fill="#B88858" />
<rect x="48" y="78" width="6" height="9" fill="#B88858" />
<rect x="60" y="78" width="12" height="3" fill="#181010" />
<rect x="72" y="78" width="3" height="3" fill="#A81828" />
<rect x="24" y="81" width="6" height="3" fill="#181010" />
<rect x="30" y="81" width="6" height="3" fill="#482010" />
<rect x="36" y="81" width="3" height="3" fill="#784010" />
<rect x="60" y="81" width="3" height="3" fill="#181010" />
<rect x="63" y="81" width="3" height="3" fill="#B88858" />
<rect x="66" y="81" width="3" height="3" fill="#482010" />
<rect x="69" y="81" width="3" height="6" fill="#A81828" />
<rect x="72" y="81" width="3" height="6" fill="#600000" />
<rect x="75" y="81" width="3" height="6" fill="#482010" />
<rect x="21" y="84" width="6" height="3" fill="#482010" />
<rect x="27" y="84" width="6" height="3" fill="#600000" />
<rect x="33" y="84" width="12" height="3" fill="#482010" />
<rect x="54" y="84" width="3" height="3" fill="#784010" />
<rect x="57" y="84" width="3" height="3" fill="#181010" />
<rect x="60" y="84" width="3" height="3" fill="#B88858" />
<rect x="63" y="84" width="3" height="6" fill="#482010" />
<rect x="66" y="84" width="3" height="6" fill="#A81828" />
<rect x="18" y="87" width="3" height="3" fill="#482010" />
<rect x="21" y="87" width="6" height="3" fill="#600000" />
<rect x="27" y="87" width="9" height="6" fill="#A81828" />
<rect x="36" y="87" width="9" height="6" fill="#2830C8" />
<rect x="45" y="87" width="3" height="3" fill="#482010" />
<rect x="48" y="87" width="3" height="3" fill="#784010" />
<rect x="51" y="87" width="9" height="3" fill="#B88858" />
<rect x="60" y="87" width="3" height="3" fill="#482010" />
<rect x="69" y="87" width="3" height="6" fill="#600000" />
<rect x="72" y="87" width="3" height="6" fill="#482010" />
<rect x="15" y="90" width="3" height="3" fill="#482010" />
<rect x="18" y="90" width="3" height="3" fill="#600000" />
<rect x="21" y="90" width="6" height="12" fill="#A81828" />
<rect x="45" y="90" width="3" height="9" fill="#2830C8" />
<rect x="48" y="90" width="12" height="3" fill="#482010" />
<rect x="60" y="90" width="3" height="3" fill="#600000" />
<rect x="63" y="90" width="6" height="3" fill="#202028" />
<rect x="12" y="93" width="3" height="6" fill="#482010" />
<rect x="15" y="93" width="3" height="6" fill="#600000" />
<rect x="18" y="93" width="3" height="12" fill="#A81828" />
<rect x="27" y="93" width="6" height="3" fill="#A81828" />
<rect x="33" y="93" width="3" height="3" fill="#600000" />
<rect x="36" y="93" width="3" height="3" fill="#202028" />
<rect x="39" y="93" width="6" height="3" fill="#2830C8" />
<rect x="48" y="93" width="3" height="9" fill="#2830C8" />
<rect x="51" y="93" width="3" height="3" fill="#202028" />
<rect x="54" y="93" width="9" height="3" fill="#A81828" />
<rect x="63" y="93" width="3" height="3" fill="#600000" />
<rect x="66" y="93" width="6" height="6" fill="#202028" />
<rect x="27" y="96" width="3" height="3" fill="#A81828" />
<rect x="30" y="96" width="15" height="3" fill="#404040" />
<rect x="51" y="96" width="3" height="6" fill="#2830C8" />
<rect x="54" y="96" width="12" height="3" fill="#202028" />
<rect x="72" y="96" width="3" height="3" fill="#202028" />
<rect x="9" y="99" width="3" height="12" fill="#482010" />
<rect x="12" y="99" width="3" height="9" fill="#600000" />
<rect x="15" y="99" width="3" height="9" fill="#A81828" />
<rect x="27" y="99" width="15" height="9" fill="#B0B0B0" />
<rect x="42" y="99" width="3" height="3" fill="#686868" />
<rect x="45" y="99" width="3" height="21" fill="#404040" />
<rect x="54" y="99" width="15" height="3" fill="#2830C8" />
<rect x="69" y="99" width="3" height="9" fill="#C09830" />
<rect x="72" y="99" width="6" height="3" fill="#482010" />
<rect x="21" y="102" width="6" height="9" fill="#B0B0B0" />
<rect x="42" y="102" width="3" height="3" fill="#B0B0B0" />
<rect x="48" y="102" width="3" height="3" fill="#784010" />
<rect x="51" y="102" width="6" height="12" fill="#C09830" />
<rect x="57" y="102" width="12" height="3" fill="#2830C8" />
<rect x="72" y="102" width="3" height="3" fill="#C09830" />
<rect x="75" y="102" width="3" height="3" fill="#482010" />
<rect x="78" y="102" width="9" height="6" fill="#181010" />
<rect x="18" y="105" width="3" height="12" fill="#B0B0B0" />
<rect x="42" y="105" width="3" height="3" fill="#404040" />
<rect x="48" y="105" width="3" height="6" fill="#C09830" />
<rect x="57" y="105" width="3" height="6" fill="#C09830" />
<rect x="60" y="105" width="9" height="6" fill="#2830C8" />
<rect x="72" y="105" width="3" height="3" fill="#202028" />
<rect x="75" y="105" width="3" height="3" fill="#181010" />
<rect x="87" y="105" width="3" height="6" fill="#181010" />
<rect x="12" y="108" width="3" height="3" fill="#482010" />
<rect x="15" y="108" width="3" height="9" fill="#404040" />
<rect x="27" y="108" width="3" height="6" fill="#B0B0B0" />
<rect x="30" y="108" width="3" height="3" fill="#686868" />
<rect x="33" y="108" width="9" height="3" fill="#B0B0B0" />
<rect x="42" y="108" width="3" height="3" fill="#686868" />
<rect x="69" y="108" width="3" height="3" fill="#202028" />
<rect x="72" y="108" width="3" height="18" fill="#482010" />
<rect x="75" y="108" width="6" height="6" fill="#784010" />
<rect x="81" y="108" width="6" height="9" fill="#482010" />
<rect x="90" y="108" width="3" height="21" fill="#181010" />
<rect x="12" y="111" width="3" height="6" fill="#181010" />
<rect x="21" y="111" width="3" height="9" fill="#B0B0B0" />
<rect x="24" y="111" width="3" height="3" fill="#686868" />
<rect x="30" y="111" width="3" height="9" fill="#B0B0B0" />
<rect x="33" y="111" width="3" height="3" fill="#686868" />
<rect x="36" y="111" width="9" height="6" fill="#B0B0B0" />
<rect x="48" y="111" width="3" height="3" fill="#784010" />
<rect x="57" y="111" width="9" height="12" fill="#2830C8" />
<rect x="66" y="111" width="3" height="15" fill="#202028" />
<rect x="69" y="111" width="3" height="12" fill="#482010" />
<rect x="87" y="111" width="3" height="3" fill="#482010" />
<rect x="93" y="111" width="3" height="12" fill="#181010" />
<rect x="9" y="114" width="3" height="12" fill="#181010" />
<rect x="24" y="114" width="3" height="9" fill="#B0B0B0" />
<rect x="27" y="114" width="3" height="3" fill="#686868" />
<rect x="33" y="114" width="3" height="6" fill="#B0B0B0" />
<rect x="48" y="114" width="9" height="15" fill="#2830C8" />
<rect x="75" y="114" width="6" height="12" fill="#482010" />
<rect x="87" y="114" width="3" height="3" fill="#A06830" />
<rect x="6" y="117" width="3" height="24" fill="#181010" />
<rect x="12" y="117" width="3" height="12" fill="#784010" />
<rect x="15" y="117" width="3" height="6" fill="#482010" />
<rect x="18" y="117" width="3" height="3" fill="#404040" />
<rect x="27" y="117" width="3" height="6" fill="#B0B0B0" />
<rect x="36" y="117" width="3" height="3" fill="#B0B0B0" />
<rect x="39" y="117" width="6" height="3" fill="#404040" />
<rect x="81" y="117" width="3" height="9" fill="#482010" />
<rect x="84" y="117" width="3" height="3" fill="#A06830" />
<rect x="87" y="117" width="3" height="6" fill="#784010" />
<rect x="18" y="120" width="3" height="3" fill="#2830C8" />
<rect x="21" y="120" width="3" height="3" fill="#404040" />
<rect x="30" y="120" width="12" height="3" fill="#404040" />
<rect x="42" y="120" width="6" height="12" fill="#2830C8" />
<rect x="84" y="120" width="3" height="9" fill="#784010" />
<rect x="15" y="123" width="9" height="3" fill="#181010" />
<rect x="24" y="123" width="9" height="3" fill="#404040" />
<rect x="33" y="123" width="9" height="9" fill="#2830C8" />
<rect x="57" y="123" width="6" height="6" fill="#2830C8" />
<rect x="63" y="123" width="3" height="6" fill="#202028" />
<rect x="69" y="123" width="3" height="3" fill="#181010" />
<rect x="87" y="123" width="3" height="15" fill="#181010" />
<rect x="3" y="126" width="3" height="12" fill="#181010" />
<rect x="9" y="126" width="3" height="12" fill="#784010" />
<rect x="15" y="126" width="6" height="18" fill="#482010" />
<rect x="21" y="126" width="3" height="3" fill="#181010" />
<rect x="24" y="126" width="3" height="6" fill="#202028" />
<rect x="27" y="126" width="6" height="3" fill="#2830C8" />
<rect x="66" y="126" width="6" height="12" fill="#482010" />
<rect x="72" y="126" width="9" height="3" fill="#181010" />
<rect x="81" y="126" width="3" height="3" fill="#A06830" />
<rect x="12" y="129" width="3" height="9" fill="#482010" />
<rect x="21" y="129" width="3" height="15" fill="#482010" />
<rect x="27" y="129" width="3" height="3" fill="#202028" />
<rect x="30" y="129" width="3" height="3" fill="#2830C8" />
<rect x="48" y="129" width="15" height="3" fill="#202028" />
<rect x="63" y="129" width="3" height="6" fill="#482010" />
<rect x="72" y="129" width="9" height="6" fill="#482010" />
<rect x="81" y="129" width="3" height="9" fill="#784010" />
<rect x="84" y="129" width="3" height="12" fill="#181010" />
<rect x="24" y="132" width="6" height="9" fill="#482010" />
<rect x="30" y="132" width="30" height="3" fill="#202028" />
<rect x="60" y="132" width="3" height="6" fill="#181010" />
<rect x="30" y="135" width="3" height="9" fill="#181010" />
<rect x="33" y="135" width="18" height="3" fill="#202028" />
<rect x="63" y="135" width="3" height="6" fill="#181010" />
<rect x="72" y="135" width="6" height="6" fill="#482010" />
<rect x="78" y="135" width="3" height="3" fill="#A06830" />
<rect x="9" y="138" width="3" height="6" fill="#181010" />
<rect x="12" y="138" width="3" height="3" fill="#784010" />
<rect x="33" y="138" width="3" height="3" fill="#181010" />
<rect x="66" y="138" width="3" height="6" fill="#181010" />
<rect x="69" y="138" width="3" height="3" fill="#482010" />
<rect x="78" y="138" width="3" height="3" fill="#784010" />
<rect x="81" y="138" width="3" height="6" fill="#181010" />
<rect x="12" y="141" width="3" height="6" fill="#181010" />
<rect x="24" y="141" width="3" height="3" fill="#482010" />
<rect x="27" y="141" width="3" height="6" fill="#181010" />
<rect x="69" y="141" width="12" height="6" fill="#181010" />
<rect x="15" y="144" width="12" height="6" fill="#181010" />
</svg>