<?xml version="1.0" encoding="UTF-8" ?>
<svg version="1.1" width="96" height="168" xmlns="http://www.w3.org/2000/svg" shape-rendering="crispEdges">
<rect x="48" y="3" width="15" height="3" fill="#482010" />
<rect x="42" y="6" width="6" height="3" fill="#482010" />
<rect x="48" y="6" width="12" height="3" fill="#600000" />
<rect x="60" y="6" width="9" height="3" fill="#482010" />
<rect x="36" y="9" width="6" height="3" fill="#482010" />
<rect x="42" y="9" width="6" height="3" fill="#600000" />
<rect x="48" y="9" width="12" height="6" fill="#A81828" />
<rect x="60" y="9" width="6" height="3" fill="#600000" />
<rect x="66" y="9" width="3" height="3" fill="#482010" />
<rect x="33" y="12" width="6" height="3" fill="#482010" />
<rect x="39" y="12" width="3" height="3" fill="#600000" />
<rect x="42" y="12" width="6" height="21" fill="#A81828" />
<rect x="60" y="12" width="6" height="3" fill="#A81828" />
<rect x="66" y="12" width="3" height="6" fill="#600000" />
<rect x="69" y="12" width="3" height="6" fill="#482010" />
<rect x="30" y="15" width="6" height="3" fill="#482010" />
<rect x="36" y="15" width="3" height="3" fill="#600000" />
<rect x="39" y="15" width="3" height="21" fill="#A81828" />
<rect x="48" y="15" width="3" height="3" fill="#A81828" />
<rect x="51" y="15" width="12" height="3" fill="#B0B0B0" />
<rect x="63" y="15" width="3" height="3" fill="#A81828" />
<rect x="27" y="18" width="6" height="3" fill="#482010" />
<rect x="33" y="18" width="3" height="3" fill="#600000" />
<rect x="36" y="18" width="3" height="21" fill="#A81828" />
<rect x="48" y="18" width="6" height="9" fill="#B0B0B0" />
<rect x="54" y="18" width="3" height="9" fill="#600000" />
<rect x="57" y="18" width="3" height="3" fill="#B0B0B0" />
<rect x="60" y="18" width="3" height="9" fill="#600000" />
<rect x="63" y="18" width="3" height="9" fill="#B0B0B0" />
<rect x="66" y="18" width="3" height="6" fill="#A81828" />
<rect x="69" y="18" width="3" height="6" fill="#600000" />
<rect x="72" y="18" width="3" height="6" fill="#482010" />
<rect x="24" y="21" width="6" height="3" fill="#482010" />
<rect x="30" y="21" width="3" height="3" fill="#600000" />
<rect x="33" y="21" width="3" height="18" fill="#A81828" />
<rect x="57" y="21" width="3" height="6" fill="#600000" />
<rect x="24" y="24" width="3" height="6" fill="#482010" />
<rect x="27" y="24" width="3" height="6" fill="#600000" />
<rect x="30" y="24" width="3" height="18" fill="#A81828" />
<rect x="66" y="24" width="3" height="3" fill="#600000" />
<rect x="69" y="24" width="18" height="9" fill="#181010" />
<rect x="21" y="27" width="3" height="9" fill="#482010" />
<rect x="48" y="27" width="3" height="6" fill="#A81828" />
<rect x="51" y="27" width="6" height="3" fill="#B0B0B0" />
<rect x="57" y="27" width="12" height="9" fill="#181010" />
<rect x="87" y="27" width="3" height="3" fill="#181010" />
<rect x="24" y="30" width="3" height="6" fill="#600000" />
<rect x="27" y="30" width="3" height="15" fill="#A81828" />
<rect x="51" y="30" width="6" height="9" fill="#181010" />
<rect x="12" y="33" width="9" height="3" fill="#482010" />
<rect x="42" y="33" width="3" height="3" fill="#A81828" />
<rect x="45" y="33" width="3" height="3" fill="#600000" />
<rect x="48" y="33" width="3" height="6" fill="#181010" />
<rect x="69" y="33" width="9" height="3" fill="#181010" />
<rect x="9" y="36" width="6" height="3" fill="#482010" />
<rect x="15" y="36" width="9" height="3" fill="#600000" />
<rect x="24" y="36" width="3" height="9" fill="#A81828" />
<rect x="39" y="36" width="3" height="3" fill="#600000" />
<rect x="42" y="36" width="6" height="6" fill="#181010" />
<rect x="57" y="36" width="12" height="3" fill="#B88858" />
<rect x="69" y="36" width="3" height="6" fill="#482010" />
<rect x="72" y="36" width="3" height="9" fill="#181010" />
<rect x="6" y="39" width="6" height="3" fill="#482010" />
<rect x="12" y="39" width="3" height="3" fill="#600000" />
<rect x="15" y="39" width="6" height="9" fill="#A81828" />
<rect x="21" y="39" width="3" height="3" fill="#600000" />
<rect x="33" y="39" width="3" height="3" fill="#600000" />
<rect x="36" y="39" width="6" height="3" fill="#181010" />
<rect x="48" y="39" width="18" height="3" fill="#B88858" />
<rect x="66" y="39" width="3" height="3" fill="#A06830" />
<rect x="6" y="42" width="3" height="12" fill="#482010" />
<rect x="9" y="42" width="3" height="9" fill="#600000" />
<rect x="12" y="42" width="3" height="9" fill="#A81828" />
<rect x="21" y="42" width="3" height="6" fill="#A81828" />
<rect x="30" y="42" width="9" height="3" fill="#181010" />
<rect x="39" y="42" width="3" height="3" fill="#784010" />
<rect x="42" y="42" width="9" height="18" fill="#B88858" />
<rect x="51" y="42" width="6" height="12" fill="#181010" />
<rect x="57" y="42" width="9" height="24" fill="#B88858" />
<rect x="66" y="42" width="6" height="6" fill="#181010" />
<rect x="75" y="42" width="6" height="3" fill="#181010" />
<rect x="24" y="45" width="3" height="3" fill="#600000" />
<rect x="27" y="45" width="6" height="3" fill="#181010" />
<rect x="33" y="45" width="3" height="3" fill="#784010" />
<rect x="36" y="45" width="6" height="33" fill="#B88858" />
<rect x="72" y="45" width="9" height="3" fill="#482010" />
<rect x="81" y="45" width="6" height="3" fill="#181010" />
<rect x="15" y="48" width="3" height="3" fill="#A81828" />
<rect x="18" y="48" width="3" height="3" fill="#600000" />
<rect x="21" y="48" width="6" height="3" fill="#181010" />
<rect x="27" y="48" width="3" height="12" fill="#482010" />
<rect x="30" y="48" width="6" height="6" fill="#B88858" />
<rect x="66" y="48" width="3" height="3" fill="#181010" />
<rect x="69" y="48" width="3" height="3" fill="#784010" />
<rect x="72" y="48" width="6" height="18" fill="#B88858" />
<rect x="78" y="48" width="3" height="3" fill="#A06830" />
<rect x="81" y="48" width="3" height="3" fill="#482010" />
<rect x="84" y="48" width="3" height="3" fill="#181010" />
<rect x="9" y="51" width="3" height="6" fill="#482010" />
<rect x="12" y="51" width="6" height="3" fill="#600000" />
<rect x="18" y="51" width="6" height="3" fill="#181010" />
<rect x="24" y="51" width="3" height="6" fill="#482010" />
<rect x="66" y="51" width="6" height="18" fill="#B88858" />
<rect x="78" y="51" width="3" height="12" fill="#B88858" />
<rect x="81" y="51" width="3" height="3" fill="#A06830" />
<rect x="84" y="51" width="3" height="12" fill="#482010" />
<rect x="87" y="51" width="3" height="12" fill="#181010" />
<rect x="6" y="54" width="3" height="3" fill="#181010" />
<rect x="12" y="54" width="12" height="6" fill="#B88858" />
<rect x="30" y="54" width="6" height="6" fill="#482010" />
<rect x="51" y="54" width="6" height="3" fill="#784010" />
<rect x="81" y="54" width="3" height="6" fill="#B88858" />
<rect x="3" y="57" width="3" height="12" fill="#181010" />
<rect x="6" y="57" width="3" height="9" fill="#482010" />
<rect x="9" y="57" width="3" height="9" fill="#B88858" />
<rect x="24" y="57" width="3" height="18" fill="#B88858" />
<rect x="51" y="57" width="6" height="6" fill="#B88858" />
<rect x="12" y="60" width="3" height="9" fill="#B88858" />
<rect x="15" y="60" width="6" height="3" fill="#784010" />
<rect x="21" y="60" width="3" height="12" fill="#B88858" />
<rect x="27" y="60" width="3" height="3" fill="#784010" />
<rect x="30" y="60" width="3" height="3" fill="#482010" />
<rect x="33" y="60" width="3" height="18" fill="#B88858" />
<rect x="42" y="60" width="3" height="3" fill="#B88858" />
<rect x="45" y="60" width="6" height="9" fill="#181010" />
<rect x="81" y="60" width="3" height="3" fill="#A06830" />
<rect x="15" y="63" width="3" height="9" fill="#B88858" />
<rect x="18" y="63" width="3" height="3" fill="#784010" />
<rect x="27" y="63" width="6" height="12" fill="#B88858" />
<rect x="42" y="63" width="3" height="6" fill="#181010" />
<rect x="51" y="63" width="3" height="12" fill="#181010" />
<rect x="54" y="63" width="3" height="3" fill="#B88858" />
<rect x="78" y="63" width="3" height="3" fill="#A06830" />
<rect x="81" y="63" width="3" height="3" fill="#482010" />
<rect x="84" y="63" width="3" height="3" fill="#181010" />
<rect x="6" y="66" width="3" height="6" fill="#181010" />
<rect x="9" y="66" width="3" height="3" fill="#482010" />
<rect x="18" y="66" width="3" height="6" fill="#B88858" />
<rect x="54" y="66" width="6" height="12" fill="#181010" />
<rect x="60" y="66" width="6" height="3" fill="#B88858" />
<rect x="72" y="66" width="3" height="3" fill="#A06830" />
<rect x="75" y="66" width="3" height="3" fill="#784010" />
<rect x="78" y="66" width="3" height="3" fill="#482010" />
<rect x="81" y="66" width="3" height="3" fill="#181010" />
<rect x="9" y="69" width="3" height="6" fill="#181010" />
<rect x="12" y="69" width="3" height="3" fill="#482010" />
<rect x="42" y="69" width="3" height="12" fill="#B88858" />
<rect x="45" y="69" width="3" height="3" fill="#784010" />
<rect x="48" y="69" width="3" height="6" fill="#181010" />
<rect x="60" y="69" width="21" height="3" fill="#181010" />
<rect x="12" y="72" width="3" height="3" fill="#181010" />
<rect x="15" y="72" width="9" height="3" fill="#482010" />
<rect x="45" y="72" width="3" height="9" fill="#B88858" />
<rect x="60" y="72" width="18" height="3" fill="#181010" />
<rect x="15" y="75" width="9" height="3" fill="#181010" />
<rect x="24" y="75" width="6" height="3" fill="#482010" />
<rect x="30" y="75" width="3" height="3" fill="#B88858" />
<rect x="48" y="75" width="6" height="6" fill="#B88858" />
<rect x="60" y="75" width="15" height="3" fill="#181010" />
<rect x="24" y="78" width="6" height="3" fill="#181010" />
<rect x="30" y="78" width="6" height="3" fill="#482010" />
<rect x="36" y="78" width="3" height="3" fill="#784010" />
<rect x="39" y="78" width="3" height="3" fill="#B88858" />
<rect x="54" y="78" width="6" height="3" fill="#B88858" />
<rect x="60" y="78" width="3" height="3" fill="#784010" />
<rect x="63" y="78" width="3" height="6" fill="#482010" />
<rect x="66" y="78" width="3" height="3" fill="#181010" />
<rect x="30" y="81" width="6" height="3" fill="#181010" />
<rect x="36" y="81" width="27" height="3" fill="#482010" />
<rect x="30" y="84" width="3" height="3" fill="#482010" />
<rect x="33" y="84" width="3" height="3" fill="#600000" />
<rect x="36" y="84" width="3" height="6" fill="#202028" />
<rect x="39" y="84" width="6" height="6" fill="#2830C8" />
<rect x="45" y="84" width="3" height="3" fill="#202028" />
<rect x="48" y="84" width="6" height="3" fill="#A81828" />
<rect x="54" y="84" width="6" height="3" fill="#600000" />
<rect x="60" y="84" width="6" height="3" fill="#202028" />
<rect x="27" y="87" width="3" height="3" fill="#482010" />
<rect x="30" y="87" width="3" height="3" fill="#600000" />
<rect x="33" y="87" width="3" height="15" fill="#A81828" />
<rect x="45" y="87" width="3" height="42" fill="#2830C8" />
<rect x="48" y="87" width="3" height="3" fill="#202028" />
<rect x="51" y="87" width="9" height="3" fill="#A81828" />
<rect x="60" y="87" width="3" height="3" fill="#600000" />
<rect x="63" y="87" width="6" height="3" fill="#202028" />
<rect x="24" y="90" width="3" height="3" fill="#482010" />
<rect x="27" y="90" width="3" height="3" fill="#600000" />
<rect x="30" y="90" width="3" height="12" fill="#A81828" />
<rect x="36" y="90" width="3" height="9" fill="#A81828" />
<rect x="39" y="90" width="3" height="9" fill="#202028" />
<rect x="42" y="90" width="3" height="15" fill="#2830C8" />
<rect x="48" y="90" width="3" height="9" fill="#2830C8" />
<rect x="51" y="90" width="3" height="3" fill="#202028" />
<rect x="54" y="90" width="9" height="3" fill="#A81828" />
<rect x="63" y="90" width="3" height="3" fill="#600000" />
<rect x="66" y="90" width="6" height="6" fill="#202028" />
<rect x="21" y="93" width="3" height="3" fill="#482010" />
<rect x="24" y="93" width="3" height="6" fill="#600000" />
<rect x="27" y="93" width="3" height="9" fill="#A81828" />
<rect x="51" y="93" width="3" height="6" fill="#2830C8" />
<rect x="54" y="93" width="12" height="3" fill="#202028" />
<rect x="72" y="93" width="3" height="3" fill="#202028" />
<rect x="18" y="96" width="3" height="3" fill="#482010" />
<rect x="21" y="96" width="3" height="6" fill="#600000" />
<rect x="54" y="96" width="15" height="3" fill="#2830C8" />
<rect x="69" y="96" width="3" height="9" fill="#C09830" />
<rect x="72" y="96" width="6" height="3" fill="#482010" />
<rect x="15" y="99" width="3" height="3" fill="#181010" />
<rect x="18" y="99" width="3" height="3" fill="#404040" />
<rect x="24" y="99" width="3" height="3" fill="#A81828" />
<rect x="36" y="99" width="3" height="3" fill="#600000" />
<rect x="39" y="99" width="3" height="3" fill="#2830C8" />
<rect x="48" y="99" width="3" height="3" fill="#784010" />
<rect x="51" y="99" width="6" height="12" fill="#C09830" />
<rect x="57" y="99" width="12" height="3" fill="#2830C8" />
<rect x="72" y="99" width="3" height="3" fill="#C09830" />
<rect x="75" y="99" width="6" height="3" fill="#482010" />
<rect x="81" y="99" width="9" height="6" fill="#181010" />
<rect x="12" y="102" width="3" height="6" fill="#181010" />
<rect x="15" y="102" width="3" height="6" fill="#404040" />
<rect x="18" y="102" width="21" height="6" fill="#B0B0B0" />
<rect x="39" y="102" width="3" height="6" fill="#404040" />
<rect x="48" y="102" width="3" height="6" fill="#C09830" />
<rect x="57" y="102" width="3" height="6" fill="#C09830" />
<rect x="60" y="102" width="9" height="6" fill="#2830C8" />
<rect x="72" y="102" width="3" height="3" fill="#202028" />
<rect x="75" y="102" width="6" height="3" fill="#181010" />
<rect x="90" y="102" width="3" height="27" fill="#181010" />
<rect x="9" y="105" width="3" height="18" fill="#181010" />
<rect x="42" y="105" width="3" height="15" fill="#404040" />
<rect x="69" y="105" width="3" height="3" fill="#202028" />
<rect x="72" y="105" width="3" height="18" fill="#482010" />
<rect x="75" y="105" width="6" height="6" fill="#784010" />
<rect x="81" y="105" width="6" height="9" fill="#482010" />
<rect x="87" y="105" width="3" height="3" fill="#181010" />
<rect x="93" y="105" width="3" height="15" fill="#181010" />
<rect x="12" y="108" width="3" height="12" fill="#404040" />
<rect x="15" y="108" width="6" height="9" fill="#B0B0B0" />
<rect x="21" y="108" width="3" height="6" fill="#686868" />
<rect x="24" y="108" width="18" height="3" fill="#B0B0B0" />
<rect x="48" y="108" width="3" height="3" fill="#784010" />
<rect x="57" y="108" width="9" height="12" fill="#2830C8" />
<rect x="66" y="108" width="3" height="15" fill="#202028" />
<rect x="69" y="108" width="3" height="12" fill="#482010" />
<rect x="87" y="108" width="3" height="3" fill="#482010" />
<rect x="6" y="111" width="3" height="30" fill="#181010" />
<rect x="24" y="111" width="3" height="12" fill="#B0B0B0" />
<rect x="27" y="111" width="3" height="6" fill="#686868" />
<rect x="30" y="111" width="12" height="6" fill="#B0B0B0" />
<rect x="48" y="111" width="9" height="18" fill="#2830C8" />
<rect x="75" y="111" width="6" height="12" fill="#482010" />
<rect x="87" y="111" width="3" height="3" fill="#A06830" />
<rect x="21" y="114" width="3" height="6" fill="#B0B0B0" />
<rect x="81" y="114" width="3" height="9" fill="#482010" />
<rect x="84" y="114" width="3" height="3" fill="#A06830" />
<rect x="87" y="114" width="3" height="6" fill="#784010" />
<rect x="15" y="117" width="3" height="6" fill="#404040" />
<rect x="18" y="117" width="3" height="3" fill="#B0B0B0" />
<rect x="27" y="117" width="9" height="6" fill="#B0B0B0" />
<rect x="36" y="117" width="3" height="3" fill="#686868" />
<rect x="39" y="117" width="3" height="6" fill="#404040" />
<rect x="84" y="117" width="3" height="9" fill="#784010" />
<rect x="12" y="120" width="3" height="3" fill="#784010" />
<rect x="18" y="120" width="3" height="6" fill="#404040" />
<rect x="21" y="120" width="3" height="3" fill="#686868" />
<rect x="36" y="120" width="3" height="6" fill="#404040" />
<rect x="42" y="120" width="3" height="9" fill="#2830C8" />
<rect x="57" y="120" width="6" height="6" fill="#2830C8" />
<rect x="63" y="120" width="3" height="6" fill="#202028" />
<rect x="69" y="120" width="3" height="3" fill="#181010" />
<rect x="87" y="120" width="3" height="18" fill="#181010" />
<rect x="3" y="123" width="3" height="12" fill="#181010" />
<rect x="9" y="123" width="3" height="12" fill="#784010" />
<rect x="12" y="123" width="3" height="12" fill="#482010" />
<rect x="15" y="123" width="3" height="3" fill="#181010" />
<rect x="21" y="123" width="15" height="3" fill="#404040" />
<rect x="39" y="123" width="3" height="6" fill="#2830C8" />
<rect x="66" y="123" width="6" height="12" fill="#482010" />
<rect x="72" y="123" width="9" height="3" fill="#181010" />
<rect x="81" y="123" width="3" height="3" fill="#A06830" />
<rect x="15" y="126" width="9" height="15" fill="#482010" />
<rect x="24" y="126" width="6" height="3" fill="#202028" />
<rect x="30" y="126" width="9" height="3" fill="#2830C8" />
<rect x="57" y="126" width="6" height="3" fill="#202028" />
<rect x="63" y="126" width="3" height="6" fill="#482010" />
<rect x="72" y="126" width="9" height="6" fill="#482010" />
<rect x="81" y="126" width="3" height="9" fill="#784010" />
<rect x="84" y="126" width="3" height="15" fill="#181010" />
<rect x="24" y="129" width="3" height="9" fill="#482010" />
<rect x="27" y="129" width="33" height="3" fill="#202028" />
<rect x="60" y="129" width="3" height="6" fill="#181010" />
<rect x="27" y="132" width="6" height="9" fill="#181010" />
<rect x="33" y="132" width="27" height="3" fill="#202028" />
<rect x="63" y="132" width="3" height="6" fill="#181010" />
<rect x="72" y="132" width="6" height="6" fill="#482010" />
<rect x="78" y="132" width="3" height="3" fill="#A06830" />
<rect x="9" y="135" width="3" height="9" fill="#181010" />
<rect x="12" y="135" width="3" height="3" fill="#784010" />
<rect x="66" y="135" width="3" height="6" fill="#181010" />
<rect x="69" y="135" width="3" height="3" fill="#482010" />
<rect x="78" y="135" width="3" height="3" fill="#784010" />
<rect x="81" y="135" width="3" height="9" fill="#181010" />
<rect x="12" y="138" width="3" height="9" fill="#181010" />
<rect x="24" y="138" width="3" height="9" fill="#181010" />
<rect x="69" y="138" width="12" height="6" fill="#181010" />
<rect x="15" y="141" width="9" height="6" fill="#181010" />
<rect x="27" y="141" width="3" height="3" fill="#181010" />
</svg>