<?xml version="1.0" encoding="UTF-8" ?>
<svg version="1.1" width="114" height="168" xmlns="http://www.w3.org/2000/svg" shape-rendering="crispEdges">
<rect x="57" y="3" width="15" height="3" fill="#482010" />
<rect x="51" y="6" width="6" height="3" fill="#482010" />
<rect x="57" y="6" width="15" height="3" fill="#600000" />
<rect x="72" y="6" width="6" height="3" fill="#482010" />
<rect x="45" y="9" width="6" height="3" fill="#482010" />
<rect x="51" y="9" width="6" height="3" fill="#600000" />
<rect x="57" y="9" width="12" height="6" fill="#A81828" />
<rect x="69" y="9" width="9" height="3" fill="#600000" />
<rect x="78" y="9" width="3" height="9" fill="#482010" />
<rect x="42" y="12" width="3" height="3" fill="#482010" />
<rect x="45" y="12" width="6" height="3" fill="#600000" />
<rect x="51" y="12" width="6" height="21" fill="#A81828" />
<rect x="69" y="12" width="6" height="3" fill="#A81828" />
<rect x="75" y="12" width="3" height="6" fill="#600000" />
<rect x="39" y="15" width="3" height="3" fill="#482010" />
<rect x="42" y="15" width="6" height="3" fill="#600000" />
<rect x="48" y="15" width="3" height="21" fill="#A81828" />
<rect x="57" y="15" width="3" height="3" fill="#A81828" />
<rect x="60" y="15" width="12" height="3" fill="#B0B0B0" />
<rect x="72" y="15" width="3" height="3" fill="#A81828" />
<rect x="36" y="18" width="3" height="3" fill="#482010" />
<rect x="39" y="18" width="6" height="3" fill="#600000" />
<rect x="45" y="18" width="3" height="21" fill="#A81828" />
<rect x="57" y="18" width="6" height="9" fill="#B0B0B0" />
<rect x="63" y="18" width="3" height="9" fill="#600000" />
<rect x="66" y="18" width="3" height="3" fill="#B0B0B0" />
<rect x="69" y="18" width="3" height="9" fill="#600000" />
<rect x="72" y="18" width="3" height="9" fill="#B0B0B0" />
<rect x="75" y="18" width="3" height="6" fill="#A81828" />
<rect x="78" y="18" width="3" height="6" fill="#600000" />
<rect x="81" y="18" width="3" height="6" fill="#482010" />
<rect x="33" y="21" width="3" height="6" fill="#482010" />
<rect x="36" y="21" width="6" height="3" fill="#600000" />
<rect x="42" y="21" width="3" height="18" fill="#A81828" />
<rect x="66" y="21" width="3" height="6" fill="#600000" />
<rect x="36" y="24" width="3" height="6" fill="#600000" />
<rect x="39" y="24" width="3" height="18" fill="#A81828" />
<rect x="75" y="24" width="3" height="3" fill="#600000" />
<rect x="78" y="24" width="15" height="12" fill="#181010" />
<rect x="30" y="27" width="3" height="9" fill="#482010" />
<rect x="33" y="27" width="3" height="9" fill="#600000" />
<rect x="57" y="27" width="3" height="6" fill="#A81828" />
<rect x="60" y="27" width="6" height="3" fill="#B0B0B0" />
<rect x="66" y="27" width="12" height="9" fill="#181010" />
<rect x="93" y="27" width="6" height="3" fill="#181010" />
<rect x="36" y="30" width="3" height="15" fill="#A81828" />
<rect x="60" y="30" width="6" height="9" fill="#181010" />
<rect x="93" y="30" width="3" height="6" fill="#181010" />
<rect x="21" y="33" width="9" height="3" fill="#482010" />
<rect x="51" y="33" width="3" height="3" fill="#A81828" />
<rect x="54" y="33" width="3" height="3" fill="#600000" />
<rect x="57" y="33" width="3" height="6" fill="#181010" />
<rect x="18" y="36" width="3" height="6" fill="#482010" />
<rect x="21" y="36" width="12" height="3" fill="#600000" />
<rect x="33" y="36" width="3" height="9" fill="#A81828" />
<rect x="48" y="36" width="3" height="3" fill="#600000" />
<rect x="51" y="36" width="6" height="6" fill="#181010" />
<rect x="66" y="36" width="12" height="3" fill="#B88858" />
<rect x="78" y="36" width="3" height="12" fill="#181010" />
<rect x="81" y="36" width="6" height="9" fill="#B0B0B0" />
<rect x="87" y="36" width="9" height="3" fill="#404040" />
<rect x="96" y="36" width="6" height="3" fill="#181010" />
<rect x="21" y="39" width="3" height="3" fill="#600000" />
<rect x="24" y="39" width="6" height="9" fill="#A81828" />
<rect x="30" y="39" width="3" height="3" fill="#600000" />
<rect x="42" y="39" width="3" height="3" fill="#600000" />
<rect x="45" y="39" width="6" height="3" fill="#181010" />
<rect x="57" y="39" width="18" height="3" fill="#B88858" />
<rect x="75" y="39" width="3" height="3" fill="#A06830" />
<rect x="87" y="39" width="9" height="6" fill="#B0B0B0" />
<rect x="96" y="39" width="6" height="3" fill="#404040" />
<rect x="102" y="39" width="3" height="15" fill="#181010" />
<rect x="15" y="42" width="3" height="9" fill="#482010" />
<rect x="18" y="42" width="3" height="12" fill="#600000" />
<rect x="21" y="42" width="3" height="9" fill="#A81828" />
<rect x="30" y="42" width="3" height="6" fill="#A81828" />
<rect x="39" y="42" width="9" height="3" fill="#181010" />
<rect x="48" y="42" width="3" height="3" fill="#784010" />
<rect x="51" y="42" width="9" height="18" fill="#B88858" />
<rect x="60" y="42" width="6" height="12" fill="#181010" />
<rect x="66" y="42" width="9" height="24" fill="#B88858" />
<rect x="75" y="42" width="3" height="9" fill="#181010" />
<rect x="96" y="42" width="3" height="9" fill="#B0B0B0" />
<rect x="99" y="42" width="3" height="12" fill="#404040" />
<rect x="33" y="45" width="3" height="3" fill="#600000" />
<rect x="36" y="45" width="6" height="3" fill="#181010" />
<rect x="42" y="45" width="3" height="3" fill="#784010" />
<rect x="45" y="45" width="6" height="33" fill="#B88858" />
<rect x="81" y="45" width="12" height="3" fill="#482010" />
<rect x="93" y="45" width="3" height="3" fill="#B0B0B0" />
<rect x="24" y="48" width="3" height="3" fill="#A81828" />
<rect x="27" y="48" width="3" height="3" fill="#600000" />
<rect x="30" y="48" width="6" height="3" fill="#181010" />
<rect x="36" y="48" width="3" height="12" fill="#482010" />
<rect x="39" y="48" width="6" height="6" fill="#B88858" />
<rect x="78" y="48" width="3" height="3" fill="#784010" />
<rect x="81" y="48" width="6" height="18" fill="#B88858" />
<rect x="87" y="48" width="3" height="3" fill="#A06830" />
<rect x="90" y="48" width="6" height="3" fill="#482010" />
<rect x="15" y="51" width="3" height="3" fill="#181010" />
<rect x="21" y="51" width="6" height="3" fill="#600000" />
<rect x="27" y="51" width="6" height="3" fill="#181010" />
<rect x="33" y="51" width="3" height="6" fill="#482010" />
<rect x="75" y="51" width="6" height="18" fill="#B88858" />
<rect x="87" y="51" width="3" height="12" fill="#B88858" />
<rect x="90" y="51" width="3" height="3" fill="#A06830" />
<rect x="93" y="51" width="6" height="6" fill="#482010" />
<rect x="12" y="54" width="3" height="15" fill="#181010" />
<rect x="15" y="54" width="6" height="3" fill="#482010" />
<rect x="21" y="54" width="12" height="6" fill="#B88858" />
<rect x="39" y="54" width="6" height="6" fill="#482010" />
<rect x="60" y="54" width="6" height="3" fill="#784010" />
<rect x="90" y="54" width="3" height="6" fill="#B88858" />
<rect x="99" y="54" width="3" height="3" fill="#181010" />
<rect x="15" y="57" width="3" height="12" fill="#482010" />
<rect x="18" y="57" width="3" height="9" fill="#B88858" />
<rect x="33" y="57" width="3" height="18" fill="#B88858" />
<rect x="60" y="57" width="6" height="6" fill="#B88858" />
<rect x="93" y="57" width="3" height="6" fill="#482010" />
<rect x="96" y="57" width="3" height="6" fill="#181010" />
<rect x="21" y="60" width="3" height="9" fill="#B88858" />
<rect x="24" y="60" width="6" height="3" fill="#784010" />
<rect x="30" y="60" width="3" height="12" fill="#B88858" />
<rect x="36" y="60" width="3" height="3" fill="#784010" />
<rect x="39" y="60" width="3" height="3" fill="#482010" />
<rect x="42" y="60" width="3" height="18" fill="#B88858" />
<rect x="51" y="60" width="3" height="3" fill="#B88858" />
<rect x="54" y="60" width="6" height="9" fill="#181010" />
<rect x="90" y="60" width="3" height="3" fill="#A06830" />
<rect x="24" y="63" width="3" height="9" fill="#B88858" />
<rect x="27" y="63" width="3" height="3" fill="#784010" />
<rect x="36" y="63" width="6" height="12" fill="#B88858" />
<rect x="51" y="63" width="3" height="6" fill="#181010" />
<rect x="60" y="63" width="3" height="12" fill="#181010" />
<rect x="63" y="63" width="3" height="3" fill="#B88858" />
<rect x="87" y="63" width="3" height="3" fill="#A06830" />
<rect x="90" y="63" width="3" height="3" fill="#482010" />
<rect x="93" y="63" width="3" height="3" fill="#181010" />
<rect x="18" y="66" width="3" height="6" fill="#482010" />
<rect x="27" y="66" width="3" height="6" fill="#B88858" />
<rect x="63" y="66" width="6" height="15" fill="#181010" />
<rect x="69" y="66" width="6" height="3" fill="#B88858" />
<rect x="81" y="66" width="3" height="3" fill="#A06830" />
<rect x="84" y="66" width="3" height="3" fill="#784010" />
<rect x="87" y="66" width="3" height="3" fill="#482010" />
<rect x="90" y="66" width="3" height="3" fill="#181010" />
<rect x="15" y="69" width="3" height="3" fill="#181010" />
<rect x="21" y="69" width="3" height="3" fill="#482010" />
<rect x="51" y="69" width="3" height="12" fill="#B88858" />
<rect x="54" y="69" width="3" height="3" fill="#784010" />
<rect x="57" y="69" width="3" height="6" fill="#181010" />
<rect x="69" y="69" width="21" height="3" fill="#181010" />
<rect x="90" y="69" width="3" height="3" fill="#482010" />
<rect x="18" y="72" width="6" height="3" fill="#181010" />
<rect x="24" y="72" width="9" height="3" fill="#482010" />
<rect x="54" y="72" width="3" height="12" fill="#B88858" />
<rect x="69" y="72" width="18" height="3" fill="#181010" />
<rect x="87" y="72" width="3" height="3" fill="#482010" />
<rect x="24" y="75" width="9" height="3" fill="#181010" />
<rect x="33" y="75" width="6" height="3" fill="#482010" />
<rect x="39" y="75" width="3" height="3" fill="#B88858" />
<rect x="57" y="75" width="6" height="9" fill="#B88858" />
<rect x="69" y="75" width="12" height="3" fill="#181010" />
<rect x="81" y="75" width="3" height="3" fill="#600000" />
<rect x="84" y="75" width="3" height="3" fill="#482010" />
<rect x="33" y="78" width="6" height="3" fill="#181010" />
<rect x="39" y="78" width="6" height="6" fill="#482010" />
<rect x="45" y="78" width="3" height="3" fill="#784010" />
<rect x="48" y="78" width="3" height="3" fill="#B88858" />
<rect x="69" y="78" width="3" height="3" fill="#181010" />
<rect x="72" y="78" width="3" height="3" fill="#B88858" />
<rect x="75" y="78" width="3" height="3" fill="#482010" />
<rect x="78" y="78" width="3" height="6" fill="#600000" />
<rect x="81" y="78" width="3" height="6" fill="#482010" />
<rect x="45" y="81" width="9" height="3" fill="#482010" />
<rect x="63" y="81" width="3" height="3" fill="#784010" />
<rect x="66" y="81" width="3" height="3" fill="#181010" />
<rect x="69" y="81" width="3" height="3" fill="#B88858" />
<rect x="72" y="81" width="3" height="3" fill="#482010" />
<rect x="75" y="81" width="3" height="3" fill="#A81828" />
<rect x="30" y="84" width="9" height="3" fill="#482010" />
<rect x="39" y="84" width="6" height="3" fill="#600000" />
<rect x="45" y="84" width="3" height="15" fill="#202028" />
<rect x="48" y="84" width="6" height="51" fill="#2830C8" />
<rect x="54" y="84" width="3" height="3" fill="#482010" />
<rect x="57" y="84" width="3" height="3" fill="#784010" />
<rect x="60" y="84" width="9" height="3" fill="#B88858" />
<rect x="69" y="84" width="3" height="3" fill="#482010" />
<rect x="72" y="84" width="3" height="6" fill="#202028" />
<rect x="75" y="84" width="3" height="3" fill="#600000" />
<rect x="78" y="84" width="3" height="6" fill="#482010" />
<rect x="87" y="84" width="21" height="6" fill="#181010" />
<rect x="18" y="87" width="12" height="3" fill="#482010" />
<rect x="30" y="87" width="9" height="3" fill="#600000" />
<rect x="39" y="87" width="6" height="6" fill="#A81828" />
<rect x="54" y="87" width="3" height="12" fill="#2830C8" />
<rect x="57" y="87" width="12" height="3" fill="#482010" />
<rect x="69" y="87" width="3" height="3" fill="#600000" />
<rect x="75" y="87" width="3" height="9" fill="#202028" />
<rect x="84" y="87" width="3" height="39" fill="#181010" />
<rect x="108" y="87" width="3" height="33" fill="#181010" />
<rect x="6" y="90" width="9" height="3" fill="#181010" />
<rect x="15" y="90" width="3" height="3" fill="#404040" />
<rect x="18" y="90" width="12" height="3" fill="#600000" />
<rect x="30" y="90" width="9" height="9" fill="#A81828" />
<rect x="57" y="90" width="3" height="9" fill="#2830C8" />
<rect x="60" y="90" width="3" height="3" fill="#202028" />
<rect x="63" y="90" width="9" height="3" fill="#A81828" />
<rect x="72" y="90" width="3" height="3" fill="#600000" />
<rect x="78" y="90" width="3" height="6" fill="#202028" />
<rect x="81" y="90" width="3" height="6" fill="#181010" />
<rect x="87" y="90" width="3" height="3" fill="#181010" />
<rect x="90" y="90" width="12" height="3" fill="#482010" />
<rect x="102" y="90" width="3" height="3" fill="#A06830" />
<rect x="105" y="90" width="3" height="3" fill="#181010" />
<rect x="111" y="90" width="3" height="18" fill="#181010" />
<rect x="0" y="93" width="6" height="3" fill="#181010" />
<rect x="6" y="93" width="3" height="3" fill="#404040" />
<rect x="9" y="93" width="3" height="3" fill="#686868" />
<rect x="12" y="93" width="9" height="6" fill="#B0B0B0" />
<rect x="21" y="93" width="9" height="3" fill="#A81828" />
<rect x="39" y="93" width="3" height="3" fill="#A81828" />
<rect x="42" y="93" width="3" height="6" fill="#600000" />
<rect x="60" y="93" width="3" height="6" fill="#2830C8" />
<rect x="63" y="93" width="12" height="3" fill="#202028" />
<rect x="87" y="93" width="12" height="12" fill="#482010" />
<rect x="99" y="93" width="3" height="15" fill="#A06830" />
<rect x="102" y="93" width="6" height="12" fill="#784010" />
<rect x="0" y="96" width="3" height="12" fill="#404040" />
<rect x="3" y="96" width="3" height="3" fill="#686868" />
<rect x="6" y="96" width="6" height="6" fill="#B0B0B0" />
<rect x="21" y="96" width="3" height="21" fill="#B0B0B0" />
<rect x="24" y="96" width="6" height="6" fill="#A81828" />
<rect x="39" y="96" width="3" height="6" fill="#600000" />
<rect x="63" y="96" width="15" height="6" fill="#2830C8" />
<rect x="78" y="96" width="3" height="6" fill="#C09830" />
<rect x="81" y="96" width="3" height="3" fill="#482010" />
<rect x="3" y="99" width="3" height="6" fill="#B0B0B0" />
<rect x="12" y="99" width="3" height="3" fill="#686868" />
<rect x="15" y="99" width="6" height="6" fill="#B0B0B0" />
<rect x="30" y="99" width="6" height="3" fill="#A81828" />
<rect x="36" y="99" width="3" height="3" fill="#600000" />
<rect x="42" y="99" width="3" height="3" fill="#202028" />
<rect x="45" y="99" width="3" height="36" fill="#2830C8" />
<rect x="54" y="99" width="3" height="3" fill="#784010" />
<rect x="57" y="99" width="6" height="12" fill="#C09830" />
<rect x="81" y="99" width="3" height="6" fill="#C09830" />
<rect x="6" y="102" width="3" height="12" fill="#B0B0B0" />
<rect x="9" y="102" width="3" height="3" fill="#686868" />
<rect x="12" y="102" width="3" height="6" fill="#B0B0B0" />
<rect x="24" y="102" width="3" height="12" fill="#B0B0B0" />
<rect x="27" y="102" width="6" height="3" fill="#A81828" />
<rect x="33" y="102" width="3" height="6" fill="#600000" />
<rect x="36" y="102" width="6" height="3" fill="#202028" />
<rect x="42" y="102" width="3" height="30" fill="#2830C8" />
<rect x="54" y="102" width="3" height="6" fill="#C09830" />
<rect x="63" y="102" width="3" height="6" fill="#C09830" />
<rect x="66" y="102" width="12" height="21" fill="#2830C8" />
<rect x="78" y="102" width="3" height="3" fill="#784010" />
<rect x="3" y="105" width="3" height="3" fill="#686868" />
<rect x="9" y="105" width="3" height="15" fill="#B0B0B0" />
<rect x="15" y="105" width="3" height="3" fill="#686868" />
<rect x="18" y="105" width="3" height="12" fill="#B0B0B0" />
<rect x="27" y="105" width="3" height="3" fill="#A81828" />
<rect x="30" y="105" width="3" height="6" fill="#600000" />
<rect x="36" y="105" width="6" height="15" fill="#2830C8" />
<rect x="78" y="105" width="3" height="15" fill="#2830C8" />
<rect x="81" y="105" width="3" height="18" fill="#202028" />
<rect x="87" y="105" width="3" height="3" fill="#181010" />
<rect x="90" y="105" width="9" height="3" fill="#482010" />
<rect x="102" y="105" width="3" height="6" fill="#784010" />
<rect x="105" y="105" width="3" height="6" fill="#482010" />
<rect x="0" y="108" width="3" height="9" fill="#181010" />
<rect x="3" y="108" width="3" height="9" fill="#404040" />
<rect x="12" y="108" width="3" height="3" fill="#686868" />
<rect x="15" y="108" width="3" height="9" fill="#B0B0B0" />
<rect x="27" y="108" width="3" height="9" fill="#404040" />
<rect x="33" y="108" width="3" height="18" fill="#202028" />
<rect x="54" y="108" width="3" height="3" fill="#784010" />
<rect x="63" y="108" width="3" height="21" fill="#2830C8" />
<rect x="87" y="108" width="9" height="12" fill="#482010" />
<rect x="96" y="108" width="6" height="3" fill="#784010" />
<rect x="12" y="111" width="3" height="9" fill="#B0B0B0" />
<rect x="30" y="111" width="3" height="9" fill="#202028" />
<rect x="54" y="111" width="9" height="18" fill="#2830C8" />
<rect x="96" y="111" width="3" height="9" fill="#A06830" />
<rect x="99" y="111" width="6" height="3" fill="#482010" />
<rect x="105" y="111" width="3" height="15" fill="#181010" />
<rect x="6" y="114" width="3" height="3" fill="#686868" />
<rect x="24" y="114" width="3" height="3" fill="#686868" />
<rect x="99" y="114" width="6" height="6" fill="#784010" />
<rect x="3" y="117" width="3" height="6" fill="#181010" />
<rect x="6" y="117" width="3" height="6" fill="#404040" />
<rect x="15" y="117" width="3" height="3" fill="#686868" />
<rect x="18" y="117" width="3" height="6" fill="#404040" />
<rect x="21" y="117" width="3" height="3" fill="#686868" />
<rect x="24" y="117" width="3" height="3" fill="#404040" />
<rect x="27" y="117" width="3" height="3" fill="#181010" />
<rect x="9" y="120" width="9" height="3" fill="#404040" />
<rect x="21" y="120" width="3" height="3" fill="#404040" />
<rect x="24" y="120" width="3" height="3" fill="#181010" />
<rect x="36" y="120" width="3" height="9" fill="#202028" />
<rect x="39" y="120" width="3" height="9" fill="#2830C8" />
<rect x="78" y="120" width="3" height="9" fill="#202028" />
<rect x="87" y="120" width="6" height="9" fill="#181010" />
<rect x="93" y="120" width="6" height="3" fill="#482010" />
<rect x="99" y="120" width="3" height="3" fill="#A06830" />
<rect x="102" y="120" width="3" height="9" fill="#181010" />
<rect x="6" y="123" width="18" height="3" fill="#181010" />
<rect x="30" y="123" width="3" height="36" fill="#181010" />
<rect x="66" y="123" width="6" height="3" fill="#2830C8" />
<rect x="72" y="123" width="6" height="6" fill="#202028" />
<rect x="81" y="123" width="3" height="3" fill="#181010" />
<rect x="93" y="123" width="9" height="6" fill="#181010" />
<rect x="33" y="126" width="3" height="3" fill="#181010" />
<rect x="66" y="126" width="6" height="6" fill="#202028" />
<rect x="27" y="129" width="3" height="21" fill="#181010" />
<rect x="33" y="129" width="3" height="3" fill="#784010" />
<rect x="36" y="129" width="3" height="21" fill="#482010" />
<rect x="39" y="129" width="3" height="3" fill="#202028" />
<rect x="54" y="129" width="6" height="3" fill="#2830C8" />
<rect x="60" y="129" width="6" height="6" fill="#202028" />
<rect x="72" y="129" width="3" height="3" fill="#202028" />
<rect x="33" y="132" width="3" height="12" fill="#A06830" />
<rect x="39" y="132" width="3" height="24" fill="#482010" />
<rect x="42" y="132" width="3" height="3" fill="#181010" />
<rect x="54" y="132" width="6" height="6" fill="#202028" />
<rect x="42" y="135" width="6" height="3" fill="#482010" />
<rect x="48" y="135" width="6" height="3" fill="#202028" />
<rect x="42" y="138" width="18" height="3" fill="#181010" />
<rect x="42" y="141" width="12" height="6" fill="#482010" />
<rect x="54" y="141" width="6" height="3" fill="#181010" />
<rect x="33" y="144" width="3" height="3" fill="#784010" />
<rect x="54" y="144" width="3" height="12" fill="#482010" />
<rect x="57" y="144" width="6" height="12" fill="#181010" />
<rect x="33" y="147" width="3" height="3" fill="#A06830" />
<rect x="42" y="147" width="3" height="12" fill="#482010" />
<rect x="45" y="147" width="6" height="6" fill="#A06830" />
<rect x="51" y="147" width="3" height="12" fill="#482010" />
<rect x="33" y="150" width="6" height="3" fill="#784010" />
<rect x="33" y="153" width="3" height="9" fill="#181010" />
<rect x="36" y="153" width="3" height="3" fill="#A06830" />
<rect x="45" y="153" width="6" height="6" fill="#482010" />
<rect x="36" y="156" width="3" height="3" fill="#784010" />
<rect x="39" y="156" width="3" height="3" fill="#A06830" />
<rect x="54" y="156" width="6" height="6" fill="#181010" />
<rect x="36" y="159" width="18" height="6" fill="#181010" />
<rect x="54" y="162" width="3" height="3" fill="#181010" />
</svg>