<?xml version="1.0" encoding="UTF-8" ?>
<svg version="1.1" width="480" height="48" xmlns="http://www.w3.org/2000/svg" shape-rendering="crispEdges">
<rect x="18" y="0" width="3" height="3" fill="#E73531" />
<rect x="21" y="0" width="6" height="9" fill="#E74C39" />
<rect x="27" y="0" width="3" height="3" fill="#E73531" />
<rect x="78" y="0" width="9" height="3" fill="#C6292C" />
<rect x="87" y="0" width="3" height="3" fill="#AD182D" />
<rect x="138" y="0" width="12" height="3" fill="#AD182D" />
<rect x="198" y="0" width="3" height="3" fill="#C6292C" />
<rect x="201" y="0" width="6" height="3" fill="#941833" />
<rect x="258" y="0" width="12" height="3" fill="#BD212B" />
<rect x="321" y="0" width="6" height="3" fill="#BD212B" />
<rect x="327" y="0" width="3" height="48" fill="#941833" />
<rect x="378" y="0" width="12" height="3" fill="#BD212B" />
<rect x="438" y="0" width="6" height="3" fill="#DE2123" />
<rect x="444" y="0" width="6" height="3" fill="#BD212B" />
<rect x="12" y="3" width="9" height="6" fill="#E74C39" />
<rect x="27" y="3" width="6" height="6" fill="#E74C39" />
<rect x="33" y="3" width="3" height="3" fill="#DE2123" />
<rect x="72" y="3" width="15" height="3" fill="#E73531" />
<rect x="87" y="3" width="3" height="3" fill="#BD212B" />
<rect x="90" y="3" width="6" height="3" fill="#AD182D" />
<rect x="135" y="3" width="3" height="3" fill="#AD182D" />
<rect x="138" y="3" width="6" height="3" fill="#E73531" />
<rect x="144" y="3" width="3" height="3" fill="#C6292C" />
<rect x="147" y="3" width="6" height="3" fill="#AD182D" />
<rect x="198" y="3" width="3" height="21" fill="#EF6852" />
<rect x="201" y="3" width="3" height="3" fill="#BD212B" />
<rect x="204" y="3" width="3" height="6" fill="#AD182D" />
<rect x="207" y="3" width="3" height="3" fill="#941833" />
<rect x="258" y="3" width="12" height="3" fill="#DE2123" />
<rect x="318" y="3" width="9" height="3" fill="#DE2123" />
<rect x="375" y="3" width="9" height="3" fill="#DE2123" />
<rect x="384" y="3" width="9" height="6" fill="#AD182D" />
<rect x="432" y="3" width="6" height="3" fill="#DE2123" />
<rect x="438" y="3" width="3" height="3" fill="#BD212B" />
<rect x="441" y="3" width="12" height="6" fill="#C6292C" />
<rect x="453" y="3" width="3" height="3" fill="#BD212B" />
<rect x="9" y="6" width="3" height="6" fill="#E74C39" />
<rect x="33" y="6" width="6" height="6" fill="#E74C39" />
<rect x="69" y="6" width="3" height="3" fill="#E73531" />
<rect x="72" y="6" width="18" height="3" fill="#E74C39" />
<rect x="90" y="6" width="3" height="3" fill="#E73531" />
<rect x="93" y="6" width="3" height="3" fill="#BD212B" />
<rect x="96" y="6" width="3" height="6" fill="#AD182D" />
<rect x="135" y="6" width="12" height="3" fill="#E74C39" />
<rect x="147" y="6" width="3" height="3" fill="#C6292C" />
<rect x="150" y="6" width="6" height="3" fill="#AD182D" />
<rect x="195" y="6" width="3" height="3" fill="#DE2123" />
<rect x="201" y="6" width="3" height="3" fill="#DE2123" />
<rect x="207" y="6" width="3" height="3" fill="#AD182D" />
<rect x="258" y="6" width="12" height="3" fill="#E74C39" />
<rect x="318" y="6" width="6" height="3" fill="#E74C39" />
<rect x="324" y="6" width="3" height="3" fill="#AD182D" />
<rect x="330" y="6" width="3" height="36" fill="#941833" />
<rect x="372" y="6" width="9" height="3" fill="#E73531" />
<rect x="381" y="6" width="3" height="36" fill="#AD182D" />
<rect x="393" y="6" width="3" height="36" fill="#AD182D" />
<rect x="429" y="6" width="6" height="3" fill="#DE2123" />
<rect x="435" y="6" width="3" height="3" fill="#BD212B" />
<rect x="438" y="6" width="3" height="24" fill="#C6292C" />
<rect x="453" y="6" width="3" height="21" fill="#C6292C" />
<rect x="456" y="6" width="3" height="6" fill="#BD212B" />
<rect x="6" y="9" width="3" height="3" fill="#E74C39" />
<rect x="12" y="9" width="6" height="3" fill="#E74C39" />
<rect x="18" y="9" width="3" height="3" fill="#941833" />
<rect x="21" y="9" width="6" height="3" fill="#AD182D" />
<rect x="27" y="9" width="3" height="3" fill="#BD212B" />
<rect x="30" y="9" width="3" height="3" fill="#E74C39" />
<rect x="39" y="9" width="3" height="3" fill="#E74C39" />
<rect x="66" y="9" width="3" height="3" fill="#E73531" />
<rect x="69" y="9" width="9" height="3" fill="#E74C39" />
<rect x="78" y="9" width="3" height="3" fill="#941833" />
<rect x="81" y="9" width="3" height="3" fill="#BD212B" />
<rect x="84" y="9" width="3" height="3" fill="#DE2123" />
<rect x="87" y="9" width="6" height="3" fill="#E74C39" />
<rect x="93" y="9" width="3" height="3" fill="#E73531" />
<rect x="99" y="9" width="3" height="30" fill="#AD182D" />
<rect x="132" y="9" width="6" height="3" fill="#E74C39" />
<rect x="138" y="9" width="6" height="3" fill="#C6292C" />
<rect x="144" y="9" width="3" height="3" fill="#E74C39" />
<rect x="147" y="9" width="3" height="3" fill="#E73531" />
<rect x="150" y="9" width="3" height="3" fill="#C6292C" />
<rect x="153" y="9" width="3" height="33" fill="#AD182D" />
<rect x="195" y="9" width="3" height="3" fill="#E73531" />
<rect x="201" y="9" width="3" height="3" fill="#E73531" />
<rect x="204" y="9" width="6" height="3" fill="#BD212B" />
<rect x="210" y="9" width="3" height="3" fill="#AD182D" />
<rect x="258" y="9" width="12" height="3" fill="#EF6852" />
<rect x="315" y="9" width="3" height="3" fill="#DE2123" />
<rect x="318" y="9" width="6" height="3" fill="#EF6852" />
<rect x="324" y="9" width="3" height="39" fill="#941833" />
<rect x="372" y="9" width="6" height="12" fill="#E74C39" />
<rect x="378" y="9" width="3" height="3" fill="#DE2123" />
<rect x="384" y="9" width="6" height="3" fill="#941833" />
<rect x="390" y="9" width="3" height="36" fill="#AD182D" />
<rect x="426" y="9" width="6" height="3" fill="#E74C39" />
<rect x="432" y="9" width="3" height="6" fill="#BD212B" />
<rect x="435" y="9" width="3" height="18" fill="#C6292C" />
<rect x="441" y="9" width="6" height="3" fill="#AD182D" />
<rect x="447" y="9" width="3" height="3" fill="#BD212B" />
<rect x="450" y="9" width="3" height="21" fill="#C6292C" />
<rect x="459" y="9" width="3" height="27" fill="#BD212B" />
<rect x="3" y="12" width="15" height="6" fill="#EF6852" />
<rect x="18" y="12" width="3" height="24" fill="#AD182D" />
<rect x="21" y="12" width="6" height="6" fill="#EF6852" />
<rect x="27" y="12" width="3" height="27" fill="#E7E7E7" />
<rect x="30" y="12" width="12" height="6" fill="#EF6852" />
<rect x="42" y="12" width="3" height="3" fill="#DE2123" />
<rect x="66" y="12" width="12" height="6" fill="#EF6852" />
<rect x="78" y="12" width="3" height="3" fill="#AD182D" />
<rect x="81" y="12" width="3" height="6" fill="#EF6852" />
<rect x="84" y="12" width="3" height="27" fill="#E7E7E7" />
<rect x="87" y="12" width="9" height="6" fill="#EF6852" />
<rect x="96" y="12" width="3" height="3" fill="#BD212B" />
<rect x="132" y="12" width="9" height="6" fill="#EF6852" />
<rect x="141" y="12" width="3" height="6" fill="#E7E7E7" />
<rect x="144" y="12" width="6" height="6" fill="#EF6852" />
<rect x="150" y="12" width="3" height="3" fill="#DE2123" />
<rect x="156" y="12" width="3" height="24" fill="#AD182D" />
<rect x="195" y="12" width="3" height="6" fill="#EF6852" />
<rect x="201" y="12" width="3" height="12" fill="#EF6852" />
<rect x="204" y="12" width="9" height="3" fill="#DE2123" />
<rect x="258" y="12" width="12" height="3" fill="#E7E7E7" />
<rect x="315" y="12" width="9" height="3" fill="#E7E7E7" />
<rect x="369" y="12" width="3" height="9" fill="#E74C39" />
<rect x="378" y="12" width="3" height="36" fill="#AD182D" />
<rect x="384" y="12" width="3" height="33" fill="#AD182D" />
<rect x="387" y="12" width="3" height="27" fill="#BD212B" />
<rect x="396" y="12" width="3" height="24" fill="#AD182D" />
<rect x="426" y="12" width="3" height="9" fill="#E74C39" />
<rect x="429" y="12" width="3" height="3" fill="#DE2123" />
<rect x="441" y="12" width="3" height="15" fill="#BD212B" />
<rect x="444" y="12" width="3" height="15" fill="#C6292C" />
<rect x="447" y="12" width="3" height="15" fill="#DE2123" />
<rect x="456" y="12" width="3" height="18" fill="#C6292C" />
<rect x="42" y="15" width="3" height="3" fill="#EF6852" />
<rect x="63" y="15" width="3" height="3" fill="#C6292C" />
<rect x="78" y="15" width="3" height="21" fill="#BD212B" />
<rect x="96" y="15" width="3" height="9" fill="#E74C39" />
<rect x="102" y="15" width="3" height="18" fill="#AD182D" />
<rect x="129" y="15" width="3" height="3" fill="#EF6852" />
<rect x="150" y="15" width="3" height="3" fill="#E73531" />
<rect x="204" y="15" width="9" height="6" fill="#BD212B" />
<rect x="258" y="15" width="12" height="6" fill="#EF6852" />
<rect x="315" y="15" width="9" height="6" fill="#EF6852" />
<rect x="423" y="15" width="3" height="6" fill="#E74C39" />
<rect x="429" y="15" width="3" height="21" fill="#BD212B" />
<rect x="432" y="15" width="3" height="15" fill="#C6292C" />
<rect x="462" y="15" width="3" height="18" fill="#BD212B" />
<rect x="0" y="18" width="3" height="3" fill="#E73531" />
<rect x="3" y="18" width="15" height="6" fill="#E74C39" />
<rect x="21" y="18" width="6" height="6" fill="#E74C39" />
<rect x="30" y="18" width="15" height="6" fill="#E74C39" />
<rect x="45" y="18" width="3" height="6" fill="#C6292C" />
<rect x="63" y="18" width="3" height="15" fill="#DE2123" />
<rect x="66" y="18" width="12" height="6" fill="#E74C39" />
<rect x="81" y="18" width="3" height="6" fill="#E74C39" />
<rect x="87" y="18" width="9" height="6" fill="#E74C39" />
<rect x="129" y="18" width="3" height="6" fill="#E73531" />
<rect x="132" y="18" width="9" height="6" fill="#E74C39" />
<rect x="141" y="18" width="3" height="18" fill="#EF6852" />
<rect x="144" y="18" width="9" height="3" fill="#E74C39" />
<rect x="195" y="18" width="3" height="6" fill="#E74C39" />
<rect x="0" y="21" width="3" height="6" fill="#DE2123" />
<rect x="144" y="21" width="6" height="3" fill="#E74C39" />
<rect x="150" y="21" width="3" height="6" fill="#E73531" />
<rect x="204" y="21" width="6" height="3" fill="#BD212B" />
<rect x="210" y="21" width="3" height="9" fill="#AD182D" />
<rect x="258" y="21" width="12" height="6" fill="#E74C39" />
<rect x="315" y="21" width="9" height="6" fill="#E74C39" />
<rect x="369" y="21" width="9" height="9" fill="#E73531" />
<rect x="423" y="21" width="6" height="9" fill="#DE2123" />
<rect x="3" y="24" width="15" height="6" fill="#E73531" />
<rect x="21" y="24" width="6" height="6" fill="#E73531" />
<rect x="30" y="24" width="15" height="3" fill="#E73531" />
<rect x="45" y="24" width="3" height="6" fill="#BD212B" />
<rect x="66" y="24" width="12" height="6" fill="#E73531" />
<rect x="81" y="24" width="3" height="9" fill="#E73531" />
<rect x="87" y="24" width="12" height="6" fill="#E73531" />
<rect x="129" y="24" width="3" height="9" fill="#DE2123" />
<rect x="132" y="24" width="9" height="6" fill="#E73531" />
<rect x="144" y="24" width="6" height="6" fill="#E73531" />
<rect x="195" y="24" width="3" height="6" fill="#E73531" />
<rect x="198" y="24" width="6" height="3" fill="#E74C39" />
<rect x="204" y="24" width="6" height="9" fill="#AD182D" />
<rect x="0" y="27" width="3" height="3" fill="#C6292C" />
<rect x="30" y="27" width="12" height="3" fill="#E73531" />
<rect x="42" y="27" width="3" height="3" fill="#DE2123" />
<rect x="150" y="27" width="3" height="9" fill="#DE2123" />
<rect x="198" y="27" width="3" height="9" fill="#E74C39" />
<rect x="201" y="27" width="3" height="6" fill="#E73531" />
<rect x="258" y="27" width="12" height="6" fill="#E73531" />
<rect x="315" y="27" width="9" height="6" fill="#E73531" />
<rect x="435" y="27" width="3" height="3" fill="#BD212B" />
<rect x="441" y="27" width="3" height="12" fill="#AD182D" />
<rect x="444" y="27" width="3" height="9" fill="#BD212B" />
<rect x="447" y="27" width="3" height="9" fill="#C6292C" />
<rect x="453" y="27" width="3" height="3" fill="#BD212B" />
<rect x="3" y="30" width="3" height="3" fill="#C6292C" />
<rect x="6" y="30" width="3" height="6" fill="#DE2123" />
<rect x="9" y="30" width="3" height="3" fill="#E73531" />
<rect x="12" y="30" width="3" height="3" fill="#DE2123" />
<rect x="15" y="30" width="3" height="3" fill="#E73531" />
<rect x="21" y="30" width="6" height="3" fill="#DE2123" />
<rect x="30" y="30" width="6" height="3" fill="#DE2123" />
<rect x="36" y="30" width="3" height="3" fill="#E73531" />
<rect x="39" y="30" width="3" height="3" fill="#DE2123" />
<rect x="42" y="30" width="3" height="6" fill="#BD212B" />
<rect x="66" y="30" width="3" height="6" fill="#DE2123" />
<rect x="69" y="30" width="3" height="3" fill="#E73531" />
<rect x="72" y="30" width="3" height="3" fill="#DE2123" />
<rect x="75" y="30" width="3" height="3" fill="#E73531" />
<rect x="87" y="30" width="3" height="3" fill="#DE2123" />
<rect x="90" y="30" width="3" height="3" fill="#E73531" />
<rect x="93" y="30" width="3" height="6" fill="#DE2123" />
<rect x="96" y="30" width="3" height="6" fill="#BD212B" />
<rect x="132" y="30" width="9" height="6" fill="#DE2123" />
<rect x="144" y="30" width="6" height="6" fill="#DE2123" />
<rect x="195" y="30" width="3" height="6" fill="#E74C39" />
<rect x="210" y="30" width="3" height="6" fill="#941833" />
<rect x="369" y="30" width="9" height="6" fill="#DE2123" />
<rect x="423" y="30" width="6" height="3" fill="#BD212B" />
<rect x="432" y="30" width="3" height="3" fill="#BD212B" />
<rect x="435" y="30" width="3" height="3" fill="#C6292C" />
<rect x="438" y="30" width="3" height="3" fill="#BD212B" />
<rect x="450" y="30" width="3" height="12" fill="#BD212B" />
<rect x="453" y="30" width="3" height="3" fill="#C6292C" />
<rect x="456" y="30" width="3" height="3" fill="#BD212B" />
<rect x="3" y="33" width="3" height="3" fill="#BD212B" />
<rect x="9" y="33" width="3" height="3" fill="#DE2123" />
<rect x="12" y="33" width="3" height="3" fill="#E73531" />
<rect x="15" y="33" width="3" height="9" fill="#DE2123" />
<rect x="21" y="33" width="6" height="3" fill="#E73531" />
<rect x="30" y="33" width="3" height="9" fill="#DE2123" />
<rect x="33" y="33" width="3" height="3" fill="#E73531" />
<rect x="36" y="33" width="3" height="6" fill="#DE2123" />
<rect x="39" y="33" width="3" height="3" fill="#E73531" />
<rect x="69" y="33" width="3" height="6" fill="#DE2123" />
<rect x="72" y="33" width="3" height="3" fill="#E73531" />
<rect x="75" y="33" width="3" height="9" fill="#DE2123" />
<rect x="81" y="33" width="3" height="3" fill="#DE2123" />
<rect x="87" y="33" width="3" height="3" fill="#E73531" />
<rect x="90" y="33" width="3" height="6" fill="#DE2123" />
<rect x="201" y="33" width="3" height="9" fill="#DE2123" />
<rect x="204" y="33" width="6" height="6" fill="#941833" />
<rect x="258" y="33" width="12" height="3" fill="#DE2123" />
<rect x="315" y="33" width="9" height="3" fill="#DE2123" />
<rect x="426" y="33" width="3" height="3" fill="#BD212B" />
<rect x="432" y="33" width="3" height="3" fill="#C6292C" />
<rect x="435" y="33" width="3" height="6" fill="#BD212B" />
<rect x="438" y="33" width="3" height="3" fill="#C6292C" />
<rect x="453" y="33" width="3" height="9" fill="#BD212B" />
<rect x="456" y="33" width="3" height="6" fill="#C6292C" />
<rect x="6" y="36" width="3" height="3" fill="#BD212B" />
<rect x="9" y="36" width="3" height="3" fill="#E73531" />
<rect x="12" y="36" width="3" height="6" fill="#DE2123" />
<rect x="18" y="36" width="3" height="3" fill="#BD212B" />
<rect x="21" y="36" width="6" height="3" fill="#E7E7E7" />
<rect x="33" y="36" width="3" height="6" fill="#DE2123" />
<rect x="39" y="36" width="3" height="3" fill="#BD212B" />
<rect x="66" y="36" width="3" height="3" fill="#C6292C" />
<rect x="72" y="36" width="3" height="6" fill="#DE2123" />
<rect x="78" y="36" width="3" height="9" fill="#DE2123" />
<rect x="81" y="36" width="3" height="3" fill="#E7E7E7" />
<rect x="87" y="36" width="3" height="6" fill="#DE2123" />
<rect x="93" y="36" width="3" height="3" fill="#BD212B" />
<rect x="96" y="36" width="3" height="6" fill="#AD182D" />
<rect x="132" y="36" width="3" height="3" fill="#DE2123" />
<rect x="135" y="36" width="3" height="6" fill="#E73531" />
<rect x="138" y="36" width="3" height="3" fill="#EF6852" />
<rect x="141" y="36" width="3" height="3" fill="#E7E7E7" />
<rect x="144" y="36" width="3" height="3" fill="#E73531" />
<rect x="147" y="36" width="3" height="6" fill="#DE2123" />
<rect x="150" y="36" width="3" height="3" fill="#C6292C" />
<rect x="195" y="36" width="3" height="6" fill="#DE2123" />
<rect x="198" y="36" width="3" height="3" fill="#E7E7E7" />
<rect x="210" y="36" width="3" height="3" fill="#84213A" />
<rect x="258" y="36" width="12" height="6" fill="#BD212B" />
<rect x="315" y="36" width="3" height="3" fill="#AD182D" />
<rect x="318" y="36" width="6" height="6" fill="#BD212B" />
<rect x="372" y="36" width="6" height="6" fill="#BD212B" />
<rect x="426" y="36" width="9" height="3" fill="#AD182D" />
<rect x="438" y="36" width="3" height="6" fill="#BD212B" />
<rect x="444" y="36" width="3" height="3" fill="#C6292C" />
<rect x="447" y="36" width="3" height="3" fill="#DE2123" />
<rect x="459" y="36" width="3" height="3" fill="#AD182D" />
<rect x="9" y="39" width="3" height="3" fill="#BD212B" />
<rect x="18" y="39" width="12" height="6" fill="#DE2123" />
<rect x="36" y="39" width="3" height="3" fill="#BD212B" />
<rect x="69" y="39" width="3" height="3" fill="#C6292C" />
<rect x="81" y="39" width="6" height="6" fill="#DE2123" />
<rect x="90" y="39" width="3" height="3" fill="#BD212B" />
<rect x="93" y="39" width="3" height="6" fill="#AD182D" />
<rect x="138" y="39" width="6" height="3" fill="#E73531" />
<rect x="144" y="39" width="3" height="6" fill="#DE2123" />
<rect x="150" y="39" width="3" height="6" fill="#AD182D" />
<rect x="198" y="39" width="3" height="6" fill="#E73531" />
<rect x="204" y="39" width="3" height="3" fill="#941833" />
<rect x="207" y="39" width="3" height="6" fill="#84213A" />
<rect x="387" y="39" width="3" height="6" fill="#AD182D" />
<rect x="429" y="39" width="9" height="3" fill="#AD182D" />
<rect x="441" y="39" width="9" height="6" fill="#BD212B" />
<rect x="456" y="39" width="3" height="3" fill="#AD182D" />
<rect x="12" y="42" width="3" height="3" fill="#BD212B" />
<rect x="15" y="42" width="3" height="3" fill="#C6292C" />
<rect x="30" y="42" width="3" height="3" fill="#C6292C" />
<rect x="33" y="42" width="3" height="3" fill="#BD212B" />
<rect x="72" y="42" width="6" height="3" fill="#BD212B" />
<rect x="87" y="42" width="3" height="3" fill="#BD212B" />
<rect x="90" y="42" width="3" height="3" fill="#AD182D" />
<rect x="135" y="42" width="3" height="3" fill="#AD182D" />
<rect x="138" y="42" width="6" height="3" fill="#DE2123" />
<rect x="147" y="42" width="3" height="6" fill="#AD182D" />
<rect x="201" y="42" width="3" height="3" fill="#BD212B" />
<rect x="204" y="42" width="3" height="6" fill="#84213A" />
<rect x="258" y="42" width="12" height="3" fill="#AD182D" />
<rect x="318" y="42" width="6" height="3" fill="#AD182D" />
<rect x="375" y="42" width="3" height="3" fill="#AD182D" />
<rect x="381" y="42" width="3" height="3" fill="#941833" />
<rect x="432" y="42" width="9" height="3" fill="#AD182D" />
<rect x="450" y="42" width="6" height="3" fill="#AD182D" />
<rect x="18" y="45" width="12" height="3" fill="#BD212B" />
<rect x="78" y="45" width="6" height="3" fill="#BD212B" />
<rect x="84" y="45" width="6" height="3" fill="#AD182D" />
<rect x="138" y="45" width="9" height="3" fill="#AD182D" />
<rect x="198" y="45" width="3" height="3" fill="#AD182D" />
<rect x="201" y="45" width="3" height="3" fill="#84213A" />
<rect x="258" y="45" width="12" height="3" fill="#941833" />
<rect x="321" y="45" width="3" height="3" fill="#941833" />
<rect x="381" y="45" width="3" height="3" fill="#AD182D" />
<rect x="384" y="45" width="6" height="3" fill="#941833" />
<rect x="438" y="45" width="12" height="3" fill="#AD182D" />
</svg>