<?xml version="1.0" encoding="UTF-8" ?>
<svg version="1.1" width="96" height="168" xmlns="http://www.w3.org/2000/svg" shape-rendering="crispEdges">
<rect x="45" y="3" width="21" height="3" fill="#482010" />
<rect x="39" y="6" width="6" height="3" fill="#482010" />
<rect x="45" y="6" width="21" height="3" fill="#600000" />
<rect x="66" y="6" width="3" height="3" fill="#482010" />
<rect x="36" y="9" width="3" height="3" fill="#482010" />
<rect x="39" y="9" width="9" height="3" fill="#600000" />
<rect x="48" y="9" width="15" height="39" fill="#A81828" />
<rect x="63" y="9" width="6" height="3" fill="#600000" />
<rect x="69" y="9" width="3" height="6" fill="#482010" />
<rect x="33" y="12" width="3" height="3" fill="#482010" />
<rect x="36" y="12" width="6" height="3" fill="#600000" />
<rect x="42" y="12" width="6" height="48" fill="#A81828" />
<rect x="63" y="12" width="3" height="33" fill="#A81828" />
<rect x="66" y="12" width="3" height="3" fill="#600000" />
<rect x="30" y="15" width="3" height="3" fill="#482010" />
<rect x="33" y="15" width="6" height="3" fill="#600000" />
<rect x="39" y="15" width="3" height="45" fill="#A81828" />
<rect x="66" y="15" width="3" height="24" fill="#A81828" />
<rect x="69" y="15" width="3" height="6" fill="#600000" />
<rect x="72" y="15" width="3" height="3" fill="#482010" />
<rect x="75" y="15" width="9" height="15" fill="#181010" />
<rect x="27" y="18" width="3" height="6" fill="#482010" />
<rect x="30" y="18" width="6" height="6" fill="#600000" />
<rect x="36" y="18" width="3" height="18" fill="#A81828" />
<rect x="72" y="18" width="3" height="9" fill="#600000" />
<rect x="84" y="18" width="3" height="9" fill="#181010" />
<rect x="69" y="21" width="3" height="12" fill="#A81828" />
<rect x="24" y="24" width="3" height="3" fill="#181010" />
<rect x="27" y="24" width="6" height="3" fill="#600000" />
<rect x="33" y="24" width="3" height="12" fill="#A81828" />
<rect x="12" y="27" width="12" height="3" fill="#181010" />
<rect x="24" y="27" width="6" height="15" fill="#600000" />
<rect x="30" y="27" width="3" height="9" fill="#A81828" />
<rect x="72" y="27" width="3" height="12" fill="#181010" />
<rect x="9" y="30" width="3" height="3" fill="#181010" />
<rect x="12" y="30" width="12" height="3" fill="#404040" />
<rect x="75" y="30" width="6" height="3" fill="#181010" />
<rect x="6" y="33" width="3" height="18" fill="#181010" />
<rect x="9" y="33" width="6" height="3" fill="#404040" />
<rect x="15" y="33" width="9" height="3" fill="#B0B0B0" />
<rect x="69" y="33" width="3" height="9" fill="#181010" />
<rect x="75" y="33" width="3" height="9" fill="#181010" />
<rect x="9" y="36" width="3" height="9" fill="#404040" />
<rect x="12" y="36" width="9" height="3" fill="#B0B0B0" />
<rect x="21" y="36" width="3" height="9" fill="#600000" />
<rect x="30" y="36" width="9" height="3" fill="#600000" />
<rect x="12" y="39" width="6" height="3" fill="#B0B0B0" />
<rect x="18" y="39" width="3" height="9" fill="#600000" />
<rect x="30" y="39" width="9" height="24" fill="#A81828" />
<rect x="66" y="39" width="3" height="6" fill="#181010" />
<rect x="72" y="39" width="3" height="9" fill="#482010" />
<rect x="78" y="39" width="9" height="3" fill="#181010" />
<rect x="12" y="42" width="3" height="3" fill="#B0B0B0" />
<rect x="15" y="42" width="3" height="18" fill="#600000" />
<rect x="24" y="42" width="6" height="21" fill="#A81828" />
<rect x="69" y="42" width="3" height="18" fill="#784010" />
<rect x="75" y="42" width="12" height="3" fill="#482010" />
<rect x="87" y="42" width="3" height="3" fill="#181010" />
<rect x="9" y="45" width="3" height="9" fill="#482010" />
<rect x="12" y="45" width="3" height="12" fill="#600000" />
<rect x="21" y="45" width="3" height="18" fill="#A81828" />
<rect x="63" y="45" width="3" height="3" fill="#181010" />
<rect x="66" y="45" width="3" height="12" fill="#784010" />
<rect x="75" y="45" width="3" height="3" fill="#482010" />
<rect x="78" y="45" width="6" height="12" fill="#B88858" />
<rect x="84" y="45" width="6" height="3" fill="#482010" />
<rect x="90" y="45" width="3" height="21" fill="#181010" />
<rect x="18" y="48" width="3" height="12" fill="#A81828" />
<rect x="48" y="48" width="12" height="3" fill="#A81828" />
<rect x="60" y="48" width="3" height="3" fill="#181010" />
<rect x="63" y="48" width="3" height="6" fill="#784010" />
<rect x="72" y="48" width="6" height="3" fill="#B88858" />
<rect x="84" y="48" width="3" height="15" fill="#B88858" />
<rect x="87" y="48" width="3" height="18" fill="#482010" />
<rect x="48" y="51" width="9" height="3" fill="#A81828" />
<rect x="57" y="51" width="3" height="3" fill="#181010" />
<rect x="60" y="51" width="3" height="3" fill="#784010" />
<rect x="72" y="51" width="3" height="15" fill="#784010" />
<rect x="75" y="51" width="3" height="6" fill="#B88858" />
<rect x="6" y="54" width="6" height="3" fill="#181010" />
<rect x="48" y="54" width="6" height="3" fill="#A81828" />
<rect x="54" y="54" width="3" height="3" fill="#600000" />
<rect x="57" y="54" width="9" height="3" fill="#482010" />
<rect x="3" y="57" width="3" height="15" fill="#181010" />
<rect x="6" y="57" width="3" height="15" fill="#482010" />
<rect x="9" y="57" width="6" height="12" fill="#B88858" />
<rect x="48" y="57" width="6" height="3" fill="#600000" />
<rect x="54" y="57" width="3" height="3" fill="#784010" />
<rect x="57" y="57" width="9" height="18" fill="#B88858" />
<rect x="66" y="57" width="3" height="3" fill="#482010" />
<rect x="75" y="57" width="3" height="9" fill="#784010" />
<rect x="78" y="57" width="3" height="21" fill="#181010" />
<rect x="81" y="57" width="3" height="3" fill="#B88858" />
<rect x="15" y="60" width="3" height="9" fill="#784010" />
<rect x="18" y="60" width="3" height="3" fill="#600000" />
<rect x="39" y="60" width="9" height="3" fill="#600000" />
<rect x="48" y="60" width="6" height="24" fill="#784010" />
<rect x="54" y="60" width="3" height="12" fill="#B88858" />
<rect x="66" y="60" width="3" height="12" fill="#B88858" />
<rect x="69" y="60" width="3" height="12" fill="#482010" />
<rect x="81" y="60" width="3" height="12" fill="#181010" />
<rect x="18" y="63" width="3" height="12" fill="#784010" />
<rect x="21" y="63" width="18" height="3" fill="#600000" />
<rect x="39" y="63" width="9" height="18" fill="#784010" />
<rect x="84" y="63" width="3" height="3" fill="#482010" />
<rect x="21" y="66" width="18" height="12" fill="#784010" />
<rect x="72" y="66" width="6" height="6" fill="#B88858" />
<rect x="84" y="66" width="6" height="3" fill="#181010" />
<rect x="9" y="69" width="3" height="6" fill="#482010" />
<rect x="12" y="69" width="3" height="3" fill="#B88858" />
<rect x="15" y="69" width="3" height="24" fill="#482010" />
<rect x="6" y="72" width="3" height="3" fill="#181010" />
<rect x="12" y="72" width="3" height="3" fill="#482010" />
<rect x="54" y="72" width="3" height="12" fill="#784010" />
<rect x="66" y="72" width="3" height="3" fill="#482010" />
<rect x="69" y="72" width="6" height="6" fill="#B88858" />
<rect x="75" y="72" width="3" height="6" fill="#482010" />
<rect x="9" y="75" width="6" height="3" fill="#181010" />
<rect x="18" y="75" width="3" height="12" fill="#482010" />
<rect x="57" y="75" width="3" height="3" fill="#784010" />
<rect x="60" y="75" width="6" height="3" fill="#482010" />
<rect x="66" y="75" width="3" height="6" fill="#B88858" />
<rect x="12" y="78" width="3" height="6" fill="#482010" />
<rect x="21" y="78" width="3" height="3" fill="#482010" />
<rect x="24" y="78" width="15" height="3" fill="#784010" />
<rect x="57" y="78" width="9" height="3" fill="#B88858" />
<rect x="69" y="78" width="3" height="3" fill="#B88858" />
<rect x="72" y="78" width="3" height="3" fill="#482010" />
<rect x="75" y="78" width="3" height="6" fill="#181010" />
<rect x="21" y="81" width="12" height="3" fill="#784010" />
<rect x="33" y="81" width="9" height="3" fill="#482010" />
<rect x="42" y="81" width="6" height="3" fill="#784010" />
<rect x="57" y="81" width="3" height="3" fill="#784010" />
<rect x="60" y="81" width="6" height="3" fill="#B88858" />
<rect x="66" y="81" width="6" height="3" fill="#482010" />
<rect x="72" y="81" width="3" height="3" fill="#181010" />
<rect x="21" y="84" width="15" height="3" fill="#482010" />
<rect x="36" y="84" width="3" height="3" fill="#2830C8" />
<rect x="39" y="84" width="3" height="6" fill="#600000" />
<rect x="42" y="84" width="24" height="3" fill="#482010" />
<rect x="66" y="84" width="6" height="3" fill="#181010" />
<rect x="18" y="87" width="3" height="6" fill="#600000" />
<rect x="21" y="87" width="9" height="3" fill="#A81828" />
<rect x="30" y="87" width="6" height="3" fill="#202028" />
<rect x="36" y="87" width="3" height="18" fill="#600000" />
<rect x="42" y="87" width="12" height="12" fill="#A81828" />
<rect x="54" y="87" width="6" height="3" fill="#600000" />
<rect x="60" y="87" width="6" height="3" fill="#202028" />
<rect x="66" y="87" width="3" height="3" fill="#181010" />
<rect x="21" y="90" width="3" height="9" fill="#600000" />
<rect x="24" y="90" width="3" height="3" fill="#A81828" />
<rect x="27" y="90" width="6" height="3" fill="#202028" />
<rect x="33" y="90" width="3" height="12" fill="#600000" />
<rect x="39" y="90" width="3" height="12" fill="#A81828" />
<rect x="54" y="90" width="3" height="3" fill="#A81828" />
<rect x="57" y="90" width="3" height="6" fill="#600000" />
<rect x="60" y="90" width="3" height="3" fill="#2830C8" />
<rect x="63" y="90" width="9" height="3" fill="#202028" />
<rect x="18" y="93" width="3" height="9" fill="#482010" />
<rect x="24" y="93" width="6" height="6" fill="#202028" />
<rect x="30" y="93" width="3" height="36" fill="#2830C8" />
<rect x="54" y="93" width="3" height="3" fill="#600000" />
<rect x="60" y="93" width="3" height="3" fill="#600000" />
<rect x="63" y="93" width="3" height="3" fill="#404040" />
<rect x="66" y="93" width="9" height="3" fill="#202028" />
<rect x="54" y="96" width="12" height="6" fill="#B0B0B0" />
<rect x="66" y="96" width="6" height="3" fill="#404040" />
<rect x="72" y="96" width="6" height="3" fill="#202028" />
<rect x="21" y="99" width="6" height="6" fill="#202028" />
<rect x="27" y="99" width="3" height="21" fill="#2830C8" />
<rect x="42" y="99" width="6" height="3" fill="#A81828" />
<rect x="48" y="99" width="6" height="6" fill="#B0B0B0" />
<rect x="66" y="99" width="3" height="12" fill="#B0B0B0" />
<rect x="69" y="99" width="3" height="15" fill="#404040" />
<rect x="72" y="99" width="3" height="3" fill="#784010" />
<rect x="75" y="99" width="3" height="3" fill="#202028" />
<rect x="78" y="99" width="12" height="6" fill="#181010" />
<rect x="18" y="102" width="3" height="6" fill="#202028" />
<rect x="33" y="102" width="3" height="30" fill="#2830C8" />
<rect x="39" y="102" width="3" height="3" fill="#600000" />
<rect x="42" y="102" width="6" height="12" fill="#B0B0B0" />
<rect x="54" y="102" width="3" height="15" fill="#B0B0B0" />
<rect x="57" y="102" width="3" height="6" fill="#686868" />
<rect x="60" y="102" width="6" height="12" fill="#B0B0B0" />
<rect x="72" y="102" width="3" height="9" fill="#C09830" />
<rect x="75" y="102" width="3" height="6" fill="#784010" />
<rect x="90" y="102" width="3" height="27" fill="#181010" />
<rect x="21" y="105" width="3" height="6" fill="#202028" />
<rect x="24" y="105" width="3" height="9" fill="#2830C8" />
<rect x="36" y="105" width="3" height="3" fill="#404040" />
<rect x="39" y="105" width="3" height="3" fill="#B0B0B0" />
<rect x="48" y="105" width="3" height="6" fill="#686868" />
<rect x="51" y="105" width="3" height="12" fill="#B0B0B0" />
<rect x="78" y="105" width="9" height="15" fill="#482010" />
<rect x="87" y="105" width="3" height="3" fill="#181010" />
<rect x="93" y="105" width="3" height="18" fill="#181010" />
<rect x="12" y="108" width="9" height="6" fill="#181010" />
<rect x="36" y="108" width="3" height="27" fill="#2830C8" />
<rect x="39" y="108" width="3" height="6" fill="#404040" />
<rect x="57" y="108" width="3" height="9" fill="#B0B0B0" />
<rect x="75" y="108" width="3" height="9" fill="#202028" />
<rect x="87" y="108" width="3" height="9" fill="#482010" />
<rect x="9" y="111" width="3" height="9" fill="#181010" />
<rect x="21" y="111" width="3" height="3" fill="#181010" />
<rect x="48" y="111" width="3" height="6" fill="#B0B0B0" />
<rect x="66" y="111" width="3" height="6" fill="#404040" />
<rect x="72" y="111" width="3" height="6" fill="#2830C8" />
<rect x="6" y="114" width="3" height="15" fill="#181010" />
<rect x="12" y="114" width="3" height="27" fill="#784010" />
<rect x="15" y="114" width="3" height="3" fill="#A06830" />
<rect x="18" y="114" width="9" height="3" fill="#482010" />
<rect x="39" y="114" width="3" height="21" fill="#2830C8" />
<rect x="42" y="114" width="3" height="3" fill="#404040" />
<rect x="45" y="114" width="3" height="3" fill="#B0B0B0" />
<rect x="60" y="114" width="6" height="3" fill="#404040" />
<rect x="69" y="114" width="3" height="9" fill="#2830C8" />
<rect x="15" y="117" width="3" height="12" fill="#784010" />
<rect x="18" y="117" width="3" height="12" fill="#A06830" />
<rect x="21" y="117" width="6" height="15" fill="#482010" />
<rect x="42" y="117" width="3" height="18" fill="#2830C8" />
<rect x="45" y="117" width="18" height="3" fill="#404040" />
<rect x="63" y="117" width="6" height="15" fill="#2830C8" />
<rect x="72" y="117" width="3" height="6" fill="#202028" />
<rect x="75" y="117" width="3" height="3" fill="#181010" />
<rect x="87" y="117" width="3" height="3" fill="#A06830" />
<rect x="3" y="120" width="3" height="30" fill="#181010" />
<rect x="9" y="120" width="3" height="27" fill="#784010" />
<rect x="27" y="120" width="3" height="9" fill="#482010" />
<rect x="45" y="120" width="18" height="12" fill="#2830C8" />
<rect x="75" y="120" width="3" height="18" fill="#482010" />
<rect x="78" y="120" width="3" height="3" fill="#181010" />
<rect x="81" y="120" width="6" height="3" fill="#482010" />
<rect x="87" y="120" width="3" height="3" fill="#784010" />
<rect x="69" y="123" width="3" height="3" fill="#202028" />
<rect x="72" y="123" width="3" height="3" fill="#181010" />
<rect x="78" y="123" width="6" height="6" fill="#482010" />
<rect x="84" y="123" width="3" height="3" fill="#784010" />
<rect x="87" y="123" width="3" height="12" fill="#181010" />
<rect x="69" y="126" width="3" height="3" fill="#2830C8" />
<rect x="72" y="126" width="3" height="12" fill="#482010" />
<rect x="84" y="126" width="3" height="15" fill="#181010" />
<rect x="0" y="129" width="3" height="18" fill="#181010" />
<rect x="6" y="129" width="3" height="15" fill="#784010" />
<rect x="15" y="129" width="3" height="12" fill="#A06830" />
<rect x="18" y="129" width="3" height="3" fill="#784010" />
<rect x="27" y="129" width="6" height="18" fill="#181010" />
<rect x="69" y="129" width="3" height="6" fill="#482010" />
<rect x="78" y="129" width="3" height="6" fill="#482010" />
<rect x="81" y="129" width="3" height="3" fill="#784010" />
<rect x="18" y="132" width="6" height="9" fill="#482010" />
<rect x="24" y="132" width="3" height="3" fill="#181010" />
<rect x="33" y="132" width="3" height="9" fill="#202028" />
<rect x="45" y="132" width="3" height="3" fill="#2830C8" />
<rect x="48" y="132" width="18" height="3" fill="#202028" />
<rect x="66" y="132" width="3" height="3" fill="#482010" />
<rect x="81" y="132" width="3" height="3" fill="#A06830" />
<rect x="24" y="135" width="3" height="3" fill="#482010" />
<rect x="36" y="135" width="27" height="3" fill="#202028" />
<rect x="63" y="135" width="9" height="3" fill="#181010" />
<rect x="78" y="135" width="3" height="3" fill="#784010" />
<rect x="81" y="135" width="3" height="9" fill="#181010" />
<rect x="24" y="138" width="3" height="6" fill="#784010" />
<rect x="36" y="138" width="12" height="3" fill="#202028" />
<rect x="66" y="138" width="15" height="3" fill="#181010" />
<rect x="12" y="141" width="3" height="3" fill="#A06830" />
<rect x="15" y="141" width="3" height="3" fill="#784010" />
<rect x="18" y="141" width="3" height="6" fill="#482010" />
<rect x="21" y="141" width="3" height="3" fill="#784010" />
<rect x="72" y="141" width="9" height="3" fill="#181010" />
<rect x="6" y="144" width="3" height="9" fill="#181010" />
<rect x="12" y="144" width="3" height="3" fill="#784010" />
<rect x="15" y="144" width="3" height="3" fill="#482010" />
<rect x="21" y="144" width="3" height="3" fill="#482010" />
<rect x="24" y="144" width="3" height="6" fill="#181010" />
<rect x="9" y="147" width="15" height="6" fill="#181010" />
<rect x="27" y="147" width="3" height="3" fill="#181010" />
</svg>