<?xml version="1.0" encoding="UTF-8" ?>
<svg version="1.1" width="108" height="168" xmlns="http://www.w3.org/2000/svg" shape-rendering="crispEdges">
<rect x="66" y="30" width="15" height="3" fill="#482010" />
<rect x="60" y="33" width="6" height="3" fill="#482010" />
<rect x="66" y="33" width="15" height="3" fill="#600000" />
<rect x="81" y="33" width="6" height="3" fill="#482010" />
<rect x="54" y="36" width="6" height="3" fill="#482010" />
<rect x="60" y="36" width="6" height="3" fill="#600000" />
<rect x="66" y="36" width="12" height="12" fill="#A81828" />
<rect x="78" y="36" width="9" height="3" fill="#600000" />
<rect x="87" y="36" width="3" height="3" fill="#482010" />
<rect x="51" y="39" width="3" height="3" fill="#482010" />
<rect x="54" y="39" width="6" height="3" fill="#600000" />
<rect x="60" y="39" width="6" height="24" fill="#A81828" />
<rect x="78" y="39" width="6" height="9" fill="#A81828" />
<rect x="84" y="39" width="6" height="3" fill="#600000" />
<rect x="90" y="39" width="3" height="6" fill="#482010" />
<rect x="48" y="42" width="3" height="3" fill="#482010" />
<rect x="51" y="42" width="6" height="3" fill="#600000" />
<rect x="57" y="42" width="3" height="21" fill="#A81828" />
<rect x="84" y="42" width="3" height="9" fill="#A81828" />
<rect x="87" y="42" width="3" height="6" fill="#600000" />
<rect x="45" y="45" width="3" height="3" fill="#482010" />
<rect x="48" y="45" width="6" height="3" fill="#600000" />
<rect x="54" y="45" width="3" height="21" fill="#A81828" />
<rect x="90" y="45" width="3" height="12" fill="#600000" />
<rect x="93" y="45" width="3" height="12" fill="#482010" />
<rect x="42" y="48" width="3" height="3" fill="#482010" />
<rect x="45" y="48" width="6" height="3" fill="#600000" />
<rect x="51" y="48" width="3" height="18" fill="#A81828" />
<rect x="66" y="48" width="6" height="3" fill="#A81828" />
<rect x="72" y="48" width="12" height="3" fill="#B0B0B0" />
<rect x="87" y="48" width="3" height="6" fill="#A81828" />
<rect x="39" y="51" width="3" height="3" fill="#482010" />
<rect x="42" y="51" width="6" height="3" fill="#600000" />
<rect x="48" y="51" width="3" height="15" fill="#A81828" />
<rect x="66" y="51" width="3" height="9" fill="#A81828" />
<rect x="69" y="51" width="6" height="9" fill="#B0B0B0" />
<rect x="75" y="51" width="3" height="9" fill="#600000" />
<rect x="78" y="51" width="3" height="3" fill="#B0B0B0" />
<rect x="81" y="51" width="3" height="9" fill="#600000" />
<rect x="84" y="51" width="3" height="9" fill="#B0B0B0" />
<rect x="33" y="54" width="6" height="3" fill="#482010" />
<rect x="39" y="54" width="6" height="6" fill="#600000" />
<rect x="45" y="54" width="3" height="12" fill="#A81828" />
<rect x="78" y="54" width="3" height="6" fill="#600000" />
<rect x="87" y="54" width="3" height="6" fill="#600000" />
<rect x="27" y="57" width="6" height="3" fill="#482010" />
<rect x="33" y="57" width="6" height="3" fill="#600000" />
<rect x="90" y="57" width="3" height="3" fill="#482010" />
<rect x="24" y="60" width="3" height="6" fill="#482010" />
<rect x="27" y="60" width="6" height="3" fill="#600000" />
<rect x="33" y="60" width="6" height="9" fill="#A81828" />
<rect x="39" y="60" width="3" height="6" fill="#600000" />
<rect x="42" y="60" width="3" height="9" fill="#A81828" />
<rect x="66" y="60" width="3" height="3" fill="#600000" />
<rect x="69" y="60" width="33" height="6" fill="#181010" />
<rect x="27" y="63" width="3" height="6" fill="#600000" />
<rect x="30" y="63" width="3" height="9" fill="#A81828" />
<rect x="57" y="63" width="3" height="3" fill="#600000" />
<rect x="60" y="63" width="9" height="6" fill="#181010" />
<rect x="102" y="63" width="3" height="3" fill="#181010" />
<rect x="21" y="66" width="3" height="6" fill="#482010" />
<rect x="24" y="66" width="3" height="6" fill="#600000" />
<rect x="39" y="66" width="3" height="3" fill="#A81828" />
<rect x="45" y="66" width="3" height="3" fill="#600000" />
<rect x="48" y="66" width="12" height="3" fill="#181010" />
<rect x="69" y="66" width="6" height="3" fill="#482010" />
<rect x="75" y="66" width="12" height="3" fill="#784010" />
<rect x="87" y="66" width="15" height="3" fill="#181010" />
<rect x="27" y="69" width="3" height="3" fill="#A81828" />
<rect x="33" y="69" width="3" height="3" fill="#A81828" />
<rect x="36" y="69" width="3" height="3" fill="#600000" />
<rect x="39" y="69" width="15" height="3" fill="#181010" />
<rect x="54" y="69" width="6" height="3" fill="#784010" />
<rect x="60" y="69" width="21" height="3" fill="#B88858" />
<rect x="81" y="69" width="3" height="3" fill="#A06830" />
<rect x="84" y="69" width="3" height="3" fill="#482010" />
<rect x="87" y="69" width="3" height="6" fill="#181010" />
<rect x="21" y="72" width="3" height="3" fill="#181010" />
<rect x="24" y="72" width="9" height="3" fill="#482010" />
<rect x="33" y="72" width="6" height="3" fill="#181010" />
<rect x="39" y="72" width="9" height="3" fill="#482010" />
<rect x="48" y="72" width="15" height="6" fill="#B88858" />
<rect x="63" y="72" width="6" height="3" fill="#181010" />
<rect x="69" y="72" width="3" height="3" fill="#A06830" />
<rect x="72" y="72" width="9" height="3" fill="#B88858" />
<rect x="81" y="72" width="3" height="3" fill="#482010" />
<rect x="84" y="72" width="3" height="6" fill="#181010" />
<rect x="90" y="72" width="3" height="3" fill="#181010" />
<rect x="18" y="75" width="3" height="21" fill="#181010" />
<rect x="21" y="75" width="6" height="3" fill="#482010" />
<rect x="27" y="75" width="12" height="6" fill="#B88858" />
<rect x="39" y="75" width="3" height="3" fill="#784010" />
<rect x="42" y="75" width="6" height="9" fill="#482010" />
<rect x="63" y="75" width="3" height="18" fill="#B88858" />
<rect x="66" y="75" width="9" height="3" fill="#181010" />
<rect x="75" y="75" width="6" height="24" fill="#B88858" />
<rect x="81" y="75" width="3" height="6" fill="#181010" />
<rect x="87" y="75" width="6" height="3" fill="#482010" />
<rect x="93" y="75" width="6" height="3" fill="#181010" />
<rect x="21" y="78" width="3" height="9" fill="#482010" />
<rect x="24" y="78" width="3" height="9" fill="#B88858" />
<rect x="39" y="78" width="3" height="15" fill="#B88858" />
<rect x="48" y="78" width="3" height="6" fill="#482010" />
<rect x="51" y="78" width="12" height="9" fill="#B88858" />
<rect x="66" y="78" width="6" height="6" fill="#181010" />
<rect x="72" y="78" width="3" height="18" fill="#B88858" />
<rect x="84" y="78" width="3" height="3" fill="#482010" />
<rect x="87" y="78" width="3" height="21" fill="#B88858" />
<rect x="90" y="78" width="3" height="3" fill="#A06830" />
<rect x="93" y="78" width="3" height="3" fill="#784010" />
<rect x="96" y="78" width="3" height="3" fill="#482010" />
<rect x="99" y="78" width="3" height="3" fill="#181010" />
<rect x="27" y="81" width="3" height="9" fill="#B88858" />
<rect x="30" y="81" width="6" height="3" fill="#784010" />
<rect x="36" y="81" width="3" height="12" fill="#B88858" />
<rect x="81" y="81" width="3" height="3" fill="#784010" />
<rect x="84" y="81" width="3" height="18" fill="#B88858" />
<rect x="90" y="81" width="6" height="15" fill="#B88858" />
<rect x="96" y="81" width="3" height="3" fill="#784010" />
<rect x="99" y="81" width="3" height="15" fill="#482010" />
<rect x="102" y="81" width="3" height="15" fill="#181010" />
<rect x="30" y="84" width="3" height="9" fill="#B88858" />
<rect x="33" y="84" width="3" height="3" fill="#784010" />
<rect x="42" y="84" width="3" height="3" fill="#784010" />
<rect x="45" y="84" width="3" height="3" fill="#482010" />
<rect x="48" y="84" width="3" height="18" fill="#B88858" />
<rect x="66" y="84" width="6" height="3" fill="#784010" />
<rect x="81" y="84" width="3" height="15" fill="#B88858" />
<rect x="96" y="84" width="3" height="6" fill="#B88858" />
<rect x="21" y="87" width="3" height="6" fill="#181010" />
<rect x="24" y="87" width="3" height="3" fill="#482010" />
<rect x="33" y="87" width="3" height="6" fill="#B88858" />
<rect x="42" y="87" width="6" height="9" fill="#B88858" />
<rect x="51" y="87" width="3" height="3" fill="#B88858" />
<rect x="54" y="87" width="6" height="9" fill="#181010" />
<rect x="60" y="87" width="3" height="3" fill="#B88858" />
<rect x="66" y="87" width="6" height="6" fill="#B88858" />
<rect x="15" y="90" width="3" height="6" fill="#181010" />
<rect x="24" y="90" width="3" height="3" fill="#181010" />
<rect x="27" y="90" width="3" height="3" fill="#482010" />
<rect x="51" y="90" width="3" height="6" fill="#181010" />
<rect x="60" y="90" width="3" height="12" fill="#181010" />
<rect x="96" y="90" width="3" height="3" fill="#A06830" />
<rect x="9" y="93" width="6" height="6" fill="#181010" />
<rect x="21" y="93" width="6" height="6" fill="#A81828" />
<rect x="27" y="93" width="3" height="3" fill="#600000" />
<rect x="30" y="93" width="9" height="3" fill="#482010" />
<rect x="39" y="93" width="3" height="3" fill="#A06830" />
<rect x="63" y="93" width="3" height="12" fill="#181010" />
<rect x="66" y="93" width="3" height="3" fill="#A06830" />
<rect x="69" y="93" width="3" height="3" fill="#B88858" />
<rect x="96" y="93" width="3" height="3" fill="#784010" />
<rect x="6" y="96" width="3" height="9" fill="#181010" />
<rect x="15" y="96" width="6" height="3" fill="#A81828" />
<rect x="27" y="96" width="9" height="3" fill="#A81828" />
<rect x="36" y="96" width="6" height="3" fill="#482010" />
<rect x="42" y="96" width="3" height="3" fill="#A06830" />
<rect x="45" y="96" width="3" height="3" fill="#B88858" />
<rect x="51" y="96" width="3" height="9" fill="#B88858" />
<rect x="54" y="96" width="3" height="3" fill="#784010" />
<rect x="57" y="96" width="3" height="6" fill="#181010" />
<rect x="66" y="96" width="6" height="9" fill="#181010" />
<rect x="72" y="96" width="3" height="3" fill="#A06830" />
<rect x="90" y="96" width="3" height="3" fill="#B88858" />
<rect x="93" y="96" width="3" height="3" fill="#784010" />
<rect x="96" y="96" width="3" height="3" fill="#482010" />
<rect x="99" y="96" width="3" height="3" fill="#181010" />
<rect x="3" y="99" width="3" height="9" fill="#181010" />
<rect x="9" y="99" width="3" height="3" fill="#181010" />
<rect x="12" y="99" width="3" height="3" fill="#A81828" />
<rect x="15" y="99" width="3" height="3" fill="#686868" />
<rect x="18" y="99" width="6" height="3" fill="#B0B0B0" />
<rect x="24" y="99" width="3" height="3" fill="#686868" />
<rect x="27" y="99" width="3" height="3" fill="#600000" />
<rect x="30" y="99" width="9" height="3" fill="#A81828" />
<rect x="39" y="99" width="6" height="3" fill="#482010" />
<rect x="45" y="99" width="3" height="3" fill="#A06830" />
<rect x="54" y="99" width="3" height="6" fill="#B88858" />
<rect x="72" y="99" width="9" height="9" fill="#181010" />
<rect x="81" y="99" width="12" height="3" fill="#482010" />
<rect x="93" y="99" width="6" height="3" fill="#181010" />
<rect x="9" y="102" width="3" height="3" fill="#A81828" />
<rect x="12" y="102" width="6" height="6" fill="#B0B0B0" />
<rect x="18" y="102" width="3" height="3" fill="#686868" />
<rect x="21" y="102" width="6" height="9" fill="#B0B0B0" />
<rect x="27" y="102" width="3" height="3" fill="#686868" />
<rect x="30" y="102" width="3" height="6" fill="#202028" />
<rect x="33" y="102" width="9" height="6" fill="#A81828" />
<rect x="42" y="102" width="3" height="3" fill="#202028" />
<rect x="45" y="102" width="6" height="3" fill="#482010" />
<rect x="57" y="102" width="3" height="6" fill="#B88858" />
<rect x="60" y="102" width="3" height="3" fill="#784010" />
<rect x="81" y="102" width="12" height="6" fill="#181010" />
<rect x="0" y="105" width="3" height="18" fill="#181010" />
<rect x="6" y="105" width="3" height="3" fill="#A81828" />
<rect x="9" y="105" width="3" height="18" fill="#B0B0B0" />
<rect x="18" y="105" width="3" height="15" fill="#B0B0B0" />
<rect x="27" y="105" width="3" height="9" fill="#B0B0B0" />
<rect x="42" y="105" width="3" height="3" fill="#482010" />
<rect x="45" y="105" width="3" height="18" fill="#2830C8" />
<rect x="48" y="105" width="3" height="3" fill="#600000" />
<rect x="51" y="105" width="6" height="3" fill="#482010" />
<rect x="60" y="105" width="6" height="3" fill="#B88858" />
<rect x="66" y="105" width="3" height="3" fill="#784010" />
<rect x="69" y="105" width="3" height="3" fill="#181010" />
<rect x="93" y="105" width="3" height="6" fill="#181010" />
<rect x="3" y="108" width="3" height="3" fill="#482010" />
<rect x="6" y="108" width="3" height="3" fill="#686868" />
<rect x="12" y="108" width="3" height="3" fill="#686868" />
<rect x="15" y="108" width="3" height="9" fill="#B0B0B0" />
<rect x="30" y="108" width="3" height="6" fill="#686868" />
<rect x="33" y="108" width="3" height="6" fill="#202028" />
<rect x="36" y="108" width="3" height="3" fill="#A81828" />
<rect x="39" y="108" width="3" height="3" fill="#202028" />
<rect x="42" y="108" width="3" height="12" fill="#2830C8" />
<rect x="48" y="108" width="3" height="9" fill="#202028" />
<rect x="51" y="108" width="3" height="9" fill="#A81828" />
<rect x="54" y="108" width="3" height="3" fill="#600000" />
<rect x="57" y="108" width="12" height="3" fill="#482010" />
<rect x="69" y="108" width="3" height="6" fill="#600000" />
<rect x="72" y="108" width="6" height="3" fill="#A81828" />
<rect x="78" y="108" width="3" height="3" fill="#686868" />
<rect x="81" y="108" width="9" height="6" fill="#B0B0B0" />
<rect x="90" y="108" width="3" height="3" fill="#482010" />
<rect x="96" y="108" width="3" height="6" fill="#181010" />
<rect x="3" y="111" width="3" height="3" fill="#404040" />
<rect x="6" y="111" width="3" height="9" fill="#B0B0B0" />
<rect x="12" y="111" width="3" height="12" fill="#B0B0B0" />
<rect x="21" y="111" width="3" height="3" fill="#686868" />
<rect x="24" y="111" width="3" height="3" fill="#B0B0B0" />
<rect x="36" y="111" width="3" height="3" fill="#202028" />
<rect x="39" y="111" width="3" height="9" fill="#2830C8" />
<rect x="54" y="111" width="9" height="6" fill="#A81828" />
<rect x="63" y="111" width="3" height="6" fill="#202028" />
<rect x="66" y="111" width="3" height="12" fill="#2830C8" />
<rect x="72" y="111" width="3" height="3" fill="#A81828" />
<rect x="75" y="111" width="3" height="6" fill="#686868" />
<rect x="78" y="111" width="3" height="6" fill="#B0B0B0" />
<rect x="90" y="111" width="3" height="9" fill="#B0B0B0" />
<rect x="93" y="111" width="3" height="3" fill="#686868" />
<rect x="99" y="111" width="3" height="18" fill="#181010" />
<rect x="3" y="114" width="3" height="3" fill="#686868" />
<rect x="21" y="114" width="3" height="6" fill="#B0B0B0" />
<rect x="24" y="114" width="6" height="3" fill="#686868" />
<rect x="30" y="114" width="3" height="6" fill="#404040" />
<rect x="33" y="114" width="6" height="9" fill="#2830C8" />
<rect x="69" y="114" width="3" height="6" fill="#181010" />
<rect x="72" y="114" width="3" height="6" fill="#404040" />
<rect x="81" y="114" width="3" height="3" fill="#B0B0B0" />
<rect x="84" y="114" width="3" height="3" fill="#686868" />
<rect x="87" y="114" width="3" height="9" fill="#B0B0B0" />
<rect x="93" y="114" width="3" height="15" fill="#B0B0B0" />
<rect x="96" y="114" width="3" height="3" fill="#686868" />
<rect x="3" y="117" width="3" height="3" fill="#404040" />
<rect x="15" y="117" width="3" height="3" fill="#686868" />
<rect x="24" y="117" width="3" height="3" fill="#686868" />
<rect x="27" y="117" width="3" height="3" fill="#B0B0B0" />
<rect x="48" y="117" width="3" height="21" fill="#2830C8" />
<rect x="51" y="117" width="12" height="3" fill="#202028" />
<rect x="63" y="117" width="3" height="6" fill="#2830C8" />
<rect x="75" y="117" width="3" height="3" fill="#B0B0B0" />
<rect x="78" y="117" width="6" height="3" fill="#686868" />
<rect x="84" y="117" width="3" height="3" fill="#B0B0B0" />
<rect x="96" y="117" width="3" height="9" fill="#B0B0B0" />
<rect x="102" y="117" width="3" height="9" fill="#181010" />
<rect x="3" y="120" width="3" height="6" fill="#181010" />
<rect x="6" y="120" width="3" height="3" fill="#404040" />
<rect x="15" y="120" width="3" height="3" fill="#B0B0B0" />
<rect x="18" y="120" width="3" height="3" fill="#686868" />
<rect x="21" y="120" width="9" height="3" fill="#404040" />
<rect x="30" y="120" width="3" height="21" fill="#2830C8" />
<rect x="39" y="120" width="6" height="3" fill="#A06830" />
<rect x="51" y="120" width="12" height="6" fill="#2830C8" />
<rect x="69" y="120" width="3" height="6" fill="#404040" />
<rect x="72" y="120" width="3" height="18" fill="#181010" />
<rect x="75" y="120" width="3" height="3" fill="#686868" />
<rect x="78" y="120" width="6" height="3" fill="#B0B0B0" />
<rect x="84" y="120" width="3" height="3" fill="#686868" />
<rect x="90" y="120" width="3" height="3" fill="#686868" />
<rect x="6" y="123" width="3" height="3" fill="#181010" />
<rect x="9" y="123" width="12" height="3" fill="#404040" />
<rect x="21" y="123" width="9" height="15" fill="#2830C8" />
<rect x="33" y="123" width="3" height="18" fill="#2830C8" />
<rect x="36" y="123" width="3" height="3" fill="#A06830" />
<rect x="39" y="123" width="6" height="9" fill="#C09830" />
<rect x="45" y="123" width="3" height="3" fill="#A06830" />
<rect x="63" y="123" width="6" height="3" fill="#A06830" />
<rect x="75" y="123" width="3" height="6" fill="#181010" />
<rect x="78" y="123" width="3" height="3" fill="#686868" />
<rect x="81" y="123" width="3" height="3" fill="#B0B0B0" />
<rect x="84" y="123" width="3" height="3" fill="#404040" />
<rect x="87" y="123" width="3" height="3" fill="#686868" />
<rect x="90" y="123" width="3" height="3" fill="#B0B0B0" />
<rect x="9" y="126" width="6" height="12" fill="#181010" />
<rect x="15" y="126" width="6" height="9" fill="#2830C8" />
<rect x="36" y="126" width="3" height="3" fill="#C09830" />
<rect x="45" y="126" width="3" height="3" fill="#C09830" />
<rect x="51" y="126" width="9" height="12" fill="#2830C8" />
<rect x="60" y="126" width="3" height="3" fill="#A06830" />
<rect x="63" y="126" width="6" height="6" fill="#C09830" />
<rect x="69" y="126" width="3" height="12" fill="#181010" />
<rect x="78" y="126" width="3" height="6" fill="#181010" />
<rect x="81" y="126" width="3" height="3" fill="#404040" />
<rect x="84" y="126" width="3" height="3" fill="#686868" />
<rect x="87" y="126" width="3" height="3" fill="#404040" />
<rect x="90" y="126" width="3" height="3" fill="#686868" />
<rect x="96" y="126" width="3" height="6" fill="#181010" />
<rect x="36" y="129" width="3" height="12" fill="#2830C8" />
<rect x="45" y="129" width="3" height="9" fill="#2830C8" />
<rect x="60" y="129" width="3" height="3" fill="#C09830" />
<rect x="81" y="129" width="15" height="3" fill="#181010" />
<rect x="39" y="132" width="6" height="6" fill="#2830C8" />
<rect x="60" y="132" width="3" height="6" fill="#2830C8" />
<rect x="63" y="132" width="3" height="3" fill="#C09830" />
<rect x="66" y="132" width="3" height="3" fill="#2830C8" />
<rect x="87" y="132" width="9" height="3" fill="#181010" />
<rect x="15" y="135" width="3" height="6" fill="#181010" />
<rect x="18" y="135" width="3" height="3" fill="#2830C8" />
<rect x="63" y="135" width="3" height="6" fill="#202028" />
<rect x="66" y="135" width="3" height="3" fill="#181010" />
<rect x="75" y="135" width="6" height="3" fill="#181010" />
<rect x="12" y="138" width="3" height="6" fill="#181010" />
<rect x="18" y="138" width="12" height="3" fill="#202028" />
<rect x="39" y="138" width="3" height="3" fill="#2830C8" />
<rect x="42" y="138" width="12" height="3" fill="#181010" />
<rect x="54" y="138" width="9" height="3" fill="#202028" />
<rect x="66" y="138" width="12" height="3" fill="#482010" />
<rect x="78" y="138" width="6" height="3" fill="#181010" />
<rect x="9" y="141" width="3" height="21" fill="#181010" />
<rect x="15" y="141" width="18" height="3" fill="#482010" />
<rect x="33" y="141" width="18" height="3" fill="#181010" />
<rect x="51" y="141" width="6" height="9" fill="#482010" />
<rect x="57" y="141" width="3" height="9" fill="#181010" />
<rect x="60" y="141" width="12" height="12" fill="#482010" />
<rect x="72" y="141" width="6" height="6" fill="#784010" />
<rect x="78" y="141" width="3" height="9" fill="#482010" />
<rect x="81" y="141" width="6" height="18" fill="#181010" />
<rect x="6" y="144" width="3" height="15" fill="#181010" />
<rect x="12" y="144" width="12" height="9" fill="#482010" />
<rect x="24" y="144" width="6" height="6" fill="#A06830" />
<rect x="30" y="144" width="6" height="6" fill="#482010" />
<rect x="36" y="144" width="15" height="3" fill="#181010" />
<rect x="36" y="147" width="6" height="12" fill="#181010" />
<rect x="45" y="147" width="6" height="6" fill="#181010" />
<rect x="72" y="147" width="6" height="6" fill="#482010" />
<rect x="24" y="150" width="9" height="6" fill="#482010" />
<rect x="33" y="150" width="3" height="3" fill="#181010" />
<rect x="51" y="150" width="9" height="3" fill="#784010" />
<rect x="78" y="150" width="3" height="3" fill="#181010" />
<rect x="12" y="153" width="3" height="3" fill="#181010" />
<rect x="15" y="153" width="9" height="3" fill="#482010" />
<rect x="33" y="153" width="3" height="3" fill="#784010" />
<rect x="48" y="153" width="12" height="3" fill="#181010" />
<rect x="60" y="153" width="21" height="3" fill="#784010" />
<rect x="12" y="156" width="3" height="3" fill="#784010" />
<rect x="15" y="156" width="15" height="3" fill="#A06830" />
<rect x="30" y="156" width="3" height="3" fill="#784010" />
<rect x="33" y="156" width="3" height="9" fill="#181010" />
<rect x="54" y="156" width="27" height="3" fill="#181010" />
<rect x="12" y="159" width="21" height="6" fill="#181010" />
<rect x="36" y="159" width="3" height="3" fill="#181010" />
<rect x="60" y="159" width="24" height="3" fill="#181010" />
</svg>