<?xml version="1.0" encoding="UTF-8" ?>
<svg version="1.1" width="96" height="168" xmlns="http://www.w3.org/2000/svg" shape-rendering="crispEdges">
<rect x="48" y="12" width="15" height="3" fill="#482010" />
<rect x="42" y="15" width="6" height="3" fill="#482010" />
<rect x="48" y="15" width="12" height="3" fill="#600000" />
<rect x="60" y="15" width="9" height="3" fill="#482010" />
<rect x="36" y="18" width="9" height="3" fill="#482010" />
<rect x="45" y="18" width="3" height="3" fill="#600000" />
<rect x="48" y="18" width="12" height="6" fill="#A81828" />
<rect x="60" y="18" width="6" height="3" fill="#600000" />
<rect x="66" y="18" width="3" height="3" fill="#482010" />
<rect x="33" y="21" width="6" height="3" fill="#482010" />
<rect x="39" y="21" width="3" height="3" fill="#600000" />
<rect x="42" y="21" width="6" height="21" fill="#A81828" />
<rect x="60" y="21" width="6" height="3" fill="#A81828" />
<rect x="66" y="21" width="3" height="6" fill="#600000" />
<rect x="69" y="21" width="3" height="6" fill="#482010" />
<rect x="30" y="24" width="6" height="3" fill="#482010" />
<rect x="36" y="24" width="3" height="3" fill="#600000" />
<rect x="39" y="24" width="3" height="21" fill="#A81828" />
<rect x="48" y="24" width="3" height="3" fill="#A81828" />
<rect x="51" y="24" width="12" height="3" fill="#B0B0B0" />
<rect x="63" y="24" width="3" height="3" fill="#A81828" />
<rect x="27" y="27" width="6" height="3" fill="#482010" />
<rect x="33" y="27" width="3" height="3" fill="#600000" />
<rect x="36" y="27" width="3" height="21" fill="#A81828" />
<rect x="48" y="27" width="6" height="9" fill="#B0B0B0" />
<rect x="54" y="27" width="3" height="9" fill="#600000" />
<rect x="57" y="27" width="3" height="3" fill="#B0B0B0" />
<rect x="60" y="27" width="3" height="9" fill="#600000" />
<rect x="63" y="27" width="3" height="9" fill="#B0B0B0" />
<rect x="66" y="27" width="3" height="6" fill="#A81828" />
<rect x="69" y="27" width="3" height="6" fill="#600000" />
<rect x="72" y="27" width="3" height="6" fill="#482010" />
<rect x="24" y="30" width="6" height="3" fill="#482010" />
<rect x="30" y="30" width="3" height="3" fill="#600000" />
<rect x="33" y="30" width="3" height="18" fill="#A81828" />
<rect x="57" y="30" width="3" height="6" fill="#600000" />
<rect x="24" y="33" width="3" height="6" fill="#482010" />
<rect x="27" y="33" width="3" height="6" fill="#600000" />
<rect x="30" y="33" width="3" height="18" fill="#A81828" />
<rect x="66" y="33" width="3" height="3" fill="#600000" />
<rect x="69" y="33" width="18" height="9" fill="#181010" />
<rect x="21" y="36" width="3" height="9" fill="#482010" />
<rect x="48" y="36" width="3" height="6" fill="#A81828" />
<rect x="51" y="36" width="6" height="3" fill="#B0B0B0" />
<rect x="57" y="36" width="12" height="9" fill="#181010" />
<rect x="87" y="36" width="3" height="3" fill="#181010" />
<rect x="24" y="39" width="3" height="6" fill="#600000" />
<rect x="27" y="39" width="3" height="15" fill="#A81828" />
<rect x="51" y="39" width="6" height="9" fill="#181010" />
<rect x="12" y="42" width="9" height="3" fill="#482010" />
<rect x="42" y="42" width="3" height="3" fill="#A81828" />
<rect x="45" y="42" width="3" height="3" fill="#600000" />
<rect x="48" y="42" width="3" height="6" fill="#181010" />
<rect x="69" y="42" width="9" height="3" fill="#181010" />
<rect x="9" y="45" width="6" height="3" fill="#482010" />
<rect x="15" y="45" width="9" height="3" fill="#600000" />
<rect x="24" y="45" width="3" height="9" fill="#A81828" />
<rect x="39" y="45" width="3" height="3" fill="#600000" />
<rect x="42" y="45" width="6" height="6" fill="#181010" />
<rect x="57" y="45" width="12" height="3" fill="#B88858" />
<rect x="69" y="45" width="3" height="6" fill="#482010" />
<rect x="72" y="45" width="3" height="9" fill="#181010" />
<rect x="6" y="48" width="6" height="3" fill="#482010" />
<rect x="12" y="48" width="3" height="3" fill="#600000" />
<rect x="15" y="48" width="6" height="9" fill="#A81828" />
<rect x="21" y="48" width="3" height="3" fill="#600000" />
<rect x="33" y="48" width="3" height="3" fill="#600000" />
<rect x="36" y="48" width="6" height="3" fill="#181010" />
<rect x="48" y="48" width="18" height="3" fill="#B88858" />
<rect x="66" y="48" width="3" height="3" fill="#A06830" />
<rect x="6" y="51" width="3" height="12" fill="#482010" />
<rect x="9" y="51" width="3" height="9" fill="#600000" />
<rect x="12" y="51" width="3" height="9" fill="#A81828" />
<rect x="21" y="51" width="3" height="6" fill="#A81828" />
<rect x="30" y="51" width="9" height="3" fill="#181010" />
<rect x="39" y="51" width="3" height="3" fill="#784010" />
<rect x="42" y="51" width="9" height="18" fill="#B88858" />
<rect x="51" y="51" width="6" height="12" fill="#181010" />
<rect x="57" y="51" width="9" height="24" fill="#B88858" />
<rect x="66" y="51" width="6" height="6" fill="#181010" />
<rect x="75" y="51" width="6" height="3" fill="#181010" />
<rect x="24" y="54" width="3" height="3" fill="#600000" />
<rect x="27" y="54" width="6" height="3" fill="#181010" />
<rect x="33" y="54" width="3" height="3" fill="#784010" />
<rect x="36" y="54" width="6" height="33" fill="#B88858" />
<rect x="72" y="54" width="9" height="3" fill="#482010" />
<rect x="81" y="54" width="3" height="3" fill="#181010" />
<rect x="15" y="57" width="3" height="3" fill="#A81828" />
<rect x="18" y="57" width="3" height="3" fill="#600000" />
<rect x="21" y="57" width="6" height="3" fill="#181010" />
<rect x="27" y="57" width="3" height="12" fill="#482010" />
<rect x="30" y="57" width="6" height="6" fill="#B88858" />
<rect x="66" y="57" width="3" height="3" fill="#181010" />
<rect x="69" y="57" width="3" height="3" fill="#784010" />
<rect x="72" y="57" width="6" height="18" fill="#B88858" />
<rect x="78" y="57" width="3" height="3" fill="#A06830" />
<rect x="81" y="57" width="3" height="3" fill="#482010" />
<rect x="84" y="57" width="3" height="3" fill="#181010" />
<rect x="9" y="60" width="3" height="6" fill="#482010" />
<rect x="12" y="60" width="6" height="3" fill="#600000" />
<rect x="18" y="60" width="6" height="3" fill="#181010" />
<rect x="24" y="60" width="3" height="6" fill="#482010" />
<rect x="66" y="60" width="6" height="18" fill="#B88858" />
<rect x="78" y="60" width="3" height="12" fill="#B88858" />
<rect x="81" y="60" width="3" height="3" fill="#A06830" />
<rect x="84" y="60" width="3" height="12" fill="#482010" />
<rect x="87" y="60" width="3" height="12" fill="#181010" />
<rect x="6" y="63" width="3" height="3" fill="#181010" />
<rect x="12" y="63" width="12" height="6" fill="#B88858" />
<rect x="30" y="63" width="6" height="6" fill="#482010" />
<rect x="51" y="63" width="6" height="3" fill="#784010" />
<rect x="81" y="63" width="3" height="6" fill="#B88858" />
<rect x="3" y="66" width="3" height="12" fill="#181010" />
<rect x="6" y="66" width="3" height="9" fill="#482010" />
<rect x="9" y="66" width="3" height="9" fill="#B88858" />
<rect x="24" y="66" width="3" height="18" fill="#B88858" />
<rect x="51" y="66" width="6" height="6" fill="#B88858" />
<rect x="12" y="69" width="3" height="9" fill="#B88858" />
<rect x="15" y="69" width="6" height="3" fill="#784010" />
<rect x="21" y="69" width="3" height="12" fill="#B88858" />
<rect x="27" y="69" width="3" height="3" fill="#784010" />
<rect x="30" y="69" width="3" height="3" fill="#482010" />
<rect x="33" y="69" width="3" height="18" fill="#B88858" />
<rect x="42" y="69" width="3" height="3" fill="#B88858" />
<rect x="45" y="69" width="6" height="9" fill="#181010" />
<rect x="81" y="69" width="3" height="3" fill="#A06830" />
<rect x="15" y="72" width="3" height="9" fill="#B88858" />
<rect x="18" y="72" width="3" height="3" fill="#784010" />
<rect x="27" y="72" width="6" height="12" fill="#B88858" />
<rect x="42" y="72" width="3" height="6" fill="#181010" />
<rect x="51" y="72" width="3" height="12" fill="#181010" />
<rect x="54" y="72" width="3" height="3" fill="#B88858" />
<rect x="78" y="72" width="3" height="3" fill="#A06830" />
<rect x="81" y="72" width="3" height="3" fill="#482010" />
<rect x="84" y="72" width="3" height="3" fill="#181010" />
<rect x="6" y="75" width="3" height="6" fill="#181010" />
<rect x="9" y="75" width="3" height="3" fill="#482010" />
<rect x="18" y="75" width="3" height="6" fill="#B88858" />
<rect x="54" y="75" width="6" height="12" fill="#181010" />
<rect x="60" y="75" width="6" height="3" fill="#B88858" />
<rect x="72" y="75" width="3" height="3" fill="#A06830" />
<rect x="75" y="75" width="3" height="3" fill="#784010" />
<rect x="78" y="75" width="3" height="3" fill="#482010" />
<rect x="81" y="75" width="3" height="3" fill="#181010" />
<rect x="9" y="78" width="3" height="6" fill="#181010" />
<rect x="12" y="78" width="3" height="3" fill="#482010" />
<rect x="42" y="78" width="3" height="12" fill="#B88858" />
<rect x="45" y="78" width="3" height="3" fill="#784010" />
<rect x="48" y="78" width="3" height="6" fill="#181010" />
<rect x="60" y="78" width="21" height="3" fill="#181010" />
<rect x="12" y="81" width="3" height="3" fill="#181010" />
<rect x="15" y="81" width="9" height="3" fill="#482010" />
<rect x="45" y="81" width="3" height="9" fill="#B88858" />
<rect x="60" y="81" width="18" height="3" fill="#181010" />
<rect x="15" y="84" width="9" height="3" fill="#181010" />
<rect x="24" y="84" width="6" height="3" fill="#482010" />
<rect x="30" y="84" width="3" height="3" fill="#B88858" />
<rect x="48" y="84" width="6" height="6" fill="#B88858" />
<rect x="60" y="84" width="15" height="3" fill="#181010" />
<rect x="24" y="87" width="6" height="3" fill="#181010" />
<rect x="30" y="87" width="6" height="3" fill="#482010" />
<rect x="36" y="87" width="3" height="3" fill="#784010" />
<rect x="39" y="87" width="3" height="3" fill="#B88858" />
<rect x="54" y="87" width="6" height="3" fill="#B88858" />
<rect x="60" y="87" width="3" height="3" fill="#784010" />
<rect x="63" y="87" width="3" height="3" fill="#482010" />
<rect x="66" y="87" width="3" height="3" fill="#181010" />
<rect x="30" y="90" width="6" height="3" fill="#181010" />
<rect x="36" y="90" width="27" height="3" fill="#482010" />
<rect x="63" y="90" width="3" height="3" fill="#181010" />
<rect x="30" y="93" width="3" height="3" fill="#482010" />
<rect x="33" y="93" width="3" height="3" fill="#600000" />
<rect x="36" y="93" width="3" height="6" fill="#202028" />
<rect x="39" y="93" width="6" height="6" fill="#2830C8" />
<rect x="45" y="93" width="3" height="3" fill="#202028" />
<rect x="48" y="93" width="6" height="3" fill="#A81828" />
<rect x="54" y="93" width="6" height="3" fill="#600000" />
<rect x="60" y="93" width="6" height="3" fill="#202028" />
<rect x="27" y="96" width="3" height="3" fill="#482010" />
<rect x="30" y="96" width="3" height="3" fill="#600000" />
<rect x="33" y="96" width="3" height="15" fill="#A81828" />
<rect x="45" y="96" width="3" height="42" fill="#2830C8" />
<rect x="48" y="96" width="3" height="3" fill="#202028" />
<rect x="51" y="96" width="9" height="3" fill="#A81828" />
<rect x="60" y="96" width="3" height="3" fill="#600000" />
<rect x="63" y="96" width="6" height="3" fill="#202028" />
<rect x="24" y="99" width="3" height="3" fill="#482010" />
<rect x="27" y="99" width="3" height="3" fill="#600000" />
<rect x="30" y="99" width="3" height="12" fill="#A81828" />
<rect x="36" y="99" width="3" height="9" fill="#A81828" />
<rect x="39" y="99" width="3" height="9" fill="#202028" />
<rect x="42" y="99" width="3" height="15" fill="#2830C8" />
<rect x="48" y="99" width="3" height="9" fill="#2830C8" />
<rect x="51" y="99" width="3" height="3" fill="#202028" />
<rect x="54" y="99" width="9" height="3" fill="#A81828" />
<rect x="63" y="99" width="3" height="3" fill="#600000" />
<rect x="66" y="99" width="6" height="6" fill="#202028" />
<rect x="21" y="102" width="3" height="3" fill="#482010" />
<rect x="24" y="102" width="3" height="6" fill="#600000" />
<rect x="27" y="102" width="3" height="9" fill="#A81828" />
<rect x="51" y="102" width="3" height="6" fill="#2830C8" />
<rect x="54" y="102" width="12" height="3" fill="#202028" />
<rect x="72" y="102" width="3" height="3" fill="#202028" />
<rect x="18" y="105" width="3" height="3" fill="#482010" />
<rect x="21" y="105" width="3" height="6" fill="#600000" />
<rect x="54" y="105" width="15" height="3" fill="#2830C8" />
<rect x="69" y="105" width="3" height="9" fill="#C09830" />
<rect x="72" y="105" width="6" height="3" fill="#482010" />
<rect x="15" y="108" width="3" height="3" fill="#181010" />
<rect x="18" y="108" width="3" height="3" fill="#404040" />
<rect x="24" y="108" width="3" height="3" fill="#A81828" />
<rect x="36" y="108" width="3" height="3" fill="#600000" />
<rect x="39" y="108" width="3" height="3" fill="#2830C8" />
<rect x="48" y="108" width="3" height="3" fill="#784010" />
<rect x="51" y="108" width="6" height="12" fill="#C09830" />
<rect x="57" y="108" width="12" height="3" fill="#2830C8" />
<rect x="72" y="108" width="3" height="9" fill="#C09830" />
<rect x="75" y="108" width="6" height="9" fill="#482010" />
<rect x="12" y="111" width="3" height="6" fill="#181010" />
<rect x="15" y="111" width="3" height="6" fill="#404040" />
<rect x="18" y="111" width="21" height="6" fill="#B0B0B0" />
<rect x="39" y="111" width="3" height="6" fill="#404040" />
<rect x="48" y="111" width="3" height="6" fill="#C09830" />
<rect x="57" y="111" width="3" height="6" fill="#C09830" />
<rect x="60" y="111" width="9" height="18" fill="#2830C8" />
<rect x="42" y="114" width="3" height="15" fill="#404040" />
<rect x="69" y="114" width="3" height="3" fill="#784010" />
<rect x="9" y="117" width="3" height="12" fill="#181010" />
<rect x="12" y="117" width="3" height="12" fill="#404040" />
<rect x="15" y="117" width="6" height="9" fill="#B0B0B0" />
<rect x="21" y="117" width="3" height="6" fill="#686868" />
<rect x="24" y="117" width="18" height="3" fill="#B0B0B0" />
<rect x="48" y="117" width="3" height="3" fill="#784010" />
<rect x="57" y="117" width="3" height="18" fill="#2830C8" />
<rect x="69" y="117" width="3" height="6" fill="#2830C8" />
<rect x="72" y="117" width="6" height="6" fill="#202028" />
<rect x="24" y="120" width="3" height="12" fill="#B0B0B0" />
<rect x="27" y="120" width="3" height="6" fill="#686868" />
<rect x="30" y="120" width="12" height="6" fill="#B0B0B0" />
<rect x="48" y="120" width="9" height="15" fill="#2830C8" />
<rect x="21" y="123" width="3" height="6" fill="#B0B0B0" />
<rect x="69" y="123" width="6" height="6" fill="#202028" />
<rect x="15" y="126" width="3" height="6" fill="#404040" />
<rect x="18" y="126" width="3" height="3" fill="#B0B0B0" />
<rect x="27" y="126" width="9" height="6" fill="#B0B0B0" />
<rect x="36" y="126" width="3" height="3" fill="#686868" />
<rect x="39" y="126" width="3" height="6" fill="#404040" />
<rect x="12" y="129" width="3" height="3" fill="#181010" />
<rect x="18" y="129" width="3" height="6" fill="#404040" />
<rect x="21" y="129" width="3" height="3" fill="#686868" />
<rect x="36" y="129" width="3" height="6" fill="#404040" />
<rect x="42" y="129" width="3" height="9" fill="#2830C8" />
<rect x="60" y="129" width="6" height="3" fill="#2830C8" />
<rect x="66" y="129" width="6" height="3" fill="#202028" />
<rect x="15" y="132" width="3" height="3" fill="#181010" />
<rect x="21" y="132" width="15" height="3" fill="#404040" />
<rect x="39" y="132" width="3" height="6" fill="#2830C8" />
<rect x="60" y="132" width="9" height="3" fill="#202028" />
<rect x="18" y="135" width="6" height="3" fill="#181010" />
<rect x="24" y="135" width="6" height="3" fill="#404040" />
<rect x="30" y="135" width="9" height="3" fill="#2830C8" />
<rect x="48" y="135" width="3" height="3" fill="#2830C8" />
<rect x="51" y="135" width="15" height="3" fill="#202028" />
<rect x="66" y="135" width="6" height="6" fill="#181010" />
<rect x="24" y="138" width="3" height="21" fill="#181010" />
<rect x="27" y="138" width="33" height="3" fill="#202028" />
<rect x="60" y="138" width="6" height="12" fill="#482010" />
<rect x="72" y="138" width="3" height="21" fill="#181010" />
<rect x="27" y="141" width="12" height="3" fill="#181010" />
<rect x="39" y="141" width="15" height="3" fill="#482010" />
<rect x="54" y="141" width="3" height="3" fill="#181010" />
<rect x="57" y="141" width="3" height="3" fill="#482010" />
<rect x="66" y="141" width="3" height="9" fill="#482010" />
<rect x="69" y="141" width="3" height="3" fill="#181010" />
<rect x="75" y="141" width="3" height="15" fill="#181010" />
<rect x="21" y="144" width="3" height="12" fill="#181010" />
<rect x="27" y="144" width="6" height="9" fill="#482010" />
<rect x="33" y="144" width="3" height="9" fill="#181010" />
<rect x="36" y="144" width="9" height="12" fill="#482010" />
<rect x="45" y="144" width="6" height="6" fill="#A06830" />
<rect x="51" y="144" width="6" height="9" fill="#482010" />
<rect x="57" y="144" width="3" height="18" fill="#181010" />
<rect x="69" y="144" width="3" height="6" fill="#482010" />
<rect x="45" y="150" width="6" height="6" fill="#482010" />
<rect x="60" y="150" width="12" height="3" fill="#181010" />
<rect x="27" y="153" width="3" height="3" fill="#A06830" />
<rect x="30" y="153" width="6" height="3" fill="#784010" />
<rect x="51" y="153" width="3" height="3" fill="#482010" />
<rect x="54" y="153" width="3" height="3" fill="#181010" />
<rect x="60" y="153" width="9" height="3" fill="#482010" />
<rect x="69" y="153" width="3" height="9" fill="#181010" />
<rect x="27" y="156" width="6" height="6" fill="#181010" />
<rect x="33" y="156" width="6" height="3" fill="#784010" />
<rect x="39" y="156" width="15" height="3" fill="#A06830" />
<rect x="54" y="156" width="3" height="3" fill="#784010" />
<rect x="60" y="156" width="9" height="6" fill="#181010" />
<rect x="33" y="159" width="24" height="6" fill="#181010" />
</svg>