<?xml version="1.0" encoding="UTF-8" ?>
<svg version="1.1" width="96" height="168" xmlns="http://www.w3.org/2000/svg" shape-rendering="crispEdges">
<rect x="48" y="3" width="18" height="3" fill="#482010" />
<rect x="42" y="6" width="6" height="3" fill="#482010" />
<rect x="48" y="6" width="18" height="3" fill="#600000" />
<rect x="66" y="6" width="3" height="3" fill="#482010" />
<rect x="39" y="9" width="3" height="3" fill="#482010" />
<rect x="42" y="9" width="9" height="3" fill="#600000" />
<rect x="51" y="9" width="12" height="39" fill="#A81828" />
<rect x="63" y="9" width="6" height="3" fill="#600000" />
<rect x="69" y="9" width="3" height="3" fill="#482010" />
<rect x="36" y="12" width="3" height="3" fill="#482010" />
<rect x="39" y="12" width="6" height="3" fill="#600000" />
<rect x="45" y="12" width="6" height="27" fill="#A81828" />
<rect x="63" y="12" width="3" height="33" fill="#A81828" />
<rect x="66" y="12" width="6" height="3" fill="#600000" />
<rect x="72" y="12" width="3" height="6" fill="#482010" />
<rect x="33" y="15" width="3" height="6" fill="#482010" />
<rect x="36" y="15" width="6" height="3" fill="#600000" />
<rect x="42" y="15" width="3" height="24" fill="#A81828" />
<rect x="66" y="15" width="3" height="27" fill="#A81828" />
<rect x="69" y="15" width="3" height="3" fill="#600000" />
<rect x="36" y="18" width="3" height="6" fill="#600000" />
<rect x="39" y="18" width="3" height="18" fill="#A81828" />
<rect x="69" y="18" width="3" height="21" fill="#A81828" />
<rect x="72" y="18" width="3" height="9" fill="#600000" />
<rect x="75" y="18" width="3" height="3" fill="#482010" />
<rect x="30" y="21" width="3" height="3" fill="#482010" />
<rect x="33" y="21" width="3" height="6" fill="#600000" />
<rect x="75" y="21" width="3" height="12" fill="#600000" />
<rect x="78" y="21" width="12" height="12" fill="#181010" />
<rect x="27" y="24" width="3" height="12" fill="#482010" />
<rect x="30" y="24" width="3" height="15" fill="#600000" />
<rect x="36" y="24" width="3" height="12" fill="#A81828" />
<rect x="90" y="24" width="3" height="6" fill="#181010" />
<rect x="33" y="27" width="3" height="9" fill="#A81828" />
<rect x="72" y="27" width="3" height="9" fill="#A81828" />
<rect x="21" y="33" width="6" height="3" fill="#482010" />
<rect x="75" y="33" width="12" height="3" fill="#181010" />
<rect x="18" y="36" width="3" height="3" fill="#482010" />
<rect x="21" y="36" width="9" height="3" fill="#600000" />
<rect x="33" y="36" width="9" height="3" fill="#600000" />
<rect x="72" y="36" width="9" height="6" fill="#181010" />
<rect x="15" y="39" width="3" height="3" fill="#482010" />
<rect x="18" y="39" width="6" height="3" fill="#600000" />
<rect x="24" y="39" width="18" height="18" fill="#A81828" />
<rect x="42" y="39" width="6" height="3" fill="#600000" />
<rect x="48" y="39" width="3" height="15" fill="#A81828" />
<rect x="69" y="39" width="3" height="6" fill="#181010" />
<rect x="81" y="39" width="9" height="3" fill="#181010" />
<rect x="12" y="42" width="3" height="9" fill="#482010" />
<rect x="15" y="42" width="6" height="3" fill="#600000" />
<rect x="21" y="42" width="3" height="12" fill="#A81828" />
<rect x="42" y="42" width="6" height="12" fill="#A81828" />
<rect x="66" y="42" width="3" height="6" fill="#181010" />
<rect x="72" y="42" width="3" height="9" fill="#784010" />
<rect x="75" y="42" width="15" height="3" fill="#482010" />
<rect x="90" y="42" width="3" height="3" fill="#181010" />
<rect x="15" y="45" width="3" height="9" fill="#600000" />
<rect x="18" y="45" width="3" height="9" fill="#A81828" />
<rect x="63" y="45" width="3" height="3" fill="#181010" />
<rect x="69" y="45" width="3" height="3" fill="#784010" />
<rect x="75" y="45" width="3" height="9" fill="#784010" />
<rect x="78" y="45" width="3" height="3" fill="#482010" />
<rect x="81" y="45" width="6" height="12" fill="#B88858" />
<rect x="87" y="45" width="6" height="3" fill="#482010" />
<rect x="93" y="45" width="3" height="21" fill="#181010" />
<rect x="51" y="48" width="6" height="3" fill="#A81828" />
<rect x="57" y="48" width="3" height="6" fill="#600000" />
<rect x="60" y="48" width="3" height="3" fill="#181010" />
<rect x="63" y="48" width="9" height="3" fill="#482010" />
<rect x="78" y="48" width="3" height="6" fill="#B88858" />
<rect x="87" y="48" width="3" height="15" fill="#B88858" />
<rect x="90" y="48" width="3" height="18" fill="#482010" />
<rect x="12" y="51" width="3" height="3" fill="#181010" />
<rect x="51" y="51" width="6" height="3" fill="#600000" />
<rect x="60" y="51" width="3" height="3" fill="#784010" />
<rect x="63" y="51" width="9" height="18" fill="#B88858" />
<rect x="72" y="51" width="3" height="3" fill="#482010" />
<rect x="9" y="54" width="3" height="12" fill="#181010" />
<rect x="12" y="54" width="3" height="12" fill="#482010" />
<rect x="15" y="54" width="3" height="9" fill="#B88858" />
<rect x="18" y="54" width="6" height="3" fill="#600000" />
<rect x="42" y="54" width="9" height="3" fill="#600000" />
<rect x="51" y="54" width="9" height="27" fill="#784010" />
<rect x="60" y="54" width="3" height="12" fill="#B88858" />
<rect x="72" y="54" width="3" height="12" fill="#B88858" />
<rect x="75" y="54" width="3" height="12" fill="#482010" />
<rect x="78" y="54" width="3" height="9" fill="#784010" />
<rect x="18" y="57" width="3" height="9" fill="#B88858" />
<rect x="21" y="57" width="3" height="9" fill="#784010" />
<rect x="24" y="57" width="18" height="3" fill="#600000" />
<rect x="42" y="57" width="9" height="21" fill="#784010" />
<rect x="81" y="57" width="3" height="18" fill="#181010" />
<rect x="84" y="57" width="3" height="3" fill="#B88858" />
<rect x="24" y="60" width="18" height="12" fill="#784010" />
<rect x="84" y="60" width="3" height="12" fill="#181010" />
<rect x="15" y="63" width="3" height="6" fill="#482010" />
<rect x="78" y="63" width="3" height="6" fill="#B88858" />
<rect x="87" y="63" width="3" height="6" fill="#482010" />
<rect x="12" y="66" width="3" height="3" fill="#181010" />
<rect x="18" y="66" width="6" height="6" fill="#482010" />
<rect x="60" y="66" width="3" height="6" fill="#784010" />
<rect x="72" y="66" width="3" height="3" fill="#482010" />
<rect x="75" y="66" width="3" height="6" fill="#B88858" />
<rect x="90" y="66" width="3" height="3" fill="#181010" />
<rect x="15" y="69" width="3" height="3" fill="#181010" />
<rect x="63" y="69" width="3" height="3" fill="#784010" />
<rect x="66" y="69" width="6" height="3" fill="#482010" />
<rect x="72" y="69" width="3" height="6" fill="#B88858" />
<rect x="78" y="69" width="3" height="3" fill="#181010" />
<rect x="87" y="69" width="3" height="3" fill="#181010" />
<rect x="18" y="72" width="3" height="12" fill="#181010" />
<rect x="21" y="72" width="6" height="3" fill="#482010" />
<rect x="27" y="72" width="15" height="6" fill="#784010" />
<rect x="60" y="72" width="12" height="3" fill="#B88858" />
<rect x="75" y="72" width="6" height="3" fill="#482010" />
<rect x="21" y="75" width="3" height="9" fill="#482010" />
<rect x="24" y="75" width="3" height="6" fill="#784010" />
<rect x="60" y="75" width="3" height="6" fill="#784010" />
<rect x="63" y="75" width="9" height="3" fill="#B88858" />
<rect x="72" y="75" width="6" height="3" fill="#482010" />
<rect x="78" y="75" width="3" height="3" fill="#181010" />
<rect x="27" y="78" width="9" height="3" fill="#784010" />
<rect x="36" y="78" width="9" height="3" fill="#482010" />
<rect x="45" y="78" width="6" height="3" fill="#784010" />
<rect x="63" y="78" width="3" height="3" fill="#B88858" />
<rect x="66" y="78" width="9" height="3" fill="#482010" />
<rect x="75" y="78" width="3" height="3" fill="#181010" />
<rect x="24" y="81" width="15" height="3" fill="#482010" />
<rect x="39" y="81" width="6" height="9" fill="#A81828" />
<rect x="45" y="81" width="24" height="3" fill="#482010" />
<rect x="69" y="81" width="6" height="3" fill="#181010" />
<rect x="21" y="84" width="3" height="3" fill="#181010" />
<rect x="24" y="84" width="3" height="6" fill="#482010" />
<rect x="27" y="84" width="6" height="3" fill="#600000" />
<rect x="33" y="84" width="3" height="3" fill="#202028" />
<rect x="36" y="84" width="3" height="6" fill="#A81828" />
<rect x="45" y="84" width="12" height="3" fill="#2830C8" />
<rect x="57" y="84" width="6" height="18" fill="#A81828" />
<rect x="63" y="84" width="6" height="3" fill="#600000" />
<rect x="69" y="84" width="3" height="3" fill="#202028" />
<rect x="27" y="87" width="3" height="6" fill="#600000" />
<rect x="30" y="87" width="3" height="9" fill="#202028" />
<rect x="33" y="87" width="3" height="42" fill="#2830C8" />
<rect x="45" y="87" width="9" height="45" fill="#2830C8" />
<rect x="54" y="87" width="3" height="12" fill="#A81828" />
<rect x="63" y="87" width="3" height="15" fill="#A81828" />
<rect x="66" y="87" width="6" height="6" fill="#600000" />
<rect x="72" y="87" width="3" height="6" fill="#202028" />
<rect x="21" y="90" width="3" height="6" fill="#482010" />
<rect x="24" y="90" width="3" height="9" fill="#600000" />
<rect x="36" y="90" width="3" height="39" fill="#2830C8" />
<rect x="39" y="90" width="3" height="6" fill="#A81828" />
<rect x="42" y="90" width="3" height="42" fill="#2830C8" />
<rect x="75" y="90" width="3" height="9" fill="#202028" />
<rect x="27" y="93" width="3" height="9" fill="#202028" />
<rect x="66" y="93" width="3" height="9" fill="#A81828" />
<rect x="69" y="93" width="6" height="6" fill="#600000" />
<rect x="78" y="93" width="3" height="9" fill="#202028" />
<rect x="18" y="96" width="3" height="3" fill="#181010" />
<rect x="21" y="96" width="3" height="3" fill="#404040" />
<rect x="30" y="96" width="3" height="27" fill="#2830C8" />
<rect x="39" y="96" width="3" height="36" fill="#2830C8" />
<rect x="15" y="99" width="3" height="3" fill="#181010" />
<rect x="18" y="99" width="3" height="3" fill="#404040" />
<rect x="21" y="99" width="3" height="12" fill="#B0B0B0" />
<rect x="24" y="99" width="3" height="15" fill="#202028" />
<rect x="54" y="99" width="3" height="12" fill="#404040" />
<rect x="69" y="99" width="3" height="3" fill="#A81828" />
<rect x="72" y="99" width="6" height="3" fill="#600000" />
<rect x="81" y="99" width="3" height="3" fill="#202028" />
<rect x="12" y="102" width="3" height="21" fill="#181010" />
<rect x="15" y="102" width="3" height="12" fill="#404040" />
<rect x="18" y="102" width="3" height="12" fill="#B0B0B0" />
<rect x="27" y="102" width="3" height="15" fill="#2830C8" />
<rect x="57" y="102" width="3" height="3" fill="#404040" />
<rect x="60" y="102" width="18" height="6" fill="#B0B0B0" />
<rect x="78" y="102" width="3" height="3" fill="#404040" />
<rect x="81" y="102" width="3" height="3" fill="#181010" />
<rect x="57" y="105" width="3" height="6" fill="#B0B0B0" />
<rect x="78" y="105" width="3" height="15" fill="#B0B0B0" />
<rect x="81" y="105" width="3" height="3" fill="#404040" />
<rect x="84" y="105" width="6" height="3" fill="#181010" />
<rect x="60" y="108" width="15" height="3" fill="#B0B0B0" />
<rect x="75" y="108" width="3" height="6" fill="#686868" />
<rect x="81" y="108" width="3" height="9" fill="#B0B0B0" />
<rect x="84" y="108" width="3" height="15" fill="#404040" />
<rect x="87" y="108" width="6" height="3" fill="#181010" />
<rect x="21" y="111" width="3" height="3" fill="#202028" />
<rect x="54" y="111" width="3" height="3" fill="#2830C8" />
<rect x="57" y="111" width="3" height="3" fill="#686868" />
<rect x="60" y="111" width="9" height="12" fill="#B0B0B0" />
<rect x="69" y="111" width="3" height="6" fill="#686868" />
<rect x="72" y="111" width="3" height="12" fill="#B0B0B0" />
<rect x="87" y="111" width="3" height="9" fill="#404040" />
<rect x="90" y="111" width="6" height="15" fill="#181010" />
<rect x="15" y="114" width="12" height="3" fill="#181010" />
<rect x="54" y="114" width="3" height="6" fill="#404040" />
<rect x="57" y="114" width="3" height="6" fill="#B0B0B0" />
<rect x="75" y="114" width="3" height="9" fill="#B0B0B0" />
<rect x="9" y="117" width="3" height="15" fill="#181010" />
<rect x="15" y="117" width="3" height="27" fill="#784010" />
<rect x="18" y="117" width="3" height="3" fill="#A06830" />
<rect x="21" y="117" width="9" height="3" fill="#482010" />
<rect x="69" y="117" width="3" height="6" fill="#B0B0B0" />
<rect x="81" y="117" width="3" height="9" fill="#404040" />
<rect x="18" y="120" width="3" height="12" fill="#784010" />
<rect x="21" y="120" width="3" height="12" fill="#A06830" />
<rect x="24" y="120" width="6" height="15" fill="#482010" />
<rect x="54" y="120" width="3" height="12" fill="#2830C8" />
<rect x="57" y="120" width="3" height="3" fill="#404040" />
<rect x="78" y="120" width="3" height="6" fill="#404040" />
<rect x="87" y="120" width="3" height="3" fill="#A06830" />
<rect x="6" y="123" width="3" height="30" fill="#181010" />
<rect x="12" y="123" width="3" height="27" fill="#784010" />
<rect x="30" y="123" width="3" height="9" fill="#482010" />
<rect x="57" y="123" width="3" height="9" fill="#2830C8" />
<rect x="60" y="123" width="18" height="3" fill="#404040" />
<rect x="84" y="123" width="3" height="3" fill="#482010" />
<rect x="87" y="123" width="3" height="3" fill="#784010" />
<rect x="60" y="126" width="12" height="6" fill="#2830C8" />
<rect x="72" y="126" width="12" height="6" fill="#482010" />
<rect x="84" y="126" width="3" height="3" fill="#784010" />
<rect x="87" y="126" width="6" height="6" fill="#181010" />
<rect x="33" y="129" width="6" height="3" fill="#202028" />
<rect x="84" y="129" width="3" height="18" fill="#181010" />
<rect x="3" y="132" width="3" height="18" fill="#181010" />
<rect x="9" y="132" width="3" height="15" fill="#784010" />
<rect x="18" y="132" width="3" height="12" fill="#A06830" />
<rect x="21" y="132" width="3" height="3" fill="#784010" />
<rect x="30" y="132" width="6" height="3" fill="#181010" />
<rect x="36" y="132" width="24" height="6" fill="#202028" />
<rect x="60" y="132" width="9" height="3" fill="#2830C8" />
<rect x="69" y="132" width="12" height="9" fill="#482010" />
<rect x="81" y="132" width="3" height="3" fill="#784010" />
<rect x="87" y="132" width="3" height="12" fill="#181010" />
<rect x="21" y="135" width="6" height="9" fill="#482010" />
<rect x="27" y="135" width="6" height="3" fill="#181010" />
<rect x="33" y="135" width="3" height="3" fill="#202028" />
<rect x="60" y="135" width="3" height="3" fill="#202028" />
<rect x="63" y="135" width="3" height="9" fill="#181010" />
<rect x="66" y="135" width="3" height="3" fill="#482010" />
<rect x="81" y="135" width="3" height="3" fill="#A06830" />
<rect x="27" y="138" width="3" height="3" fill="#482010" />
<rect x="30" y="138" width="6" height="9" fill="#181010" />
<rect x="60" y="138" width="3" height="3" fill="#181010" />
<rect x="66" y="138" width="3" height="9" fill="#181010" />
<rect x="81" y="138" width="3" height="3" fill="#784010" />
<rect x="27" y="141" width="3" height="6" fill="#784010" />
<rect x="69" y="141" width="3" height="6" fill="#181010" />
<rect x="72" y="141" width="3" height="3" fill="#482010" />
<rect x="75" y="141" width="6" height="3" fill="#784010" />
<rect x="81" y="141" width="3" height="9" fill="#181010" />
<rect x="15" y="144" width="3" height="3" fill="#A06830" />
<rect x="18" y="144" width="3" height="3" fill="#784010" />
<rect x="21" y="144" width="3" height="6" fill="#482010" />
<rect x="24" y="144" width="3" height="3" fill="#784010" />
<rect x="72" y="144" width="9" height="6" fill="#181010" />
<rect x="9" y="147" width="3" height="9" fill="#181010" />
<rect x="15" y="147" width="3" height="3" fill="#784010" />
<rect x="18" y="147" width="3" height="3" fill="#482010" />
<rect x="24" y="147" width="3" height="3" fill="#482010" />
<rect x="27" y="147" width="6" height="3" fill="#181010" />
<rect x="12" y="150" width="18" height="3" fill="#181010" />
<rect x="12" y="153" width="15" height="3" fill="#181010" />
</svg>