<?xml version="1.0" encoding="UTF-8" ?>
<svg version="1.1" width="128" height="128" xmlns="http://www.w3.org/2000/svg" shape-rendering="crispEdges">
<rect x="64" y="8" width="20" height="4" fill="#482010" />
<rect x="56" y="12" width="8" height="4" fill="#482010" />
<rect x="64" y="12" width="16" height="4" fill="#600000" />
<rect x="80" y="12" width="12" height="4" fill="#482010" />
<rect x="48" y="16" width="12" height="4" fill="#482010" />
<rect x="60" y="16" width="4" height="4" fill="#600000" />
<rect x="64" y="16" width="16" height="8" fill="#A81828" />
<rect x="80" y="16" width="8" height="4" fill="#600000" />
<rect x="88" y="16" width="4" height="4" fill="#482010" />
<rect x="44" y="20" width="8" height="4" fill="#482010" />
<rect x="52" y="20" width="4" height="4" fill="#600000" />
<rect x="56" y="20" width="8" height="28" fill="#A81828" />
<rect x="80" y="20" width="8" height="4" fill="#A81828" />
<rect x="88" y="20" width="4" height="8" fill="#600000" />
<rect x="92" y="20" width="4" height="8" fill="#482010" />
<rect x="40" y="24" width="8" height="4" fill="#482010" />
<rect x="48" y="24" width="4" height="4" fill="#600000" />
<rect x="52" y="24" width="4" height="28" fill="#A81828" />
<rect x="64" y="24" width="4" height="4" fill="#A81828" />
<rect x="68" y="24" width="16" height="4" fill="#B0B0B0" />
<rect x="84" y="24" width="4" height="4" fill="#A81828" />
<rect x="36" y="28" width="8" height="4" fill="#482010" />
<rect x="44" y="28" width="4" height="4" fill="#600000" />
<rect x="48" y="28" width="4" height="28" fill="#A81828" />
<rect x="64" y="28" width="8" height="12" fill="#B0B0B0" />
<rect x="72" y="28" width="4" height="12" fill="#600000" />
<rect x="76" y="28" width="4" height="4" fill="#B0B0B0" />
<rect x="80" y="28" width="4" height="12" fill="#600000" />
<rect x="84" y="28" width="4" height="12" fill="#B0B0B0" />
<rect x="88" y="28" width="4" height="8" fill="#A81828" />
<rect x="92" y="28" width="4" height="8" fill="#600000" />
<rect x="96" y="28" width="4" height="8" fill="#482010" />
<rect x="32" y="32" width="8" height="4" fill="#482010" />
<rect x="40" y="32" width="4" height="4" fill="#600000" />
<rect x="44" y="32" width="4" height="24" fill="#A81828" />
<rect x="76" y="32" width="4" height="8" fill="#600000" />
<rect x="32" y="36" width="4" height="8" fill="#482010" />
<rect x="36" y="36" width="4" height="8" fill="#600000" />
<rect x="40" y="36" width="4" height="24" fill="#A81828" />
<rect x="88" y="36" width="4" height="4" fill="#600000" />
<rect x="92" y="36" width="24" height="12" fill="#181010" />
<rect x="28" y="40" width="4" height="12" fill="#482010" />
<rect x="64" y="40" width="4" height="8" fill="#A81828" />
<rect x="68" y="40" width="8" height="4" fill="#B0B0B0" />
<rect x="76" y="40" width="16" height="12" fill="#181010" />
<rect x="116" y="40" width="4" height="4" fill="#181010" />
<rect x="32" y="44" width="4" height="8" fill="#600000" />
<rect x="36" y="44" width="4" height="20" fill="#A81828" />
<rect x="68" y="44" width="8" height="12" fill="#181010" />
<rect x="16" y="48" width="12" height="4" fill="#482010" />
<rect x="56" y="48" width="4" height="4" fill="#A81828" />
<rect x="60" y="48" width="4" height="4" fill="#600000" />
<rect x="64" y="48" width="4" height="8" fill="#181010" />
<rect x="92" y="48" width="12" height="4" fill="#181010" />
<rect x="12" y="52" width="8" height="4" fill="#482010" />
<rect x="20" y="52" width="12" height="4" fill="#600000" />
<rect x="32" y="52" width="4" height="12" fill="#A81828" />
<rect x="52" y="52" width="4" height="4" fill="#600000" />
<rect x="56" y="52" width="8" height="8" fill="#181010" />
<rect x="76" y="52" width="16" height="4" fill="#B88858" />
<rect x="92" y="52" width="4" height="8" fill="#482010" />
<rect x="96" y="52" width="4" height="12" fill="#181010" />
<rect x="8" y="56" width="8" height="4" fill="#482010" />
<rect x="16" y="56" width="4" height="4" fill="#600000" />
<rect x="20" y="56" width="8" height="12" fill="#A81828" />
<rect x="28" y="56" width="4" height="4" fill="#600000" />
<rect x="44" y="56" width="4" height="4" fill="#600000" />
<rect x="48" y="56" width="8" height="4" fill="#181010" />
<rect x="64" y="56" width="24" height="4" fill="#B88858" />
<rect x="88" y="56" width="4" height="4" fill="#A06830" />
<rect x="8" y="60" width="4" height="16" fill="#482010" />
<rect x="12" y="60" width="4" height="12" fill="#600000" />
<rect x="16" y="60" width="4" height="12" fill="#A81828" />
<rect x="28" y="60" width="4" height="8" fill="#A81828" />
<rect x="40" y="60" width="12" height="4" fill="#181010" />
<rect x="52" y="60" width="4" height="4" fill="#784010" />
<rect x="56" y="60" width="12" height="24" fill="#B88858" />
<rect x="68" y="60" width="8" height="16" fill="#181010" />
<rect x="76" y="60" width="12" height="32" fill="#B88858" />
<rect x="88" y="60" width="8" height="8" fill="#181010" />
<rect x="100" y="60" width="8" height="4" fill="#181010" />
<rect x="32" y="64" width="4" height="4" fill="#600000" />
<rect x="36" y="64" width="8" height="4" fill="#181010" />
<rect x="44" y="64" width="4" height="4" fill="#784010" />
<rect x="48" y="64" width="8" height="44" fill="#B88858" />
<rect x="96" y="64" width="12" height="4" fill="#482010" />
<rect x="108" y="64" width="4" height="4" fill="#181010" />
<rect x="20" y="68" width="4" height="4" fill="#A81828" />
<rect x="24" y="68" width="4" height="4" fill="#600000" />
<rect x="28" y="68" width="8" height="4" fill="#181010" />
<rect x="36" y="68" width="4" height="16" fill="#482010" />
<rect x="40" y="68" width="8" height="8" fill="#B88858" />
<rect x="88" y="68" width="4" height="4" fill="#181010" />
<rect x="92" y="68" width="4" height="4" fill="#784010" />
<rect x="96" y="68" width="8" height="24" fill="#B88858" />
<rect x="104" y="68" width="4" height="4" fill="#A06830" />
<rect x="108" y="68" width="4" height="4" fill="#482010" />
<rect x="112" y="68" width="4" height="4" fill="#181010" />
<rect x="12" y="72" width="4" height="8" fill="#482010" />
<rect x="16" y="72" width="8" height="4" fill="#600000" />
<rect x="24" y="72" width="8" height="4" fill="#181010" />
<rect x="32" y="72" width="4" height="8" fill="#482010" />
<rect x="88" y="72" width="8" height="24" fill="#B88858" />
<rect x="104" y="72" width="4" height="16" fill="#B88858" />
<rect x="108" y="72" width="4" height="4" fill="#A06830" />
<rect x="112" y="72" width="4" height="16" fill="#482010" />
<rect x="116" y="72" width="4" height="16" fill="#181010" />
<rect x="8" y="76" width="4" height="4" fill="#181010" />
<rect x="16" y="76" width="16" height="8" fill="#B88858" />
<rect x="40" y="76" width="8" height="8" fill="#482010" />
<rect x="68" y="76" width="8" height="4" fill="#784010" />
<rect x="108" y="76" width="4" height="8" fill="#B88858" />
<rect x="4" y="80" width="4" height="16" fill="#181010" />
<rect x="8" y="80" width="4" height="12" fill="#482010" />
<rect x="12" y="80" width="4" height="12" fill="#B88858" />
<rect x="32" y="80" width="4" height="24" fill="#B88858" />
<rect x="68" y="80" width="8" height="8" fill="#B88858" />
<rect x="16" y="84" width="4" height="12" fill="#B88858" />
<rect x="20" y="84" width="8" height="4" fill="#784010" />
<rect x="28" y="84" width="4" height="16" fill="#B88858" />
<rect x="36" y="84" width="4" height="4" fill="#784010" />
<rect x="40" y="84" width="4" height="4" fill="#482010" />
<rect x="44" y="84" width="4" height="24" fill="#B88858" />
<rect x="56" y="84" width="4" height="4" fill="#B88858" />
<rect x="60" y="84" width="8" height="12" fill="#181010" />
<rect x="108" y="84" width="4" height="4" fill="#A06830" />
<rect x="20" y="88" width="4" height="12" fill="#B88858" />
<rect x="24" y="88" width="4" height="4" fill="#784010" />
<rect x="36" y="88" width="8" height="16" fill="#B88858" />
<rect x="56" y="88" width="4" height="8" fill="#181010" />
<rect x="68" y="88" width="4" height="16" fill="#181010" />
<rect x="72" y="88" width="4" height="4" fill="#B88858" />
<rect x="104" y="88" width="4" height="4" fill="#A06830" />
<rect x="108" y="88" width="4" height="4" fill="#482010" />
<rect x="112" y="88" width="4" height="4" fill="#181010" />
<rect x="8" y="92" width="4" height="8" fill="#181010" />
<rect x="12" y="92" width="4" height="4" fill="#482010" />
<rect x="24" y="92" width="4" height="8" fill="#B88858" />
<rect x="72" y="92" width="8" height="16" fill="#181010" />
<rect x="80" y="92" width="8" height="4" fill="#B88858" />
<rect x="96" y="92" width="4" height="4" fill="#A06830" />
<rect x="100" y="92" width="4" height="4" fill="#784010" />
<rect x="104" y="92" width="4" height="4" fill="#482010" />
<rect x="108" y="92" width="4" height="4" fill="#181010" />
<rect x="12" y="96" width="4" height="8" fill="#181010" />
<rect x="16" y="96" width="4" height="4" fill="#482010" />
<rect x="56" y="96" width="4" height="16" fill="#B88858" />
<rect x="60" y="96" width="4" height="4" fill="#784010" />
<rect x="64" y="96" width="4" height="8" fill="#181010" />
<rect x="80" y="96" width="28" height="4" fill="#181010" />
<rect x="16" y="100" width="4" height="4" fill="#181010" />
<rect x="20" y="100" width="12" height="4" fill="#482010" />
<rect x="60" y="100" width="4" height="12" fill="#B88858" />
<rect x="80" y="100" width="24" height="4" fill="#181010" />
<rect x="20" y="104" width="12" height="4" fill="#181010" />
<rect x="32" y="104" width="8" height="4" fill="#482010" />
<rect x="40" y="104" width="4" height="4" fill="#B88858" />
<rect x="64" y="104" width="8" height="8" fill="#B88858" />
<rect x="80" y="104" width="20" height="4" fill="#181010" />
<rect x="32" y="108" width="8" height="4" fill="#181010" />
<rect x="40" y="108" width="8" height="4" fill="#482010" />
<rect x="48" y="108" width="4" height="4" fill="#784010" />
<rect x="52" y="108" width="4" height="4" fill="#B88858" />
<rect x="72" y="108" width="8" height="4" fill="#B88858" />
<rect x="80" y="108" width="4" height="4" fill="#784010" />
<rect x="84" y="108" width="4" height="4" fill="#482010" />
<rect x="88" y="108" width="4" height="4" fill="#181010" />
<rect x="40" y="112" width="8" height="4" fill="#181010" />
<rect x="48" y="112" width="36" height="4" fill="#482010" />
<rect x="84" y="112" width="4" height="4" fill="#181010" />
<rect x="48" y="116" width="36" height="4" fill="#181010" />
</svg>