<?xml version="1.0" encoding="UTF-8" ?>
<svg version="1.1" width="128" height="128" xmlns="http://www.w3.org/2000/svg" shape-rendering="crispEdges">
<rect x="60" y="0" width="20" height="8" fill="#184200" />
<rect x="52" y="4" width="8" height="8" fill="#184200" />
<rect x="80" y="4" width="8" height="8" fill="#184200" />
<rect x="48" y="8" width="4" height="12" fill="#184200" />
<rect x="60" y="8" width="4" height="4" fill="#184200" />
<rect x="64" y="8" width="16" height="8" fill="#428400" />
<rect x="88" y="8" width="4" height="12" fill="#184200" />
<rect x="44" y="12" width="4" height="16" fill="#184200" />
<rect x="52" y="12" width="4" height="4" fill="#184200" />
<rect x="56" y="12" width="8" height="28" fill="#428400" />
<rect x="80" y="12" width="8" height="4" fill="#428400" />
<rect x="92" y="12" width="4" height="16" fill="#184200" />
<rect x="40" y="16" width="4" height="20" fill="#184200" />
<rect x="52" y="16" width="4" height="28" fill="#428400" />
<rect x="64" y="16" width="4" height="4" fill="#428400" />
<rect x="68" y="16" width="16" height="4" fill="#B5B5B5" />
<rect x="84" y="16" width="4" height="4" fill="#428400" />
<rect x="48" y="20" width="4" height="28" fill="#428400" />
<rect x="64" y="20" width="12" height="12" fill="#B5B5B5" />
<rect x="76" y="20" width="8" height="12" fill="#184200" />
<rect x="84" y="20" width="4" height="12" fill="#B5B5B5" />
<rect x="88" y="20" width="4" height="8" fill="#428400" />
<rect x="96" y="20" width="4" height="8" fill="#184200" />
<rect x="36" y="24" width="4" height="20" fill="#184200" />
<rect x="44" y="28" width="4" height="24" fill="#428400" />
<rect x="88" y="28" width="4" height="4" fill="#184200" />
<rect x="92" y="28" width="24" height="12" fill="#180808" />
<rect x="32" y="32" width="4" height="20" fill="#184200" />
<rect x="64" y="32" width="4" height="8" fill="#428400" />
<rect x="68" y="32" width="4" height="4" fill="#B5B5B5" />
<rect x="72" y="32" width="4" height="4" fill="#184200" />
<rect x="76" y="32" width="16" height="12" fill="#180808" />
<rect x="116" y="32" width="4" height="4" fill="#180808" />
<rect x="40" y="36" width="4" height="20" fill="#428400" />
<rect x="68" y="36" width="8" height="12" fill="#180808" />
<rect x="20" y="40" width="12" height="8" fill="#184200" />
<rect x="56" y="40" width="4" height="4" fill="#428400" />
<rect x="60" y="40" width="4" height="4" fill="#184200" />
<rect x="64" y="40" width="4" height="8" fill="#180808" />
<rect x="92" y="40" width="12" height="4" fill="#180808" />
<rect x="16" y="44" width="4" height="28" fill="#184200" />
<rect x="36" y="44" width="4" height="12" fill="#428400" />
<rect x="52" y="44" width="4" height="4" fill="#184200" />
<rect x="56" y="44" width="8" height="8" fill="#180808" />
<rect x="76" y="44" width="16" height="4" fill="#BD8C5A" />
<rect x="92" y="44" width="4" height="8" fill="#421800" />
<rect x="96" y="44" width="4" height="12" fill="#180808" />
<rect x="12" y="48" width="4" height="20" fill="#184200" />
<rect x="20" y="48" width="4" height="4" fill="#184200" />
<rect x="24" y="48" width="8" height="12" fill="#428400" />
<rect x="48" y="48" width="4" height="4" fill="#184200" />
<rect x="52" y="48" width="4" height="4" fill="#180808" />
<rect x="64" y="48" width="24" height="4" fill="#BD8C5A" />
<rect x="88" y="48" width="4" height="4" fill="#A56B31" />
<rect x="20" y="52" width="4" height="12" fill="#428400" />
<rect x="32" y="52" width="4" height="8" fill="#428400" />
<rect x="44" y="52" width="8" height="4" fill="#180808" />
<rect x="52" y="52" width="4" height="4" fill="#7B4210" />
<rect x="56" y="52" width="12" height="28" fill="#BD8C5A" />
<rect x="68" y="52" width="8" height="16" fill="#180808" />
<rect x="76" y="52" width="12" height="32" fill="#BD8C5A" />
<rect x="88" y="52" width="8" height="8" fill="#180808" />
<rect x="100" y="52" width="8" height="4" fill="#180808" />
<rect x="36" y="56" width="4" height="4" fill="#184200" />
<rect x="40" y="56" width="8" height="4" fill="#180808" />
<rect x="48" y="56" width="4" height="4" fill="#7B4210" />
<rect x="52" y="56" width="4" height="64" fill="#BD8C5A" />
<rect x="96" y="56" width="12" height="4" fill="#421800" />
<rect x="108" y="56" width="4" height="4" fill="#180808" />
<rect x="24" y="60" width="4" height="4" fill="#428400" />
<rect x="28" y="60" width="4" height="4" fill="#184200" />
<rect x="32" y="60" width="8" height="4" fill="#180808" />
<rect x="40" y="60" width="4" height="20" fill="#421800" />
<rect x="44" y="60" width="8" height="8" fill="#BD8C5A" />
<rect x="88" y="60" width="4" height="4" fill="#180808" />
<rect x="92" y="60" width="4" height="4" fill="#7B4210" />
<rect x="96" y="60" width="8" height="24" fill="#BD8C5A" />
<rect x="104" y="60" width="4" height="4" fill="#A56B31" />
<rect x="108" y="60" width="4" height="4" fill="#421800" />
<rect x="112" y="60" width="4" height="4" fill="#180808" />
<rect x="20" y="64" width="8" height="4" fill="#184200" />
<rect x="28" y="64" width="8" height="4" fill="#180808" />
<rect x="36" y="64" width="4" height="12" fill="#421800" />
<rect x="88" y="64" width="8" height="24" fill="#BD8C5A" />
<rect x="104" y="64" width="4" height="16" fill="#BD8C5A" />
<rect x="108" y="64" width="4" height="4" fill="#A56B31" />
<rect x="112" y="64" width="4" height="16" fill="#421800" />
<rect x="116" y="64" width="4" height="16" fill="#180808" />
<rect x="20" y="68" width="16" height="4" fill="#421800" />
<rect x="44" y="68" width="8" height="8" fill="#421800" />
<rect x="68" y="68" width="8" height="4" fill="#7B4210" />
<rect x="108" y="68" width="4" height="8" fill="#BD8C5A" />
<rect x="12" y="72" width="4" height="4" fill="#180808" />
<rect x="16" y="72" width="4" height="4" fill="#421800" />
<rect x="20" y="72" width="16" height="8" fill="#BD8C5A" />
<rect x="68" y="72" width="8" height="12" fill="#BD8C5A" />
<rect x="8" y="76" width="4" height="16" fill="#180808" />
<rect x="12" y="76" width="4" height="12" fill="#421800" />
<rect x="16" y="76" width="4" height="12" fill="#BD8C5A" />
<rect x="36" y="76" width="4" height="20" fill="#BD8C5A" />
<rect x="44" y="76" width="4" height="4" fill="#421800" />
<rect x="48" y="76" width="4" height="36" fill="#BD8C5A" />
<rect x="108" y="76" width="4" height="4" fill="#A56B31" />
<rect x="20" y="80" width="4" height="12" fill="#BD8C5A" />
<rect x="24" y="80" width="8" height="4" fill="#7B4210" />
<rect x="32" y="80" width="4" height="16" fill="#BD8C5A" />
<rect x="40" y="80" width="4" height="4" fill="#7B4210" />
<rect x="44" y="80" width="4" height="24" fill="#BD8C5A" />
<rect x="56" y="80" width="8" height="4" fill="#180808" />
<rect x="64" y="80" width="4" height="4" fill="#7B4210" />
<rect x="104" y="80" width="4" height="4" fill="#A56B31" />
<rect x="108" y="80" width="4" height="4" fill="#421800" />
<rect x="112" y="80" width="4" height="4" fill="#180808" />
<rect x="24" y="84" width="4" height="12" fill="#BD8C5A" />
<rect x="28" y="84" width="4" height="4" fill="#7B4210" />
<rect x="40" y="84" width="4" height="16" fill="#BD8C5A" />
<rect x="56" y="84" width="4" height="4" fill="#7B4210" />
<rect x="60" y="84" width="16" height="8" fill="#180808" />
<rect x="76" y="84" width="4" height="4" fill="#7B4210" />
<rect x="80" y="84" width="8" height="4" fill="#BD8C5A" />
<rect x="96" y="84" width="4" height="4" fill="#BD8C5A" />
<rect x="100" y="84" width="4" height="4" fill="#A56B31" />
<rect x="104" y="84" width="4" height="4" fill="#421800" />
<rect x="108" y="84" width="4" height="4" fill="#180808" />
<rect x="12" y="88" width="4" height="8" fill="#180808" />
<rect x="16" y="88" width="4" height="4" fill="#421800" />
<rect x="28" y="88" width="4" height="8" fill="#BD8C5A" />
<rect x="56" y="88" width="4" height="32" fill="#BD8C5A" />
<rect x="76" y="88" width="32" height="4" fill="#180808" />
<rect x="16" y="92" width="4" height="8" fill="#180808" />
<rect x="20" y="92" width="4" height="4" fill="#421800" />
<rect x="60" y="92" width="4" height="32" fill="#BD8C5A" />
<rect x="64" y="92" width="36" height="4" fill="#180808" />
<rect x="20" y="96" width="4" height="4" fill="#180808" />
<rect x="24" y="96" width="16" height="4" fill="#421800" />
<rect x="64" y="96" width="4" height="28" fill="#BD8C5A" />
<rect x="68" y="96" width="4" height="4" fill="#7B4210" />
<rect x="72" y="96" width="4" height="4" fill="#180808" />
<rect x="76" y="96" width="4" height="4" fill="#421800" />
<rect x="80" y="96" width="8" height="4" fill="#BD8C5A" />
<rect x="88" y="96" width="4" height="4" fill="#421800" />
<rect x="92" y="96" width="4" height="4" fill="#180808" />
<rect x="24" y="100" width="16" height="4" fill="#180808" />
<rect x="40" y="100" width="4" height="4" fill="#421800" />
<rect x="68" y="100" width="16" height="4" fill="#BD8C5A" />
<rect x="84" y="100" width="4" height="4" fill="#421800" />
<rect x="88" y="100" width="4" height="4" fill="#180808" />
<rect x="40" y="104" width="4" height="4" fill="#180808" />
<rect x="44" y="104" width="4" height="4" fill="#421800" />
<rect x="68" y="104" width="12" height="4" fill="#BD8C5A" />
<rect x="80" y="104" width="4" height="4" fill="#421800" />
<rect x="84" y="104" width="4" height="4" fill="#180808" />
<rect x="44" y="108" width="4" height="8" fill="#180808" />
<rect x="68" y="108" width="8" height="8" fill="#BD8C5A" />
<rect x="76" y="108" width="4" height="4" fill="#7B4210" />
<rect x="80" y="108" width="4" height="8" fill="#180808" />
<rect x="48" y="112" width="4" height="4" fill="#421800" />
<rect x="76" y="112" width="4" height="4" fill="#421800" />
<rect x="48" y="116" width="4" height="8" fill="#180808" />
<rect x="68" y="116" width="4" height="8" fill="#BD8C5A" />
<rect x="72" y="116" width="4" height="4" fill="#7B4210" />
<rect x="76" y="116" width="4" height="8" fill="#180808" />
<rect x="52" y="120" width="4" height="4" fill="#421800" />
<rect x="56" y="120" width="4" height="4" fill="#7B4210" />
<rect x="72" y="120" width="4" height="4" fill="#421800" />
<rect x="56" y="124" width="16" height="4" fill="#421800" />
</svg>